{"glyphs":{"0":{"ha":786,"x_min":0,"x_max":0,"o":"m 393 1003 b 521 972 441 1003 484 992 b 610 891 558 951 588 924 b 666 772 633 858 652 819 b 696 635 680 726 690 680 b 704 492 701 591 704 543 b 690 310 704 427 700 366 b 643 149 681 254 665 200 b 546 26 621 97 588 56 b 393 -19 503 -4 452 -19 b 239 26 333 -19 281 -4 b 142 149 196 56 164 97 b 96 311 121 202 105 256 b 82 492 87 367 82 427 b 90 635 82 543 84 591 b 119 772 95 680 104 726 b 174 891 133 819 152 858 b 265 972 197 924 227 951 b 393 1003 302 992 345 1003 m 393 957 b 279 924 350 957 312 946 b 203 841 247 901 222 874 b 160 724 185 808 171 769 b 140 603 150 679 143 639 b 135 492 136 567 135 530 b 140 381 135 454 136 417 b 160 259 143 344 150 304 b 203 142 171 214 185 175 b 279 60 222 109 247 82 b 393 26 312 38 350 26 b 528 74 446 26 491 42 b 608 201 565 106 591 148 b 642 348 624 253 635 302 b 651 492 648 394 651 442 b 642 635 651 542 648 590 b 608 783 635 681 624 730 b 528 909 591 835 565 877 b 393 957 491 941 446 957 "},"1":{"ha":786,"x_min":0,"x_max":0,"o":"m 453 0 l 401 0 l 401 921 l 218 764 l 186 801 l 404 983 l 453 983 "},"2":{"ha":786,"x_min":0,"x_max":0,"o":"m 658 0 l 82 0 l 82 57 l 444 461 b 558 612 494 517 532 567 b 597 747 584 657 597 702 b 537 901 597 811 577 862 b 383 958 497 939 445 958 b 245 913 331 958 284 943 b 164 788 206 882 179 840 l 113 800 b 211 948 129 862 162 911 b 383 1003 260 984 318 1003 b 574 933 460 1003 524 980 b 650 754 625 887 650 827 b 608 597 650 697 636 644 b 469 418 581 550 534 490 l 138 47 l 658 47 "},"3":{"ha":786,"x_min":0,"x_max":0,"o":"m 301 539 l 336 539 b 507 593 403 539 460 557 b 578 753 554 629 578 682 b 517 901 578 814 558 863 b 367 958 477 939 427 958 b 252 931 326 958 288 949 b 168 853 216 912 188 886 l 129 879 b 369 1003 184 962 264 1003 b 554 935 444 1003 505 980 b 628 756 603 891 628 831 b 578 603 628 697 611 646 b 438 519 544 559 498 531 l 438 517 b 603 428 509 505 564 475 b 661 263 642 382 661 326 b 583 60 661 181 635 114 b 368 -19 531 7 460 -19 b 197 25 303 -19 246 -5 b 86 149 148 55 111 96 l 131 171 b 224 67 150 127 181 93 b 368 26 266 42 314 28 b 544 92 441 26 500 48 b 610 264 588 136 610 194 b 526 435 610 339 582 396 b 336 493 470 474 406 493 l 301 493 "},"4":{"ha":786,"x_min":0,"x_max":0,"o":"m 567 296 l 725 296 l 725 250 l 567 250 l 567 0 l 517 0 l 517 250 l 60 250 l 60 306 l 494 983 l 567 983 m 517 925 l 513 925 l 111 296 l 517 296 "},"5":{"ha":786,"x_min":0,"x_max":0,"o":"m 632 936 l 217 936 l 208 579 b 365 610 253 600 305 610 b 588 523 457 610 531 581 b 672 300 644 465 672 391 b 583 67 672 203 642 125 b 365 -19 523 9 450 -19 b 93 126 247 -19 156 29 l 136 153 b 364 26 186 69 262 26 b 544 100 433 26 494 51 b 621 297 595 149 621 215 b 547 491 621 377 596 441 b 349 565 498 541 432 565 b 160 515 283 565 220 549 l 167 983 l 632 983 "},"6":{"ha":786,"x_min":0,"x_max":0,"o":"m 211 506 l 214 503 b 299 560 235 527 263 546 b 407 582 334 575 370 582 b 611 497 488 582 556 553 b 693 281 666 440 693 368 b 608 65 693 194 665 122 b 392 -19 552 9 480 -19 b 176 65 304 -19 232 9 b 93 281 121 121 93 193 b 178 540 93 357 121 444 l 440 983 l 501 983 m 144 281 b 215 97 144 206 168 145 b 393 25 261 49 321 25 b 572 97 465 25 525 49 b 642 281 618 145 642 206 b 574 465 642 355 619 416 b 399 539 528 514 470 539 b 218 465 327 539 267 514 b 144 281 169 415 144 354 "},"7":{"ha":786,"x_min":0,"x_max":0,"o":"m 654 929 l 249 0 l 192 0 l 604 936 l 107 936 l 107 983 l 654 983 "},"8":{"ha":786,"x_min":0,"x_max":0,"o":"m 490 525 b 640 424 556 506 606 472 b 692 260 675 377 692 322 b 606 58 692 176 663 109 b 393 -19 549 6 478 -19 b 181 58 308 -19 237 6 b 96 260 124 109 96 176 b 148 425 96 322 113 377 b 296 525 183 473 232 506 l 296 528 b 176 618 244 546 204 576 b 133 756 147 660 133 706 b 208 934 133 829 158 888 b 393 1003 257 980 319 1003 b 579 934 467 1003 529 980 b 654 756 629 888 654 829 b 611 619 654 706 640 661 b 490 528 582 577 542 546 l 490 525 m 183 754 b 244 608 183 697 203 648 b 393 547 284 567 334 547 b 544 608 453 547 503 568 b 604 754 584 649 604 698 b 544 901 604 813 584 862 b 393 958 503 939 453 958 b 243 901 333 958 283 939 b 183 754 203 863 183 814 m 147 264 b 215 93 147 195 170 138 b 393 25 261 48 320 25 b 571 93 466 25 525 48 b 639 264 616 138 639 195 b 569 435 639 333 616 391 b 393 503 522 480 463 503 b 217 435 323 503 264 480 b 147 264 171 391 147 333 "},"9":{"ha":786,"x_min":0,"x_max":0,"o":"m 576 483 l 574 486 b 489 428 552 462 524 443 b 381 407 454 414 418 407 b 176 491 299 407 231 435 b 94 704 122 547 94 618 b 178 919 94 791 122 863 b 394 1003 234 975 306 1003 b 610 919 482 1003 554 975 b 694 704 666 864 694 792 b 610 449 694 629 666 544 l 346 0 l 285 0 m 642 704 b 572 887 642 778 619 839 b 394 958 526 934 467 958 b 215 887 321 958 262 934 b 146 704 169 839 146 778 b 214 522 146 631 169 570 b 389 450 259 474 318 450 b 569 523 460 450 520 474 b 642 704 617 572 642 632 "},"\u0000":{"ha":694,"x_min":0,"x_max":0,"o":""},"\r":{"ha":0,"x_min":0,"x_max":0,"o":""}," ":{"ha":347,"x_min":0,"x_max":0,"o":""},"!":{"ha":406,"x_min":0,"x_max":0,"o":"m 229 269 l 176 269 l 176 983 l 229 983 m 249 39 b 235 6 249 26 244 15 b 203 -8 225 -4 215 -8 b 171 6 191 -8 180 -4 b 157 39 162 15 157 26 b 170 74 157 53 161 64 b 203 88 179 83 190 88 b 235 74 216 88 227 83 b 249 39 244 64 249 53 "},"\"":{"ha":561,"x_min":0,"x_max":0,"o":"m 157 983 l 204 983 l 204 664 l 157 664 m 357 983 l 404 983 l 404 664 l 357 664 "},"#":{"ha":767,"x_min":0,"x_max":0,"o":"m 193 322 l 43 322 l 43 364 l 199 364 l 233 622 l 81 622 l 81 664 l 240 664 l 281 983 l 325 983 l 283 664 l 506 664 l 547 983 l 592 983 l 550 664 l 696 664 l 696 622 l 544 622 l 510 364 l 658 364 l 658 322 l 504 322 l 463 0 l 418 0 l 460 322 l 238 322 l 196 0 l 151 0 m 244 364 l 465 364 l 500 622 l 278 622 "},"$":{"ha":786,"x_min":0,"x_max":0,"o":"m 357 957 b 207 893 298 951 248 930 b 146 747 166 856 146 807 b 202 610 146 688 165 642 b 357 531 240 577 291 551 m 400 25 b 564 86 465 28 519 48 b 631 244 608 124 631 177 b 569 383 631 303 610 349 b 400 467 528 416 471 444 m 357 478 b 163 576 272 505 207 538 b 96 746 118 615 96 672 b 169 923 96 819 120 878 b 357 1000 219 968 281 994 l 357 1100 l 400 1100 l 400 1001 b 663 892 514 1000 601 963 l 622 858 b 400 958 571 925 497 958 l 400 517 b 489 484 436 505 466 494 b 564 446 512 474 537 462 b 627 396 591 430 612 413 b 666 330 642 378 655 356 b 682 242 677 303 682 274 b 603 56 682 165 656 103 b 400 -18 550 9 482 -15 l 400 -117 l 357 -117 l 357 -18 b 75 114 239 -14 145 30 l 115 144 b 226 59 145 108 182 80 b 357 25 271 38 314 27 "},"%":{"ha":1144,"x_min":0,"x_max":0,"o":"m 518 768 b 453 606 518 704 496 650 b 293 540 409 562 356 540 b 133 606 230 540 177 562 b 67 768 89 650 67 704 b 133 929 67 831 89 885 b 293 996 177 974 230 996 b 452 929 355 996 408 974 b 518 768 496 885 518 831 m 472 768 b 419 898 472 819 455 862 b 293 951 384 934 342 951 b 167 898 244 951 202 934 b 114 768 131 862 114 819 b 166 638 114 716 131 673 b 293 585 201 602 243 585 b 419 638 342 585 384 602 b 472 768 455 673 472 716 m 1078 214 b 1012 53 1078 150 1056 96 b 851 -12 968 9 914 -12 b 692 53 788 -12 735 9 b 626 214 648 96 626 150 b 692 376 626 278 648 332 b 851 442 735 420 788 442 b 1012 376 914 442 968 420 b 1078 214 1056 332 1078 278 m 1031 214 b 978 344 1031 265 1013 308 b 851 397 943 379 900 397 b 725 344 802 397 760 379 b 672 214 690 308 672 265 b 724 83 672 162 690 119 b 851 31 759 48 801 31 b 978 83 900 31 943 48 b 1031 214 1013 119 1031 162 m 281 -39 l 243 -17 l 858 1024 l 896 1001 "},"&":{"ha":978,"x_min":0,"x_max":0,"o":"m 718 208 l 915 0 l 844 0 l 690 164 b 379 -22 608 40 504 -22 b 175 52 298 -22 230 3 b 93 251 120 102 93 168 b 153 420 93 319 113 375 b 329 546 194 465 252 507 b 232 675 284 595 251 638 b 203 790 213 712 203 750 b 266 949 203 856 224 909 b 426 1008 308 988 362 1008 b 580 951 488 1008 539 989 b 642 806 621 912 642 864 b 583 658 642 746 622 697 b 406 536 543 619 484 579 l 682 242 l 835 518 l 893 518 m 590 801 b 543 919 590 850 575 889 b 425 965 512 950 472 965 b 302 917 376 965 335 949 b 253 792 269 884 253 843 b 285 682 253 754 263 717 b 375 567 306 647 336 608 b 535 673 445 603 499 638 b 590 801 572 708 590 750 m 360 513 b 146 250 217 443 146 356 b 215 85 146 182 169 128 b 385 22 262 43 318 22 b 656 200 496 22 586 81 "},"'":{"ha":361,"x_min":0,"x_max":0,"o":"m 157 983 l 204 983 l 204 664 l 157 664 "},"(":{"ha":417,"x_min":0,"x_max":0,"o":"m 135 400 b 183 81 135 296 151 190 b 313 -194 216 -28 259 -119 l 271 -218 b 135 69 213 -136 168 -40 b 85 400 101 178 85 288 b 135 731 85 512 101 622 b 271 1018 168 840 213 936 l 313 994 b 183 719 259 919 216 828 b 135 400 151 610 135 504 "},")":{"ha":417,"x_min":0,"x_max":0,"o":"m 281 400 b 232 719 281 504 264 610 b 101 994 200 828 156 919 l 143 1018 b 280 731 200 936 246 840 b 331 400 314 622 331 512 b 280 69 331 288 314 178 b 143 -218 246 -40 200 -136 l 101 -194 b 232 81 156 -119 200 -28 b 281 400 264 190 281 296 "},"*":{"ha":617,"x_min":0,"x_max":0,"o":"m 329 758 l 546 826 l 561 786 l 342 719 l 479 531 l 444 506 l 308 697 l 172 506 l 138 531 l 275 719 l 56 786 l 71 826 l 288 758 l 288 983 l 329 983 "},"+":{"ha":925,"x_min":0,"x_max":0,"o":"m 488 444 l 796 444 l 796 400 l 488 400 l 488 83 l 442 83 l 442 400 l 129 400 l 129 444 l 442 444 l 442 761 l 488 761 "},",":{"ha":342,"x_min":0,"x_max":0,"o":"m 128 -193 l 88 -193 l 171 128 l 225 128 "},"-":{"ha":425,"x_min":0,"x_max":0,"o":"m 347 326 l 78 326 l 78 369 l 347 369 "},".":{"ha":342,"x_min":0,"x_max":0,"o":"m 217 40 b 203 6 217 26 212 15 b 171 -8 195 -4 184 -8 b 139 6 158 -8 147 -4 b 126 40 131 15 126 26 b 140 74 126 53 131 64 b 171 88 148 83 159 88 b 203 74 183 88 194 83 b 217 40 212 64 217 53 "},"/":{"ha":514,"x_min":0,"x_max":0,"o":"m 67 -22 l 24 -7 l 449 1011 l 492 996 "},":":{"ha":397,"x_min":0,"x_max":0,"o":"m 244 597 b 231 564 244 584 240 573 b 199 550 222 555 212 550 b 167 564 187 550 176 555 b 154 597 159 573 154 584 b 167 631 154 610 159 621 b 199 644 176 640 187 644 b 231 631 212 644 222 640 b 244 597 240 621 244 610 m 244 40 b 231 6 244 26 240 15 b 199 -8 222 -4 212 -8 b 167 6 186 -8 175 -4 b 154 40 158 15 154 26 b 167 74 154 53 159 64 b 199 88 176 83 187 88 b 231 74 211 88 221 83 b 244 40 240 64 244 53 "},";":{"ha":397,"x_min":0,"x_max":0,"o":"m 244 597 b 231 564 244 584 240 573 b 199 550 222 555 212 550 b 167 564 187 550 176 555 b 154 597 159 573 154 584 b 167 631 154 610 159 621 b 199 644 176 640 187 644 b 231 631 212 644 222 640 b 244 597 240 621 244 610 m 144 -193 l 103 -193 l 186 128 l 240 128 "},"<":{"ha":925,"x_min":0,"x_max":0,"o":"m 796 714 l 176 421 l 796 128 l 796 82 l 129 400 l 129 442 l 796 760 "},"=":{"ha":925,"x_min":0,"x_max":0,"o":"m 796 558 l 796 514 l 129 514 l 129 558 m 796 329 l 796 286 l 129 286 l 129 329 "},">":{"ha":925,"x_min":0,"x_max":0,"o":"m 129 760 l 796 442 l 796 400 l 129 82 l 129 128 l 749 421 l 129 714 "},"?":{"ha":660,"x_min":0,"x_max":0,"o":"m 357 275 l 307 275 l 307 351 b 333 460 307 391 316 428 b 431 569 350 493 382 530 b 517 663 471 604 500 635 b 543 765 534 690 543 725 b 484 907 543 825 523 873 b 336 958 445 941 395 958 b 192 907 279 958 231 941 b 121 771 154 873 130 827 l 71 779 b 163 946 84 850 114 906 b 339 1006 211 986 269 1006 b 523 942 413 1006 474 984 b 596 768 572 900 596 842 b 576 668 596 731 589 698 b 534 600 562 638 548 616 b 469 542 520 584 498 565 b 378 444 423 503 393 470 b 357 336 364 419 357 382 m 382 39 b 369 6 382 26 378 15 b 338 -8 360 -4 350 -8 b 305 6 325 -8 314 -4 b 292 39 296 15 292 26 b 305 74 292 53 296 64 b 338 88 314 83 325 88 b 369 74 350 88 360 83 b 382 39 378 64 382 53 "},"@":{"ha":1111,"x_min":0,"x_max":0,"o":"m 592 721 b 431 622 526 721 472 688 b 369 413 390 556 369 487 b 401 309 369 372 380 337 b 496 267 422 281 453 267 b 617 326 541 267 581 287 b 692 456 652 366 677 409 b 714 581 706 502 714 544 b 683 681 714 621 704 655 b 592 721 663 708 632 721 m 1003 158 b 583 -26 893 35 753 -26 b 206 122 429 -26 303 23 b 60 492 108 220 60 344 b 210 860 60 637 110 760 b 578 1010 311 960 433 1010 b 922 888 716 1010 831 969 b 1060 572 1014 807 1060 702 b 986 319 1060 468 1035 383 b 790 222 937 254 872 222 b 706 249 755 222 727 231 b 674 322 684 266 674 291 b 675 339 674 330 674 335 l 671 339 b 599 258 655 308 631 281 b 488 222 567 234 530 222 b 361 278 433 222 391 241 b 317 415 331 315 317 361 b 349 578 317 471 328 525 b 447 712 371 631 404 675 b 593 767 491 748 539 767 b 690 736 633 767 665 756 b 738 653 715 716 731 688 l 743 653 l 767 743 l 813 743 l 731 435 b 717 343 721 401 717 371 b 797 267 717 292 744 267 b 956 354 866 267 919 296 b 1011 569 993 413 1011 484 b 888 854 1011 686 970 781 b 578 964 806 927 703 964 b 246 824 444 964 334 917 b 114 490 158 731 114 620 b 246 153 114 355 158 243 b 586 18 334 63 447 18 b 972 190 740 18 869 75 "},"A":{"ha":940,"x_min":0,"x_max":0,"o":"m 79 0 l 22 0 l 447 983 l 504 983 l 918 0 l 861 0 l 747 275 l 194 275 m 214 321 l 728 321 l 474 936 "},"B":{"ha":860,"x_min":0,"x_max":0,"o":"m 142 983 l 418 983 b 530 972 458 983 495 979 b 628 934 565 964 597 951 b 700 860 658 917 682 892 b 726 746 718 828 726 790 b 672 597 726 685 708 635 b 535 522 636 559 590 534 l 535 519 b 700 444 597 513 652 488 b 772 265 748 401 772 341 b 676 65 772 175 740 108 b 440 0 613 22 534 0 l 142 0 m 194 539 l 419 539 b 598 590 488 539 547 556 b 674 740 648 623 674 674 b 599 891 674 810 649 860 b 406 938 549 922 484 938 l 194 938 m 194 46 l 429 46 b 640 100 516 46 586 64 b 719 264 693 136 719 191 b 639 436 719 340 693 397 b 446 494 585 475 521 494 l 194 494 "},"C":{"ha":1004,"x_min":0,"x_max":0,"o":"m 954 132 b 802 16 916 83 866 44 b 599 -26 739 -12 671 -26 b 235 120 451 -26 330 22 b 93 492 141 218 93 342 b 236 863 93 642 141 766 b 599 1010 331 961 452 1010 b 786 974 664 1010 727 998 b 931 875 845 951 894 918 l 893 840 b 764 930 861 878 818 908 b 599 963 710 952 655 963 b 273 826 465 963 357 917 b 147 492 189 736 147 624 b 272 157 147 359 189 248 b 599 21 356 66 464 21 b 777 57 661 21 720 33 b 915 163 834 81 880 116 "},"D":{"ha":1064,"x_min":0,"x_max":0,"o":"m 142 983 l 436 983 b 819 858 590 983 717 941 b 971 492 920 774 971 652 b 928 274 971 410 956 337 b 810 119 899 210 860 158 b 641 30 761 79 704 50 b 436 0 578 10 509 0 l 142 0 m 194 47 l 422 47 b 781 164 571 47 691 86 b 917 492 872 242 917 351 b 781 819 917 632 872 742 b 422 936 691 897 571 936 l 194 936 "},"E":{"ha":821,"x_min":0,"x_max":0,"o":"m 193 47 l 746 47 l 746 0 l 142 0 l 142 983 l 726 983 l 726 936 l 193 936 l 193 533 l 693 533 l 693 488 l 193 488 "},"F":{"ha":779,"x_min":0,"x_max":0,"o":"m 194 0 l 142 0 l 142 983 l 713 983 l 713 936 l 194 936 l 194 532 l 676 532 l 676 486 l 194 486 "},"G":{"ha":1097,"x_min":0,"x_max":0,"o":"m 907 854 b 772 935 872 888 827 915 b 606 964 718 954 662 964 b 274 828 469 964 359 919 b 147 493 190 737 147 625 b 274 156 147 360 189 247 b 613 19 358 65 471 19 b 915 88 725 19 826 42 l 915 450 l 668 450 l 668 494 l 967 494 l 967 61 b 610 -26 867 3 748 -26 b 237 121 457 -26 333 23 b 93 493 141 219 93 343 b 237 864 93 643 141 767 b 606 1010 333 961 456 1010 b 942 890 740 1010 852 970 "},"H":{"ha":1011,"x_min":0,"x_max":0,"o":"m 142 983 l 194 983 l 194 533 l 817 533 l 817 983 l 868 983 l 868 0 l 817 0 l 817 486 l 194 486 l 194 0 l 142 0 "},"I":{"ha":336,"x_min":0,"x_max":0,"o":"m 194 0 l 142 0 l 142 983 l 194 983 "},"J":{"ha":672,"x_min":0,"x_max":0,"o":"m 86 160 b 160 59 101 118 125 84 b 278 21 194 34 233 21 b 435 91 349 21 401 44 b 485 278 468 138 485 200 l 485 983 l 536 983 l 536 272 b 473 58 536 184 515 113 b 282 -25 431 3 367 -25 b 126 22 222 -25 170 -9 b 39 143 83 54 54 94 "},"K":{"ha":811,"x_min":0,"x_max":0,"o":"m 194 535 l 682 983 l 757 983 l 258 533 l 782 0 l 707 0 l 194 528 l 194 0 l 142 0 l 142 983 l 194 983 "},"L":{"ha":697,"x_min":0,"x_max":0,"o":"m 194 47 l 674 47 l 674 0 l 142 0 l 142 983 l 194 983 "},"M":{"ha":1250,"x_min":0,"x_max":0,"o":"m 142 983 l 226 983 l 625 83 l 1024 983 l 1108 983 l 1108 0 l 1056 0 l 1056 919 l 1051 919 l 640 0 l 607 0 l 197 919 l 194 919 l 194 0 l 142 0 "},"N":{"ha":1074,"x_min":0,"x_max":0,"o":"m 876 72 l 879 72 l 879 983 l 932 983 l 932 0 l 863 0 l 197 914 l 194 914 l 194 0 l 142 0 l 142 983 l 211 983 "},"O":{"ha":1201,"x_min":0,"x_max":0,"o":"m 1108 492 b 964 120 1108 342 1060 218 b 601 -26 868 22 747 -26 b 238 120 455 -26 334 22 b 93 492 141 218 93 342 b 237 863 93 642 141 766 b 601 1010 333 961 454 1010 b 965 863 748 1010 869 961 b 1108 492 1060 766 1108 642 m 1054 492 b 928 827 1054 624 1012 736 b 601 964 844 918 735 964 b 274 827 468 964 359 918 b 147 492 190 736 147 624 b 274 157 147 359 189 248 b 601 21 358 66 467 21 b 928 157 736 21 845 66 b 1054 492 1012 248 1054 359 "},"P":{"ha":797,"x_min":0,"x_max":0,"o":"m 142 983 l 413 983 b 635 923 501 983 576 963 b 725 733 695 883 725 819 b 640 543 725 652 697 588 b 424 475 584 498 512 475 l 194 475 l 194 0 l 142 0 m 194 519 l 424 519 b 602 573 496 519 555 537 b 672 733 649 609 672 662 b 600 889 672 804 648 856 b 418 939 552 922 491 939 l 194 939 "},"Q":{"ha":1210,"x_min":0,"x_max":0,"o":"m 147 503 b 274 178 147 375 189 267 b 597 46 358 90 466 46 b 921 182 730 46 838 91 b 1046 503 1004 273 1046 380 b 919 829 1046 631 1004 739 b 596 964 835 919 727 964 b 273 830 464 964 357 919 b 147 503 189 741 147 631 m 1156 0 l 594 0 b 238 141 453 0 334 47 b 93 503 141 235 93 356 b 236 867 93 650 141 771 b 596 1010 331 962 451 1010 b 956 865 740 1010 860 962 b 1099 503 1051 769 1099 648 b 1012 219 1099 400 1070 306 b 794 50 954 133 881 77 l 794 47 l 1156 47 "},"R":{"ha":828,"x_min":0,"x_max":0,"o":"m 194 0 l 142 0 l 142 983 l 419 983 b 647 926 512 983 588 964 b 736 735 706 888 736 825 b 656 554 736 655 709 595 b 461 489 602 513 537 492 l 756 0 l 694 0 l 406 485 l 194 485 m 194 531 l 414 531 b 615 583 501 531 568 548 b 685 735 661 619 685 669 b 404 939 685 871 591 939 l 194 939 "},"S":{"ha":789,"x_min":0,"x_max":0,"o":"m 636 864 b 415 964 586 931 513 964 b 238 908 348 964 289 945 b 163 750 188 870 162 818 b 192 644 163 709 172 674 b 268 574 211 615 237 591 b 372 528 300 557 334 542 b 485 488 409 515 447 501 b 589 438 523 474 557 457 b 665 360 620 419 646 393 b 694 243 685 328 694 288 b 606 45 694 159 665 93 b 389 -26 546 -3 474 -26 b 94 100 263 -26 165 16 l 129 135 b 389 21 202 59 289 21 b 567 80 458 21 518 41 b 642 240 617 119 642 173 b 602 359 642 288 628 327 b 504 430 576 391 543 415 b 376 479 465 445 423 462 b 249 532 330 497 288 514 b 151 614 210 550 177 577 b 111 749 124 651 111 696 b 201 940 111 830 141 894 b 417 1010 260 987 332 1010 b 566 980 471 1010 521 1000 b 675 897 611 960 647 932 "},"T":{"ha":763,"x_min":0,"x_max":0,"o":"m 407 0 l 356 0 l 356 936 l 22 936 l 22 983 l 740 983 l 740 936 l 407 936 "},"U":{"ha":1007,"x_min":0,"x_max":0,"o":"m 504 -26 b 326 6 436 -26 376 -16 b 210 97 276 28 238 58 b 150 222 183 135 163 177 b 131 371 137 268 131 317 l 131 983 l 183 983 l 183 378 b 191 281 183 344 186 311 b 219 185 196 250 206 218 b 275 101 233 153 252 124 b 368 42 298 77 329 58 b 504 19 407 27 452 19 b 664 52 566 19 619 30 b 764 140 708 74 742 103 b 811 253 786 177 802 215 b 825 378 820 292 825 333 l 825 983 l 876 983 l 876 371 b 857 222 876 317 870 268 b 797 97 844 177 824 135 b 681 6 769 58 731 28 b 504 -26 631 -16 572 -26 "},"V":{"ha":849,"x_min":0,"x_max":0,"o":"m 421 60 l 424 60 l 775 983 l 831 983 l 456 0 l 390 0 l 18 983 l 75 983 "},"W":{"ha":1335,"x_min":0,"x_max":0,"o":"m 358 61 l 363 61 l 631 983 l 700 983 l 974 61 l 976 61 l 1247 983 l 1301 983 l 1008 0 l 940 0 l 667 921 l 664 921 l 394 0 l 326 0 l 33 983 l 88 983 "},"X":{"ha":844,"x_min":0,"x_max":0,"o":"m 424 554 l 710 983 l 771 983 l 454 515 l 806 0 l 742 0 l 422 476 l 103 0 l 39 0 l 390 515 l 72 983 l 135 983 "},"Y":{"ha":775,"x_min":0,"x_max":0,"o":"m 414 0 l 361 0 l 361 428 l 14 983 l 78 983 l 389 475 l 700 983 l 760 983 l 414 428 "},"Z":{"ha":815,"x_min":0,"x_max":0,"o":"m 747 929 l 122 47 l 763 47 l 763 0 l 65 0 l 65 51 l 693 936 l 82 936 l 82 983 l 747 983 "},"[":{"ha":417,"x_min":0,"x_max":0,"o":"m 306 975 l 151 975 l 151 -175 l 306 -175 l 306 -217 l 101 -217 l 101 1017 l 306 1017 "},"\\":{"ha":514,"x_min":0,"x_max":0,"o":"m 24 996 l 67 1011 l 492 -7 l 449 -22 "},"]":{"ha":417,"x_min":0,"x_max":0,"o":"m 111 -175 l 265 -175 l 265 975 l 111 975 l 111 1017 l 315 1017 l 315 -217 l 111 -217 "},"^":{"ha":925,"x_min":0,"x_max":0,"o":"m 440 983 l 485 983 l 797 350 l 751 350 l 463 940 l 174 350 l 128 350 "},"_":{"ha":694,"x_min":0,"x_max":0,"o":"m 0 -122 l 694 -122 l 694 -162 l 0 -162 "},"`":{"ha":333,"x_min":0,"x_max":0,"o":"m 15 983 l 81 983 l 222 783 l 178 783 "},"a":{"ha":721,"x_min":0,"x_max":0,"o":"m 304 -18 b 153 30 247 -18 196 -2 b 88 169 109 62 88 108 b 454 382 88 311 210 382 l 546 382 l 546 424 b 494 569 546 488 529 537 b 350 618 460 602 412 618 b 156 542 276 618 211 593 l 128 578 b 353 661 189 633 264 661 b 530 602 428 661 487 641 b 594 426 573 563 594 504 l 594 144 b 606 0 594 85 598 37 l 558 0 b 549 138 552 41 549 87 l 544 138 b 449 21 524 86 492 47 b 304 -18 406 -5 358 -18 m 313 24 b 488 105 391 24 450 51 b 546 304 527 159 546 225 l 546 342 l 468 342 b 138 171 248 342 138 285 b 190 60 138 121 155 84 b 313 24 225 36 266 24 "},"b":{"ha":874,"x_min":0,"x_max":0,"o":"m 188 153 l 188 0 l 138 0 l 138 1050 l 188 1050 l 188 488 l 192 488 b 306 616 219 543 257 586 b 467 661 356 646 409 661 b 700 565 562 661 640 629 b 790 321 760 500 790 419 b 699 78 790 224 760 143 b 467 -18 639 14 561 -18 b 303 27 408 -18 354 -3 b 192 153 253 57 216 99 m 739 321 b 663 531 739 403 714 473 b 463 618 613 589 546 618 b 265 531 384 618 318 589 b 186 321 213 473 186 403 b 265 111 186 238 213 169 b 463 25 318 54 384 25 b 663 110 546 25 613 53 b 739 321 714 167 739 238 "},"c":{"ha":675,"x_min":0,"x_max":0,"o":"m 596 538 b 415 618 550 591 489 618 b 213 532 332 618 265 589 b 136 321 162 475 136 404 b 213 111 136 238 162 168 b 415 26 265 55 332 26 b 606 101 489 26 553 51 l 636 71 b 415 -18 580 12 506 -18 b 176 77 318 -18 238 14 b 83 321 114 141 83 222 b 176 565 83 419 114 500 b 415 661 238 629 318 661 b 631 569 505 661 577 631 "},"d":{"ha":874,"x_min":0,"x_max":0,"o":"m 683 153 b 569 26 656 98 618 56 b 408 -18 519 -3 466 -18 b 174 78 313 -18 235 14 b 83 321 114 143 83 224 b 175 564 83 418 114 499 b 408 661 236 629 314 661 b 569 616 466 661 519 646 b 683 488 618 586 656 543 l 686 488 l 686 1050 l 736 1050 l 736 0 l 686 0 l 686 153 l 683 153 m 136 321 b 211 110 136 238 161 167 b 411 25 261 53 328 25 b 608 111 490 25 556 54 b 688 321 661 169 688 238 b 608 531 688 403 661 473 b 411 618 556 589 490 618 b 212 532 329 618 262 589 b 136 321 161 475 136 404 "},"e":{"ha":779,"x_min":0,"x_max":0,"o":"m 646 360 b 574 547 644 437 620 499 b 394 618 528 594 469 618 b 253 573 341 618 294 603 b 165 471 212 543 183 509 b 136 360 147 433 137 396 m 407 -18 b 174 79 313 -18 235 14 b 83 326 114 144 83 226 b 173 566 83 423 113 503 b 394 661 233 629 306 661 b 617 569 490 661 564 631 b 696 349 669 508 696 435 b 695 333 696 346 696 341 b 694 318 695 326 694 321 l 135 318 b 209 113 136 239 160 171 b 407 25 258 54 324 25 b 636 139 498 25 574 63 l 671 110 b 407 -18 604 25 516 -18 "},"f":{"ha":397,"x_min":0,"x_max":0,"o":"m 381 600 l 214 600 l 214 0 l 164 0 l 164 600 l 28 600 l 28 642 l 163 642 l 163 856 b 214 1015 163 928 180 981 b 346 1067 248 1050 292 1067 b 414 1058 372 1067 394 1064 l 406 1015 b 346 1024 386 1021 366 1024 b 244 976 299 1024 265 1008 b 214 853 224 944 214 903 l 214 642 l 381 642 "},"g":{"ha":872,"x_min":0,"x_max":0,"o":"m 151 -186 b 411 -299 224 -261 310 -299 b 622 -208 509 -299 580 -268 b 686 29 665 -147 686 -68 l 686 158 l 683 158 b 572 32 659 105 622 63 b 408 -14 521 1 467 -14 b 174 81 313 -14 235 18 b 83 322 114 145 83 225 b 175 564 83 419 114 499 b 408 661 236 629 314 661 b 569 615 466 661 519 646 b 683 488 618 585 656 542 l 686 488 l 686 642 l 736 642 l 736 26 b 720 -110 736 -23 731 -68 b 669 -226 709 -151 692 -190 b 567 -312 645 -262 611 -291 b 410 -343 522 -333 470 -343 b 118 -219 290 -343 193 -302 m 136 322 b 212 115 136 241 161 172 b 411 29 262 58 329 29 b 609 115 491 29 557 58 b 688 324 661 172 688 241 b 608 532 688 405 661 475 b 411 618 556 589 490 618 b 212 532 329 618 262 589 b 136 322 161 475 136 405 "},"h":{"ha":796,"x_min":0,"x_max":0,"o":"m 190 493 b 285 616 209 545 240 586 b 432 661 329 646 378 661 b 610 585 513 661 573 636 b 667 390 648 534 667 469 l 667 0 l 617 0 l 617 376 b 608 463 617 408 614 437 b 578 540 602 490 592 515 b 519 597 565 564 545 583 b 424 618 492 611 461 618 b 255 536 356 618 300 591 b 188 304 210 481 188 404 l 188 0 l 138 0 l 138 1050 l 188 1050 l 188 493 "},"i":{"ha":324,"x_min":0,"x_max":0,"o":"m 188 0 l 138 0 l 138 642 l 188 642 m 204 911 b 192 878 204 898 200 887 b 163 865 183 870 174 865 b 132 878 150 865 140 870 b 119 911 124 887 119 898 b 133 942 119 923 124 934 b 163 956 141 951 151 956 b 192 942 174 956 183 951 b 204 911 200 934 204 923 "},"j":{"ha":325,"x_min":0,"x_max":0,"o":"m -19 -286 b 22 -292 -1 -290 13 -292 b 75 -282 43 -292 60 -288 b 109 -259 90 -275 101 -268 b 128 -222 117 -250 123 -238 b 136 -179 132 -206 135 -192 b 138 -131 137 -166 138 -150 l 138 642 l 188 642 l 188 -133 b 152 -284 188 -200 176 -250 b 24 -335 128 -318 86 -335 b -28 -328 6 -335 -11 -332 m 206 911 b 192 878 206 898 201 887 b 163 865 184 870 174 865 b 132 878 150 865 140 870 b 119 911 124 887 119 898 b 133 942 119 923 124 934 b 163 956 141 951 151 956 b 192 942 174 956 184 951 b 206 911 201 934 206 923 "},"k":{"ha":646,"x_min":0,"x_max":0,"o":"m 188 349 l 190 349 l 511 642 l 583 642 l 249 346 l 619 0 l 546 0 l 190 339 l 188 339 l 188 0 l 138 0 l 138 1050 l 188 1050 "},"l":{"ha":325,"x_min":0,"x_max":0,"o":"m 188 0 l 138 0 l 138 1050 l 188 1050 "},"m":{"ha":1232,"x_min":0,"x_max":0,"o":"m 139 486 b 133 642 139 556 137 608 l 182 642 b 188 492 186 595 188 545 l 190 492 b 281 615 209 544 239 585 b 418 661 322 646 368 661 b 632 483 527 661 599 602 b 724 615 651 540 682 584 b 871 661 766 646 815 661 b 1047 583 951 661 1010 635 b 1103 382 1084 531 1103 464 l 1103 0 l 1053 0 l 1053 369 b 1009 547 1053 440 1038 499 b 867 618 980 594 932 618 b 705 538 800 618 746 591 b 643 328 664 484 643 414 l 643 0 l 592 0 l 592 382 b 547 557 592 458 577 516 b 414 618 516 598 472 618 b 255 537 351 618 298 591 b 190 313 212 483 190 408 l 190 0 l 139 0 "},"n":{"ha":799,"x_min":0,"x_max":0,"o":"m 182 642 b 188 492 186 595 188 545 l 190 492 b 285 615 209 544 240 585 b 431 661 329 646 378 661 b 611 584 512 661 572 635 b 669 390 650 533 669 468 l 669 0 l 619 0 l 619 376 b 575 549 619 445 605 502 b 426 618 545 595 496 618 b 258 539 360 618 304 592 b 190 324 213 486 190 414 l 190 0 l 139 0 l 139 486 b 133 642 139 556 137 608 "},"o":{"ha":843,"x_min":0,"x_max":0,"o":"m 760 322 b 665 78 760 223 728 142 b 421 -18 601 14 520 -18 b 178 78 323 -18 242 14 b 83 322 115 142 83 223 b 178 566 83 421 115 503 b 421 661 242 629 323 661 b 665 566 520 661 601 629 b 760 322 728 503 760 421 m 707 322 b 628 533 707 406 681 477 b 421 618 576 590 507 618 b 214 533 335 618 266 590 b 136 322 162 477 136 406 b 214 110 136 238 162 167 b 421 25 266 53 335 25 b 628 110 507 25 576 53 b 707 322 681 167 707 238 "},"p":{"ha":874,"x_min":0,"x_max":0,"o":"m 188 -333 l 136 -333 l 136 642 l 188 642 l 188 488 l 192 488 b 306 616 219 543 256 586 b 465 661 355 646 408 661 b 700 565 562 661 640 629 b 790 321 760 500 790 419 b 699 78 790 224 760 143 b 465 -18 639 14 561 -18 b 303 27 407 -18 353 -3 b 192 153 253 57 216 99 l 188 153 m 738 321 b 662 531 738 403 712 473 b 463 618 611 589 545 618 b 265 531 384 618 318 589 b 185 321 211 473 185 403 b 265 111 185 238 211 169 b 463 25 318 54 384 25 b 662 110 545 25 611 53 b 738 321 712 167 738 238 "},"q":{"ha":874,"x_min":0,"x_max":0,"o":"m 682 153 b 571 27 658 99 621 57 b 408 -18 521 -3 467 -18 b 174 78 313 -18 235 14 b 83 321 114 143 83 224 b 174 565 83 419 113 500 b 408 661 234 629 312 661 b 568 616 466 661 519 646 b 682 488 617 586 655 543 l 686 488 l 686 642 l 736 642 l 736 -333 l 686 -333 l 686 153 m 136 321 b 211 110 136 238 161 167 b 411 25 261 53 328 25 b 608 111 490 25 556 54 b 688 321 661 169 688 238 b 608 531 688 403 661 473 b 411 618 556 589 490 618 b 212 532 329 618 262 589 b 136 321 161 475 136 404 "},"r":{"ha":458,"x_min":0,"x_max":0,"o":"m 139 486 b 133 642 139 556 137 608 l 182 642 b 188 492 186 595 188 545 l 190 492 b 276 617 208 546 236 588 b 407 661 315 647 359 661 b 444 658 424 661 436 660 l 440 613 b 407 615 429 614 418 615 b 247 531 338 615 285 587 b 190 317 209 474 190 403 l 190 0 l 139 0 l 139 486 "},"s":{"ha":589,"x_min":0,"x_max":0,"o":"m 464 533 b 297 618 426 590 370 618 b 189 586 256 618 220 607 b 142 489 157 565 142 532 b 181 404 142 452 155 424 b 314 353 206 385 251 368 b 465 289 380 337 430 316 b 518 172 500 262 518 223 b 454 33 518 113 497 67 b 299 -17 412 0 360 -17 b 64 96 195 -17 117 21 l 104 125 b 299 26 150 59 215 26 b 417 63 344 26 384 39 b 468 168 451 88 468 123 b 455 221 468 188 464 205 b 427 258 446 237 437 249 b 378 285 417 268 401 277 b 326 303 355 294 337 300 b 265 319 314 307 294 312 b 135 381 208 334 165 355 b 92 489 106 408 92 444 b 153 616 92 544 112 586 b 299 661 194 646 242 661 b 501 561 390 661 458 628 "},"t":{"ha":428,"x_min":0,"x_max":0,"o":"m 394 600 l 208 600 l 208 150 b 319 31 208 70 245 31 b 393 46 346 31 371 36 l 397 3 b 308 -14 369 -8 339 -14 b 199 26 262 -14 225 0 b 158 142 172 53 158 92 l 158 600 l 21 600 l 21 642 l 157 642 l 157 829 l 208 829 l 208 642 l 394 642 "},"u":{"ha":799,"x_min":0,"x_max":0,"o":"m 614 0 b 608 150 610 48 608 98 l 606 150 b 510 27 587 98 555 57 b 363 -18 466 -3 416 -18 b 184 58 281 -18 222 7 b 128 253 147 109 128 174 l 128 642 l 178 642 l 178 267 b 222 94 178 198 192 141 b 369 24 251 47 300 24 b 539 104 437 24 494 50 b 607 328 584 158 607 232 l 607 642 l 657 642 l 657 156 b 664 0 657 95 659 44 "},"v":{"ha":626,"x_min":0,"x_max":0,"o":"m 346 0 l 286 0 l 31 642 l 86 642 l 315 51 l 318 51 l 542 642 l 596 642 "},"w":{"ha":990,"x_min":0,"x_max":0,"o":"m 97 642 l 267 58 l 269 58 l 465 642 l 524 642 l 721 58 l 724 58 l 893 642 l 946 642 l 753 0 l 693 0 l 494 581 l 492 581 l 296 0 l 236 0 l 44 642 "},"x":{"ha":642,"x_min":0,"x_max":0,"o":"m 288 338 l 61 642 l 125 642 l 319 372 l 514 642 l 576 642 l 350 339 l 608 0 l 542 0 l 318 303 l 96 0 l 33 0 "},"y":{"ha":621,"x_min":0,"x_max":0,"o":"m 101 -335 b 36 -326 76 -335 55 -332 l 44 -281 b 101 -290 62 -287 81 -290 b 181 -258 135 -290 161 -279 b 232 -169 201 -236 218 -206 l 290 -12 l 31 642 l 86 642 l 317 43 l 536 642 l 590 642 l 271 -197 b 101 -335 236 -289 179 -335 "},"z":{"ha":610,"x_min":0,"x_max":0,"o":"m 532 600 l 121 43 l 547 43 l 547 0 l 60 0 l 60 40 l 475 600 l 82 600 l 82 642 l 532 642 "},"{":{"ha":417,"x_min":0,"x_max":0,"o":"m 0 421 b 108 579 72 421 108 474 l 108 843 b 256 1017 108 959 157 1017 l 328 1017 l 328 975 l 263 975 b 157 838 192 975 157 929 l 157 574 b 127 449 157 518 147 477 b 54 401 107 422 83 406 l 54 399 b 127 351 83 394 107 378 b 157 226 147 323 157 282 l 157 -37 b 263 -175 157 -129 192 -175 l 328 -175 l 328 -217 l 256 -217 b 108 -43 157 -217 108 -159 l 108 221 b 0 379 108 326 72 379 "},"|":{"ha":308,"x_min":0,"x_max":0,"o":"m 178 1042 l 178 -347 l 131 -347 l 131 1042 "},"}":{"ha":417,"x_min":0,"x_max":0,"o":"m 417 379 b 308 221 344 379 308 326 l 308 -43 b 161 -217 308 -159 259 -217 l 89 -217 l 89 -175 l 154 -175 b 260 -37 225 -175 260 -129 l 260 226 b 290 351 260 282 270 323 b 363 399 309 378 334 394 l 363 401 b 290 449 334 406 309 422 b 260 574 270 477 260 518 l 260 838 b 154 975 260 929 225 975 l 89 975 l 89 1017 l 161 1017 b 308 843 259 1017 308 959 l 308 579 b 417 421 308 474 344 421 "},"~":{"ha":925,"x_min":0,"x_max":0,"o":"m 800 468 b 615 342 746 384 685 342 b 471 390 569 342 521 358 b 382 442 432 416 402 434 b 315 456 362 451 339 456 b 161 342 254 456 203 418 l 128 372 b 313 501 181 458 242 501 b 456 453 361 501 408 485 b 614 388 519 409 571 388 b 767 500 669 388 719 425 "}," ":{"ha":347,"x_min":0,"x_max":0,"o":""},"¡":{"ha":406,"x_min":0,"x_max":0,"o":"m 229 -311 l 176 -311 l 176 403 l 229 403 m 249 633 b 235 599 249 619 244 608 b 203 585 227 589 216 585 b 170 599 190 585 179 589 b 157 633 161 608 157 619 b 171 667 157 646 162 657 b 203 681 180 676 191 681 b 235 667 215 681 225 676 b 249 633 244 657 249 646 "},"¢":{"ha":786,"x_min":0,"x_max":0,"o":"m 417 615 b 238 521 343 608 283 576 b 171 321 193 465 171 399 b 238 121 171 243 193 176 b 417 28 283 65 343 34 m 458 26 b 632 103 531 29 588 55 l 669 72 b 458 -17 616 15 545 -15 l 458 -100 l 417 -100 l 417 -17 b 201 87 329 -10 257 24 b 118 321 146 149 118 227 b 201 554 118 413 146 491 b 417 658 256 617 328 652 l 417 750 l 458 750 l 458 660 b 668 567 544 657 613 626 l 628 535 b 458 615 583 587 527 613 "},"£":{"ha":786,"x_min":0,"x_max":0,"o":"m 540 489 l 306 489 l 306 44 l 664 44 l 664 0 l 106 0 l 106 44 l 254 44 l 254 489 l 118 489 l 118 533 l 254 533 l 254 704 b 320 925 254 796 276 869 b 518 1008 364 981 430 1008 b 699 942 591 1008 651 986 l 665 904 b 517 963 625 943 575 963 b 356 888 443 963 389 938 b 306 699 322 839 306 775 l 306 533 l 540 533 "},"€":{"ha":786,"x_min":0,"x_max":0,"o":"m 707 919 b 522 964 655 949 594 964 b 301 876 435 964 361 934 b 178 628 240 817 199 734 l 632 628 l 618 586 l 172 586 b 165 483 168 556 165 521 b 169 397 165 450 167 421 l 561 397 l 547 356 l 174 356 b 292 111 189 254 229 172 b 518 19 356 50 431 19 b 721 81 599 19 666 40 l 743 39 b 508 -26 684 -5 606 -26 b 249 83 405 -26 318 10 b 121 356 180 155 138 246 l 25 356 l 42 397 l 115 397 b 111 483 113 419 111 448 b 117 586 111 527 113 561 l 28 586 l 42 628 l 124 628 b 267 910 148 750 196 844 b 525 1010 339 977 425 1010 b 726 965 605 1010 672 995 l 707 919 "},"¥":{"ha":786,"x_min":0,"x_max":0,"o":"m 368 310 l 368 481 l 115 481 l 115 522 l 351 522 l 29 983 l 93 983 l 394 538 l 696 983 l 757 983 l 438 522 l 671 522 l 671 481 l 418 481 l 418 310 l 671 310 l 671 268 l 418 268 l 418 0 l 368 0 l 368 268 l 115 268 l 115 310 "},"Š":{"ha":789,"x_min":0,"x_max":0,"o":"m 636 864 b 415 964 586 931 513 964 b 238 908 348 964 289 945 b 163 750 188 870 162 818 b 192 644 163 709 172 674 b 268 574 211 615 237 591 b 372 528 300 557 334 542 b 485 488 409 515 447 501 b 589 438 523 474 557 457 b 665 360 620 419 646 393 b 694 243 685 328 694 288 b 606 45 694 159 665 93 b 389 -26 546 -3 474 -26 b 94 100 263 -26 165 16 l 129 135 b 389 21 202 59 289 21 b 567 80 458 21 518 41 b 642 240 617 119 642 173 b 602 359 642 288 628 327 b 504 430 576 391 543 415 b 376 479 465 445 423 462 b 249 532 330 497 288 514 b 151 614 210 550 177 577 b 111 749 124 651 111 696 b 201 940 111 830 141 894 b 417 1010 260 987 332 1010 b 566 980 471 1010 521 1000 b 675 897 611 960 647 932 m 440 1061 l 379 1061 l 233 1261 l 283 1261 l 410 1088 l 536 1261 l 586 1261 "},"§":{"ha":786,"x_min":0,"x_max":0,"o":"m 589 882 b 414 967 556 938 497 967 b 281 924 362 967 318 952 b 225 803 244 895 225 855 b 237 738 225 778 229 756 b 278 690 245 720 259 704 b 328 660 298 676 315 666 b 392 631 341 653 362 644 l 460 601 b 599 516 523 575 569 546 b 644 399 629 486 644 447 b 596 272 644 347 628 304 b 475 207 563 239 523 217 b 610 28 565 165 610 106 b 539 -130 610 -40 586 -92 b 363 -186 492 -167 433 -186 b 118 -71 255 -186 174 -148 l 163 -42 b 364 -140 206 -107 273 -140 b 501 -99 418 -140 463 -126 b 558 24 539 -71 558 -30 b 517 122 558 64 544 97 b 396 192 489 147 449 170 l 307 232 b 175 313 245 260 201 287 b 138 432 149 340 137 379 b 188 556 138 482 154 523 b 307 621 221 589 261 611 b 208 692 263 643 229 667 b 175 801 186 717 175 753 b 244 955 175 867 198 918 b 417 1010 291 991 348 1010 b 631 910 519 1010 590 976 m 356 593 b 238 544 310 588 271 571 b 188 431 204 518 188 480 b 199 369 188 407 191 387 b 240 323 207 352 221 336 b 290 292 260 309 276 299 b 357 263 304 285 326 275 l 428 233 b 544 281 473 238 512 254 b 593 392 577 307 593 344 b 549 495 593 436 578 471 b 421 567 520 520 477 544 "},"š":{"ha":589,"x_min":0,"x_max":0,"o":"m 464 533 b 297 618 426 590 370 618 b 189 586 256 618 220 607 b 142 489 157 565 142 532 b 181 404 142 452 155 424 b 314 353 206 385 251 368 b 465 289 380 337 430 316 b 518 172 500 262 518 223 b 454 33 518 113 497 67 b 299 -17 412 0 360 -17 b 64 96 195 -17 117 21 l 104 125 b 299 26 150 59 215 26 b 417 63 344 26 384 39 b 468 168 451 88 468 123 b 455 221 468 188 464 205 b 427 258 446 237 437 249 b 378 285 417 268 401 277 b 326 303 355 294 337 300 b 265 319 314 307 294 312 b 135 381 208 334 165 355 b 92 489 106 408 92 444 b 153 616 92 544 112 586 b 299 661 194 646 242 661 b 501 561 390 661 458 628 m 335 783 l 274 783 l 128 983 l 178 983 l 304 810 l 431 983 l 481 983 "},"©":{"ha":1111,"x_min":0,"x_max":0,"o":"m 783 269 b 576 178 731 208 662 178 b 358 266 488 178 416 207 b 272 490 301 325 272 400 b 358 715 272 581 301 656 b 576 804 416 775 488 804 b 689 781 615 804 653 796 b 778 715 725 765 755 743 l 739 685 b 576 760 695 735 641 760 b 393 681 501 760 440 733 b 322 490 346 628 322 564 b 392 301 322 416 346 353 b 576 224 439 250 500 224 b 747 297 647 224 704 248 m 28 490 b 183 861 28 636 79 759 b 557 1014 286 963 411 1014 b 929 861 702 1014 826 963 b 1083 490 1032 759 1083 636 b 929 122 1083 346 1032 223 b 557 -31 826 20 702 -31 b 183 122 411 -31 286 20 b 28 490 79 223 28 346 m 75 490 b 216 154 75 359 122 247 b 557 15 310 62 424 15 b 896 154 689 15 802 62 b 1036 490 989 247 1036 359 b 896 828 1036 623 989 735 b 557 968 802 922 689 968 b 216 828 424 968 310 922 b 75 490 122 735 75 623 "},"ª":{"ha":490,"x_min":0,"x_max":0,"o":"m 360 854 b 329 936 360 890 350 918 b 243 964 309 955 280 964 b 111 913 191 964 147 947 l 88 943 b 246 1000 127 981 180 1000 b 361 962 295 1000 333 987 b 403 856 389 936 403 901 l 403 683 b 410 599 403 650 405 622 l 368 599 b 361 678 363 620 361 646 l 360 678 b 204 589 327 619 275 589 b 107 619 168 589 136 599 b 64 708 78 639 64 669 b 88 779 64 737 72 761 b 158 819 103 798 127 811 b 249 836 189 828 219 833 b 360 840 279 839 316 840 m 339 806 b 251 802 305 806 275 804 b 180 790 227 800 203 796 b 126 760 156 784 138 774 b 108 708 114 746 108 729 b 140 646 108 680 119 659 b 215 626 160 633 186 626 b 321 669 260 626 295 641 b 360 774 347 697 360 732 l 360 806 "},"«":{"ha":668,"x_min":0,"x_max":0,"o":"m 156 331 l 315 78 l 279 51 l 101 331 l 278 608 l 314 583 m 393 331 l 553 78 l 517 51 l 339 331 l 515 608 l 551 583 "},"¬":{"ha":925,"x_min":0,"x_max":0,"o":"m 803 185 l 756 185 l 756 514 l 124 514 l 124 558 l 803 558 "},"­":{"ha":425,"x_min":0,"x_max":0,"o":"m 347 326 l 78 326 l 78 369 l 347 369 "},"®":{"ha":833,"x_min":0,"x_max":0,"o":"m 100 686 b 193 908 100 773 131 847 b 418 1000 255 969 330 1000 b 641 908 505 1000 579 969 b 733 686 703 847 733 773 b 641 465 733 599 703 525 b 418 374 579 404 505 374 b 193 465 330 374 255 404 b 100 686 131 525 100 599 m 136 686 b 219 488 136 609 164 543 b 418 406 274 433 340 406 b 615 488 495 406 561 433 b 697 686 670 543 697 609 b 615 883 697 763 670 829 b 418 965 561 938 495 965 b 219 883 340 965 274 938 b 136 686 164 829 136 763 m 306 864 l 425 864 b 512 838 461 864 490 855 b 544 764 534 821 544 796 b 518 699 544 737 536 715 b 454 669 500 682 479 672 l 558 513 l 510 513 l 413 665 l 346 665 l 346 513 l 306 513 m 407 697 b 504 765 472 697 504 720 b 424 829 504 808 477 829 l 346 829 l 346 697 "},"¯":{"ha":333,"x_min":0,"x_max":0,"o":"m 336 854 l -3 854 l -3 896 l 336 896 "},"°":{"ha":556,"x_min":0,"x_max":0,"o":"m 481 793 b 422 649 481 737 461 689 b 278 590 383 610 335 590 b 133 649 220 590 172 610 b 75 793 94 689 75 737 b 133 937 75 850 94 897 b 278 996 172 976 220 996 b 422 937 335 996 383 976 b 481 793 461 897 481 850 m 442 793 b 394 909 442 838 426 877 b 278 957 362 941 323 957 b 162 909 232 957 194 941 b 114 793 130 877 114 838 b 162 677 114 748 130 709 b 278 629 194 645 232 629 b 394 677 323 629 362 645 b 442 793 426 709 442 748 "},"±":{"ha":925,"x_min":0,"x_max":0,"o":"m 124 522 l 436 522 l 436 778 l 483 778 l 483 522 l 803 522 l 803 478 l 483 478 l 483 228 l 438 228 l 438 478 l 124 478 m 128 111 l 799 111 l 799 67 l 128 67 "},"²":{"ha":494,"x_min":0,"x_max":0,"o":"m 422 629 l 65 629 l 65 672 l 285 907 b 374 1071 344 971 374 1025 b 340 1156 374 1107 363 1135 b 254 1186 318 1176 289 1186 b 126 1083 187 1186 144 1152 l 82 1093 b 144 1192 92 1136 113 1169 b 254 1226 176 1215 213 1226 b 376 1184 305 1226 346 1212 b 421 1075 406 1156 421 1119 b 397 981 421 1040 413 1009 b 310 872 381 954 352 918 l 119 669 l 422 669 "},"³":{"ha":494,"x_min":0,"x_max":0,"o":"m 231 615 b 54 724 145 615 87 651 l 96 739 b 151 676 108 711 126 690 b 231 656 176 663 203 656 b 329 690 272 656 305 667 b 365 786 353 713 365 745 b 319 881 365 827 350 859 b 208 915 288 904 251 915 l 181 915 l 181 954 l 207 954 b 309 988 250 954 284 966 b 346 1075 334 1011 346 1040 b 313 1158 346 1110 335 1138 b 231 1188 290 1178 263 1188 b 117 1125 180 1188 142 1167 l 81 1146 b 231 1226 116 1200 166 1226 b 348 1186 281 1226 320 1213 b 390 1076 376 1159 390 1123 b 360 985 390 1039 380 1009 b 279 938 341 961 313 945 b 278 935 278 937 278 936 b 374 885 319 927 351 911 b 410 786 398 859 410 826 b 359 660 410 732 393 691 b 231 615 325 630 282 615 "},"Ž":{"ha":815,"x_min":0,"x_max":0,"o":"m 747 929 l 122 47 l 763 47 l 763 0 l 65 0 l 65 51 l 693 936 l 82 936 l 82 983 l 747 983 m 444 1061 l 383 1061 l 238 1261 l 288 1261 l 414 1088 l 540 1261 l 590 1261 "},"µ":{"ha":772,"x_min":0,"x_max":0,"o":"m 121 642 l 171 642 l 171 267 b 364 25 171 106 235 25 b 533 104 431 25 488 51 b 600 318 578 157 600 228 l 600 642 l 649 642 l 649 156 l 654 0 l 601 0 l 601 149 l 599 149 b 501 27 579 98 547 57 b 356 -18 456 -3 407 -18 b 171 76 270 -18 209 13 l 171 -317 l 121 -317 "},"¶":{"ha":833,"x_min":0,"x_max":0,"o":"m 689 -175 l 640 -175 l 640 944 l 438 944 l 438 -175 l 389 -175 l 389 463 b 175 535 301 463 230 487 b 93 714 120 584 93 644 b 175 914 93 801 120 868 b 404 983 230 960 306 983 l 689 983 "},"·":{"ha":342,"x_min":0,"x_max":0,"o":"m 217 379 b 203 346 217 366 212 355 b 171 332 195 337 184 332 b 140 346 159 332 148 337 b 126 379 131 355 126 366 b 140 413 126 392 131 403 b 171 426 148 422 159 426 b 203 413 184 426 195 422 b 217 379 212 403 217 392 "},"ž":{"ha":610,"x_min":0,"x_max":0,"o":"m 532 600 l 121 43 l 547 43 l 547 0 l 60 0 l 60 40 l 475 600 l 82 600 l 82 642 l 532 642 m 342 783 l 281 783 l 135 983 l 185 983 l 311 810 l 438 983 l 488 983 "},"¹":{"ha":494,"x_min":0,"x_max":0,"o":"m 283 629 l 236 629 l 236 1160 l 117 1074 l 88 1107 l 240 1214 l 283 1214 "},"º":{"ha":490,"x_min":0,"x_max":0,"o":"m 447 796 b 391 647 447 736 428 686 b 246 589 353 608 305 589 b 100 647 187 589 138 608 b 43 796 62 686 43 736 b 100 944 43 856 62 905 b 246 1001 138 982 187 1001 b 391 944 305 1001 353 982 b 447 796 428 905 447 856 m 403 796 b 360 916 403 844 389 884 b 246 964 332 948 294 964 b 131 915 198 964 159 948 b 88 796 102 883 88 843 b 131 674 88 748 102 707 b 246 625 159 641 198 625 b 360 674 294 625 332 641 b 403 796 389 707 403 748 "},"»":{"ha":668,"x_min":0,"x_max":0,"o":"m 513 331 l 354 583 l 389 610 l 568 331 l 390 53 l 354 78 m 275 331 l 117 583 l 151 610 l 331 331 l 153 53 l 117 78 "},"Œ":{"ha":1364,"x_min":0,"x_max":0,"o":"m 1269 983 l 1269 936 l 789 936 l 789 533 l 1239 533 l 1239 488 l 789 488 l 789 47 l 1290 47 l 1290 0 l 635 0 b 252 126 481 0 353 42 b 100 492 151 209 100 331 b 143 710 100 573 114 646 b 260 865 172 774 211 825 b 430 953 310 904 366 934 b 635 983 493 973 562 983 m 647 936 b 289 819 498 936 379 897 b 154 492 199 742 154 632 b 289 164 154 351 199 242 b 647 47 379 86 498 47 l 738 47 l 738 936 l 647 936 "},"œ":{"ha":1397,"x_min":0,"x_max":0,"o":"m 421 -18 b 178 78 322 -18 241 14 b 83 322 115 142 83 223 b 178 566 83 421 115 503 b 421 661 241 629 322 661 b 612 607 494 661 558 643 b 729 460 666 571 705 522 b 840 607 752 522 789 571 b 1014 661 890 643 948 661 b 1235 570 1109 661 1183 631 b 1314 350 1288 509 1314 436 l 1314 318 l 754 318 b 828 113 754 239 779 171 b 1026 25 877 54 943 25 b 1253 140 1121 25 1196 63 l 1290 110 b 1025 -18 1224 25 1135 -18 b 843 37 956 -18 895 0 b 731 186 791 73 754 123 b 613 37 706 123 667 73 b 421 -18 558 0 494 -18 m 707 322 b 628 533 707 406 681 477 b 421 618 576 590 507 618 b 213 533 335 618 266 590 b 135 322 161 477 135 406 b 213 110 135 238 161 167 b 421 25 266 53 335 25 b 628 110 507 25 576 53 b 707 322 681 167 707 238 m 1264 360 b 1193 547 1262 437 1238 499 b 1013 618 1148 594 1088 618 b 901 592 972 618 934 609 b 820 526 867 575 840 553 b 774 442 800 500 785 472 b 756 360 763 413 756 386 "},"Ÿ":{"ha":775,"x_min":0,"x_max":0,"o":"m 414 0 l 361 0 l 361 428 l 14 983 l 78 983 l 389 475 l 700 983 l 760 983 l 414 428 m 231 1188 b 244 1219 231 1200 235 1210 b 275 1233 253 1229 263 1233 b 306 1220 287 1233 297 1229 b 319 1188 315 1211 319 1200 b 306 1155 319 1175 315 1164 b 275 1142 297 1146 287 1142 b 244 1155 263 1142 253 1146 b 231 1188 235 1164 231 1175 m 461 1188 b 474 1220 461 1200 466 1211 b 506 1233 483 1229 494 1233 b 537 1219 518 1233 528 1229 b 550 1188 546 1210 550 1200 b 537 1155 550 1175 546 1164 b 506 1142 528 1146 518 1142 b 474 1155 493 1142 482 1146 b 461 1188 465 1164 461 1175 "},"¿":{"ha":660,"x_min":0,"x_max":0,"o":"m 304 397 l 356 397 l 356 321 b 328 210 356 279 347 242 b 225 99 310 177 276 140 b 143 11 187 68 160 39 b 118 -93 126 -17 118 -51 b 177 -235 118 -153 138 -201 b 326 -287 216 -270 266 -287 b 470 -235 384 -287 432 -270 b 540 -99 509 -201 532 -155 l 590 -107 b 499 -274 577 -178 547 -234 b 322 -333 450 -313 392 -333 b 138 -270 248 -333 187 -312 b 65 -96 90 -228 65 -170 b 97 31 65 -43 76 -1 b 192 131 117 62 149 95 b 282 227 237 169 267 201 b 304 336 297 253 304 290 m 279 633 b 293 667 279 646 284 657 b 325 681 302 676 313 681 b 356 667 337 681 347 676 b 369 633 365 657 369 646 b 357 599 369 619 365 608 b 325 585 349 589 338 585 b 292 599 312 585 301 589 b 279 633 284 608 279 619 "},"À":{"ha":940,"x_min":0,"x_max":0,"o":"m 79 0 l 22 0 l 447 983 l 504 983 l 918 0 l 861 0 l 747 275 l 194 275 m 214 321 l 728 321 l 474 936 m 294 1261 l 360 1261 l 501 1061 l 457 1061 "},"Á":{"ha":940,"x_min":0,"x_max":0,"o":"m 79 0 l 22 0 l 447 983 l 504 983 l 918 0 l 861 0 l 747 275 l 194 275 m 214 321 l 728 321 l 474 936 m 493 1061 l 449 1061 l 590 1261 l 656 1261 "},"Â":{"ha":940,"x_min":0,"x_max":0,"o":"m 79 0 l 22 0 l 447 983 l 504 983 l 918 0 l 861 0 l 747 275 l 194 275 m 214 321 l 728 321 l 474 936 m 651 1061 l 601 1061 l 475 1235 l 349 1061 l 299 1061 l 444 1261 l 506 1261 "},"Ã":{"ha":940,"x_min":0,"x_max":0,"o":"m 79 0 l 22 0 l 447 983 l 504 983 l 918 0 l 861 0 l 747 275 l 194 275 m 214 321 l 728 321 l 474 936 m 293 1093 b 324 1175 298 1127 308 1155 b 386 1206 341 1195 361 1206 b 479 1172 410 1206 441 1194 b 564 1139 516 1150 544 1139 b 624 1207 596 1139 616 1162 l 658 1207 b 564 1097 648 1134 617 1097 b 472 1131 540 1097 509 1108 b 386 1164 436 1153 407 1164 b 326 1093 356 1164 336 1140 "},"Ä":{"ha":940,"x_min":0,"x_max":0,"o":"m 79 0 l 22 0 l 447 983 l 504 983 l 918 0 l 861 0 l 747 275 l 194 275 m 214 321 l 728 321 l 474 936 m 315 1188 b 328 1219 315 1200 320 1210 b 360 1233 337 1229 348 1233 b 391 1220 372 1233 382 1229 b 404 1188 400 1211 404 1200 b 391 1155 404 1175 400 1164 b 360 1142 382 1146 372 1142 b 328 1155 348 1142 337 1146 b 315 1188 320 1164 315 1175 m 546 1188 b 559 1220 546 1200 550 1211 b 590 1233 568 1229 578 1233 b 622 1219 602 1233 613 1229 b 635 1188 630 1210 635 1200 b 622 1155 635 1175 630 1164 b 590 1142 613 1146 602 1142 b 558 1155 577 1142 567 1146 b 546 1188 550 1164 546 1175 "},"Å":{"ha":940,"x_min":0,"x_max":0,"o":"m 79 0 l 22 0 l 447 983 l 504 983 l 918 0 l 861 0 l 747 275 l 194 275 m 214 321 l 728 321 l 474 936 m 608 1181 b 569 1087 608 1144 595 1112 b 475 1049 542 1061 511 1049 b 381 1087 439 1049 408 1061 b 342 1181 355 1112 342 1144 b 381 1274 342 1218 355 1249 b 475 1313 408 1300 439 1313 b 569 1274 511 1313 542 1300 b 608 1181 595 1249 608 1218 m 575 1181 b 546 1251 575 1208 565 1232 b 475 1281 526 1271 503 1281 b 404 1251 447 1281 424 1271 b 375 1181 385 1232 375 1208 b 404 1110 375 1153 385 1129 b 475 1081 424 1090 447 1081 b 546 1110 503 1081 526 1090 b 575 1181 565 1129 575 1153 "},"Æ":{"ha":1354,"x_min":0,"x_max":0,"o":"m 746 47 l 1276 47 l 1276 0 l 694 0 l 694 283 l 268 283 l 83 0 l 24 0 l 663 983 l 1256 983 l 1256 936 l 746 936 l 746 533 l 1222 533 l 1222 488 l 746 488 m 694 329 l 694 936 l 688 936 l 296 329 "},"Ç":{"ha":1004,"x_min":0,"x_max":0,"o":"m 954 132 b 804 17 916 83 866 44 b 604 -26 742 -11 675 -25 l 546 -115 b 613 -106 566 -109 588 -106 b 696 -129 645 -106 673 -113 b 731 -201 719 -145 731 -169 b 682 -289 731 -242 714 -271 b 572 -315 650 -306 613 -315 b 446 -287 530 -315 488 -306 l 457 -256 b 571 -279 489 -271 527 -279 b 650 -261 600 -279 627 -273 b 685 -201 673 -249 685 -229 b 593 -136 685 -158 654 -136 b 508 -154 559 -136 531 -142 l 490 -139 l 567 -25 b 225 131 427 -18 313 34 b 93 492 137 227 93 347 b 236 863 93 642 141 766 b 599 1010 331 961 452 1010 b 786 974 664 1010 727 998 b 931 875 845 951 894 918 l 893 840 b 764 930 861 878 818 908 b 599 963 710 952 655 963 b 273 826 465 963 357 917 b 147 492 189 736 147 624 b 272 157 147 359 189 248 b 599 21 356 66 464 21 b 777 57 661 21 720 33 b 915 163 834 81 880 116 "},"È":{"ha":821,"x_min":0,"x_max":0,"o":"m 193 47 l 746 47 l 746 0 l 142 0 l 142 983 l 726 983 l 726 936 l 193 936 l 193 533 l 693 533 l 693 488 l 193 488 m 276 1261 l 342 1261 l 483 1061 l 439 1061 "},"É":{"ha":821,"x_min":0,"x_max":0,"o":"m 193 47 l 746 47 l 746 0 l 142 0 l 142 983 l 726 983 l 726 936 l 193 936 l 193 533 l 693 533 l 693 488 l 193 488 m 433 1061 l 389 1061 l 531 1261 l 596 1261 "},"Ê":{"ha":821,"x_min":0,"x_max":0,"o":"m 193 47 l 746 47 l 746 0 l 142 0 l 142 983 l 726 983 l 726 936 l 193 936 l 193 533 l 693 533 l 693 488 l 193 488 m 614 1061 l 564 1061 l 438 1235 l 311 1061 l 261 1061 l 407 1261 l 468 1261 "},"Ë":{"ha":821,"x_min":0,"x_max":0,"o":"m 193 47 l 746 47 l 746 0 l 142 0 l 142 983 l 726 983 l 726 936 l 193 936 l 193 533 l 693 533 l 693 488 l 193 488 m 279 1188 b 292 1219 279 1200 284 1210 b 324 1233 301 1229 312 1233 b 355 1220 336 1233 346 1229 b 368 1188 364 1211 368 1200 b 355 1155 368 1175 364 1164 b 324 1142 346 1146 336 1142 b 292 1155 312 1142 301 1146 b 279 1188 284 1164 279 1175 m 510 1188 b 523 1220 510 1200 514 1211 b 554 1233 532 1229 542 1233 b 585 1219 566 1233 577 1229 b 599 1188 594 1210 599 1200 b 585 1155 599 1175 594 1164 b 554 1142 577 1146 566 1142 b 522 1155 541 1142 531 1146 b 510 1188 514 1164 510 1175 "},"Ì":{"ha":336,"x_min":0,"x_max":0,"o":"m 194 0 l 142 0 l 142 983 l 194 983 m -12 1261 l 53 1261 l 194 1061 l 150 1061 "},"Í":{"ha":336,"x_min":0,"x_max":0,"o":"m 194 0 l 142 0 l 142 983 l 194 983 m 185 1061 l 140 1061 l 282 1261 l 347 1261 "},"Î":{"ha":336,"x_min":0,"x_max":0,"o":"m 194 0 l 142 0 l 142 983 l 194 983 m 343 1061 l 293 1061 l 167 1235 l 40 1061 l -10 1061 l 136 1261 l 197 1261 "},"Ï":{"ha":336,"x_min":0,"x_max":0,"o":"m 194 0 l 142 0 l 142 983 l 194 983 m 8 1188 b 22 1219 8 1200 13 1210 b 53 1233 30 1229 41 1233 b 84 1220 65 1233 75 1229 b 97 1188 93 1211 97 1200 b 84 1155 97 1175 93 1164 b 53 1142 75 1146 65 1142 b 22 1155 41 1142 30 1146 b 8 1188 13 1164 8 1175 m 239 1188 b 252 1220 239 1200 243 1211 b 283 1233 261 1229 271 1233 b 315 1219 295 1233 306 1229 b 328 1188 323 1210 328 1200 b 315 1155 328 1175 323 1164 b 283 1142 306 1146 295 1142 b 251 1155 270 1142 260 1146 b 239 1188 243 1164 239 1175 "},"Ð":{"ha":1064,"x_min":0,"x_max":0,"o":"m 139 493 l 31 493 l 31 535 l 139 535 l 139 983 l 432 983 b 815 858 586 983 713 941 b 967 492 916 774 967 652 b 924 274 967 410 952 337 b 806 119 895 210 856 158 b 637 30 757 79 700 50 b 432 0 573 10 505 0 l 139 0 m 192 47 l 418 47 b 777 164 568 47 688 86 b 911 492 866 242 911 351 b 777 819 911 632 866 742 b 418 936 688 897 568 936 l 192 936 l 192 535 l 560 535 l 560 493 l 192 493 "},"Ñ":{"ha":1074,"x_min":0,"x_max":0,"o":"m 876 72 l 879 72 l 879 983 l 932 983 l 932 0 l 863 0 l 197 914 l 194 914 l 194 0 l 142 0 l 142 983 l 211 983 m 360 1093 b 391 1175 364 1127 375 1155 b 453 1206 407 1195 428 1206 b 546 1172 477 1206 508 1194 b 631 1139 583 1150 611 1139 b 690 1207 663 1139 683 1162 l 725 1207 b 631 1097 715 1134 683 1097 b 539 1131 606 1097 576 1108 b 453 1164 503 1153 474 1164 b 393 1093 422 1164 402 1140 "},"Ò":{"ha":1201,"x_min":0,"x_max":0,"o":"m 1108 492 b 964 120 1108 342 1060 218 b 601 -26 868 22 747 -26 b 238 120 455 -26 334 22 b 93 492 141 218 93 342 b 237 863 93 642 141 766 b 601 1010 333 961 454 1010 b 965 863 748 1010 869 961 b 1108 492 1060 766 1108 642 m 1054 492 b 928 827 1054 624 1012 736 b 601 964 844 918 735 964 b 274 827 468 964 359 918 b 147 492 190 736 147 624 b 274 157 147 359 189 248 b 601 21 358 66 467 21 b 928 157 736 21 845 66 b 1054 492 1012 248 1054 359 m 460 1261 l 525 1261 l 667 1061 l 622 1061 "},"Ó":{"ha":1201,"x_min":0,"x_max":0,"o":"m 1108 492 b 964 120 1108 342 1060 218 b 601 -26 868 22 747 -26 b 238 120 455 -26 334 22 b 93 492 141 218 93 342 b 237 863 93 642 141 766 b 601 1010 333 961 454 1010 b 965 863 748 1010 869 961 b 1108 492 1060 766 1108 642 m 1054 492 b 928 827 1054 624 1012 736 b 601 964 844 918 735 964 b 274 827 468 964 359 918 b 147 492 190 736 147 624 b 274 157 147 359 189 248 b 601 21 358 66 467 21 b 928 157 736 21 845 66 b 1054 492 1012 248 1054 359 m 596 1061 l 551 1061 l 693 1261 l 758 1261 "},"Ô":{"ha":1201,"x_min":0,"x_max":0,"o":"m 1108 492 b 964 120 1108 342 1060 218 b 601 -26 868 22 747 -26 b 238 120 455 -26 334 22 b 93 492 141 218 93 342 b 237 863 93 642 141 766 b 601 1010 333 961 454 1010 b 965 863 748 1010 869 961 b 1108 492 1060 766 1108 642 m 1054 492 b 928 827 1054 624 1012 736 b 601 964 844 918 735 964 b 274 827 468 964 359 918 b 147 492 190 736 147 624 b 274 157 147 359 189 248 b 601 21 358 66 467 21 b 928 157 736 21 845 66 b 1054 492 1012 248 1054 359 m 779 1061 l 729 1061 l 603 1235 l 476 1061 l 426 1061 l 572 1261 l 633 1261 "},"Õ":{"ha":1201,"x_min":0,"x_max":0,"o":"m 1108 492 b 964 120 1108 342 1060 218 b 601 -26 868 22 747 -26 b 238 120 455 -26 334 22 b 93 492 141 218 93 342 b 237 863 93 642 141 766 b 601 1010 333 961 454 1010 b 965 863 748 1010 869 961 b 1108 492 1060 766 1108 642 m 1054 492 b 928 827 1054 624 1012 736 b 601 964 844 918 735 964 b 274 827 468 964 359 918 b 147 492 190 736 147 624 b 274 157 147 359 189 248 b 601 21 358 66 467 21 b 928 157 736 21 845 66 b 1054 492 1012 248 1054 359 m 421 1093 b 452 1175 425 1127 436 1155 b 514 1206 468 1195 489 1206 b 607 1172 538 1206 569 1194 b 692 1139 644 1150 672 1139 b 751 1207 724 1139 744 1162 l 786 1207 b 692 1097 776 1134 744 1097 b 600 1131 668 1097 637 1108 b 514 1164 564 1153 535 1164 b 454 1093 483 1164 463 1140 "},"Ö":{"ha":1201,"x_min":0,"x_max":0,"o":"m 1108 492 b 964 120 1108 342 1060 218 b 601 -26 868 22 747 -26 b 238 120 455 -26 334 22 b 93 492 141 218 93 342 b 237 863 93 642 141 766 b 601 1010 333 961 454 1010 b 965 863 748 1010 869 961 b 1108 492 1060 766 1108 642 m 1054 492 b 928 827 1054 624 1012 736 b 601 964 844 918 735 964 b 274 827 468 964 359 918 b 147 492 190 736 147 624 b 274 157 147 359 189 248 b 601 21 358 66 467 21 b 928 157 736 21 845 66 b 1054 492 1012 248 1054 359 m 443 1188 b 456 1219 443 1200 447 1210 b 488 1233 465 1229 475 1233 b 519 1220 500 1233 510 1229 b 532 1188 528 1211 532 1200 b 519 1155 532 1175 528 1164 b 488 1142 510 1146 500 1142 b 456 1155 475 1142 465 1146 b 443 1188 447 1164 443 1175 m 674 1188 b 687 1220 674 1200 678 1211 b 718 1233 696 1229 706 1233 b 749 1219 730 1233 741 1229 b 763 1188 758 1210 763 1200 b 749 1155 763 1175 758 1164 b 718 1142 741 1146 730 1142 b 686 1155 705 1142 694 1146 b 674 1188 678 1164 674 1175 "},"×":{"ha":925,"x_min":0,"x_max":0,"o":"m 464 457 l 704 697 l 735 667 l 494 425 l 735 185 l 703 154 l 464 393 l 224 154 l 192 185 l 433 425 l 192 667 l 222 697 "},"Ø":{"ha":1201,"x_min":0,"x_max":0,"o":"m 943 872 b 1096 492 1045 775 1096 648 b 951 120 1096 342 1048 218 b 589 -26 855 22 734 -26 b 254 92 457 -26 346 13 l 157 -18 l 128 10 l 225 119 b 81 492 129 216 81 340 b 224 863 81 642 128 766 b 589 1010 320 961 442 1010 b 913 900 712 1010 820 973 l 1010 1010 l 1039 982 m 289 129 b 589 19 371 56 471 19 b 916 156 723 19 832 65 b 1042 492 1000 247 1042 359 b 908 833 1042 631 997 744 m 879 863 b 589 964 798 930 701 964 b 262 827 456 964 347 918 b 135 492 177 736 135 624 b 260 158 135 357 176 246 "},"Ù":{"ha":1007,"x_min":0,"x_max":0,"o":"m 504 -26 b 326 6 436 -26 376 -16 b 210 97 276 28 238 58 b 150 222 183 135 163 177 b 131 371 137 268 131 317 l 131 983 l 183 983 l 183 378 b 191 281 183 344 186 311 b 219 185 196 250 206 218 b 275 101 233 153 252 124 b 368 42 298 77 329 58 b 504 19 407 27 452 19 b 664 52 566 19 619 30 b 764 140 708 74 742 103 b 811 253 786 177 802 215 b 825 378 820 292 825 333 l 825 983 l 876 983 l 876 371 b 857 222 876 317 870 268 b 797 97 844 177 824 135 b 681 6 769 58 731 28 b 504 -26 631 -16 572 -26 m 356 1261 l 421 1261 l 563 1061 l 518 1061 "},"Ú":{"ha":1007,"x_min":0,"x_max":0,"o":"m 504 -26 b 326 6 436 -26 376 -16 b 210 97 276 28 238 58 b 150 222 183 135 163 177 b 131 371 137 268 131 317 l 131 983 l 183 983 l 183 378 b 191 281 183 344 186 311 b 219 185 196 250 206 218 b 275 101 233 153 252 124 b 368 42 298 77 329 58 b 504 19 407 27 452 19 b 664 52 566 19 619 30 b 764 140 708 74 742 103 b 811 253 786 177 802 215 b 825 378 820 292 825 333 l 825 983 l 876 983 l 876 371 b 857 222 876 317 870 268 b 797 97 844 177 824 135 b 681 6 769 58 731 28 b 504 -26 631 -16 572 -26 m 486 1061 l 442 1061 l 583 1261 l 649 1261 "},"Û":{"ha":1007,"x_min":0,"x_max":0,"o":"m 504 -26 b 326 6 436 -26 376 -16 b 210 97 276 28 238 58 b 150 222 183 135 163 177 b 131 371 137 268 131 317 l 131 983 l 183 983 l 183 378 b 191 281 183 344 186 311 b 219 185 196 250 206 218 b 275 101 233 153 252 124 b 368 42 298 77 329 58 b 504 19 407 27 452 19 b 664 52 566 19 619 30 b 764 140 708 74 742 103 b 811 253 786 177 802 215 b 825 378 820 292 825 333 l 825 983 l 876 983 l 876 371 b 857 222 876 317 870 268 b 797 97 844 177 824 135 b 681 6 769 58 731 28 b 504 -26 631 -16 572 -26 m 681 1061 l 631 1061 l 504 1235 l 378 1061 l 328 1061 l 474 1261 l 535 1261 "},"Ü":{"ha":1007,"x_min":0,"x_max":0,"o":"m 504 -26 b 326 6 436 -26 376 -16 b 210 97 276 28 238 58 b 150 222 183 135 163 177 b 131 371 137 268 131 317 l 131 983 l 183 983 l 183 378 b 191 281 183 344 186 311 b 219 185 196 250 206 218 b 275 101 233 153 252 124 b 368 42 298 77 329 58 b 504 19 407 27 452 19 b 664 52 566 19 619 30 b 764 140 708 74 742 103 b 811 253 786 177 802 215 b 825 378 820 292 825 333 l 825 983 l 876 983 l 876 371 b 857 222 876 317 870 268 b 797 97 844 177 824 135 b 681 6 769 58 731 28 b 504 -26 631 -16 572 -26 m 344 1188 b 358 1219 344 1200 349 1210 b 389 1233 366 1229 377 1233 b 420 1220 401 1233 411 1229 b 433 1188 429 1211 433 1200 b 420 1155 433 1175 429 1164 b 389 1142 411 1146 401 1142 b 358 1155 377 1142 366 1146 b 344 1188 349 1164 344 1175 m 575 1188 b 588 1220 575 1200 579 1211 b 619 1233 597 1229 607 1233 b 651 1219 631 1233 642 1229 b 664 1188 659 1210 664 1200 b 651 1155 664 1175 659 1164 b 619 1142 642 1146 631 1142 b 588 1155 606 1142 596 1146 b 575 1188 579 1164 575 1175 "},"Ý":{"ha":775,"x_min":0,"x_max":0,"o":"m 414 0 l 361 0 l 361 428 l 14 983 l 78 983 l 389 475 l 700 983 l 760 983 l 414 428 m 406 1061 l 361 1061 l 503 1261 l 568 1261 "},"Þ":{"ha":797,"x_min":0,"x_max":0,"o":"m 142 983 l 194 983 l 194 765 l 413 765 b 635 705 501 765 576 745 b 725 515 695 665 725 601 b 640 325 725 434 697 370 b 424 257 584 280 512 257 l 194 257 l 194 0 l 142 0 m 194 303 l 421 303 b 600 356 493 303 553 320 b 671 515 647 391 671 444 b 598 670 671 586 647 637 b 415 719 549 703 488 719 l 194 719 "},"ß":{"ha":821,"x_min":0,"x_max":0,"o":"m 186 0 l 136 0 l 136 750 b 206 977 136 842 159 917 b 415 1067 253 1037 323 1067 b 601 1001 490 1067 552 1045 b 674 825 649 957 674 898 b 625 676 674 764 657 714 b 493 597 593 637 549 611 l 493 594 b 672 505 566 585 626 555 b 740 296 717 454 740 385 b 654 70 740 202 712 127 b 424 -15 597 13 520 -15 b 354 -10 407 -15 384 -13 l 354 35 b 419 29 376 31 398 29 b 615 102 501 29 566 53 b 688 297 663 151 688 216 b 609 501 688 387 661 455 b 404 571 557 548 488 571 l 386 571 l 386 617 l 404 617 b 563 671 469 617 522 635 b 624 824 603 707 624 758 b 565 969 624 886 604 934 b 415 1022 526 1005 476 1022 b 305 999 373 1022 336 1014 b 233 933 274 983 250 961 b 197 846 217 906 205 876 b 186 746 190 815 186 782 "},"à":{"ha":721,"x_min":0,"x_max":0,"o":"m 304 -18 b 153 30 247 -18 196 -2 b 88 169 109 62 88 108 b 454 382 88 311 210 382 l 546 382 l 546 424 b 494 569 546 488 529 537 b 350 618 460 602 412 618 b 156 542 276 618 211 593 l 128 578 b 353 661 189 633 264 661 b 530 602 428 661 487 641 b 594 426 573 563 594 504 l 594 144 b 606 0 594 85 598 37 l 558 0 b 549 138 552 41 549 87 l 544 138 b 449 21 524 86 492 47 b 304 -18 406 -5 358 -18 m 313 24 b 488 105 391 24 450 51 b 546 304 527 159 546 225 l 546 342 l 468 342 b 138 171 248 342 138 285 b 190 60 138 121 155 84 b 313 24 225 36 266 24 m 219 983 l 285 983 l 426 783 l 382 783 "},"á":{"ha":721,"x_min":0,"x_max":0,"o":"m 304 -18 b 153 30 247 -18 196 -2 b 88 169 109 62 88 108 b 454 382 88 311 210 382 l 546 382 l 546 424 b 494 569 546 488 529 537 b 350 618 460 602 412 618 b 156 542 276 618 211 593 l 128 578 b 353 661 189 633 264 661 b 530 602 428 661 487 641 b 594 426 573 563 594 504 l 594 144 b 606 0 594 85 598 37 l 558 0 b 549 138 552 41 549 87 l 544 138 b 449 21 524 86 492 47 b 304 -18 406 -5 358 -18 m 313 24 b 488 105 391 24 450 51 b 546 304 527 159 546 225 l 546 342 l 468 342 b 138 171 248 342 138 285 b 190 60 138 121 155 84 b 313 24 225 36 266 24 m 360 783 l 315 783 l 457 983 l 522 983 "},"â":{"ha":721,"x_min":0,"x_max":0,"o":"m 304 -18 b 153 30 247 -18 196 -2 b 88 169 109 62 88 108 b 454 382 88 311 210 382 l 546 382 l 546 424 b 494 569 546 488 529 537 b 350 618 460 602 412 618 b 156 542 276 618 211 593 l 128 578 b 353 661 189 633 264 661 b 530 602 428 661 487 641 b 594 426 573 563 594 504 l 594 144 b 606 0 594 85 598 37 l 558 0 b 549 138 552 41 549 87 l 544 138 b 449 21 524 86 492 47 b 304 -18 406 -5 358 -18 m 313 24 b 488 105 391 24 450 51 b 546 304 527 159 546 225 l 546 342 l 468 342 b 138 171 248 342 138 285 b 190 60 138 121 155 84 b 313 24 225 36 266 24 m 531 783 l 481 783 l 354 957 l 228 783 l 178 783 l 324 983 l 385 983 "},"ã":{"ha":721,"x_min":0,"x_max":0,"o":"m 304 -18 b 153 30 247 -18 196 -2 b 88 169 109 62 88 108 b 454 382 88 311 210 382 l 546 382 l 546 424 b 494 569 546 488 529 537 b 350 618 460 602 412 618 b 156 542 276 618 211 593 l 128 578 b 353 661 189 633 264 661 b 530 602 428 661 487 641 b 594 426 573 563 594 504 l 594 144 b 606 0 594 85 598 37 l 558 0 b 549 138 552 41 549 87 l 544 138 b 449 21 524 86 492 47 b 304 -18 406 -5 358 -18 m 313 24 b 488 105 391 24 450 51 b 546 304 527 159 546 225 l 546 342 l 468 342 b 138 171 248 342 138 285 b 190 60 138 121 155 84 b 313 24 225 36 266 24 m 172 815 b 203 897 177 850 187 877 b 265 928 220 918 240 928 b 358 894 290 928 321 917 b 443 861 395 872 424 861 b 503 929 475 861 495 884 l 538 929 b 443 819 527 856 496 819 b 351 853 419 819 388 831 b 265 886 315 875 287 886 b 206 815 235 886 215 863 "},"ä":{"ha":721,"x_min":0,"x_max":0,"o":"m 304 -18 b 153 30 247 -18 196 -2 b 88 169 109 62 88 108 b 454 382 88 311 210 382 l 546 382 l 546 424 b 494 569 546 488 529 537 b 350 618 460 602 412 618 b 156 542 276 618 211 593 l 128 578 b 353 661 189 633 264 661 b 530 602 428 661 487 641 b 594 426 573 563 594 504 l 594 144 b 606 0 594 85 598 37 l 558 0 b 549 138 552 41 549 87 l 544 138 b 449 21 524 86 492 47 b 304 -18 406 -5 358 -18 m 313 24 b 488 105 391 24 450 51 b 546 304 527 159 546 225 l 546 342 l 468 342 b 138 171 248 342 138 285 b 190 60 138 121 155 84 b 313 24 225 36 266 24 m 196 910 b 209 942 196 922 200 932 b 240 956 218 951 228 956 b 272 942 252 956 263 951 b 285 910 280 934 285 923 b 272 877 285 897 280 886 b 240 864 263 868 252 864 b 209 877 228 864 218 868 b 196 910 200 886 196 897 m 426 910 b 440 942 426 923 431 934 b 471 956 448 951 459 956 b 502 942 483 956 493 951 b 515 910 511 932 515 922 b 502 877 515 897 511 886 b 471 864 493 868 483 864 b 439 877 458 864 447 868 b 426 910 431 886 426 897 "},"å":{"ha":721,"x_min":0,"x_max":0,"o":"m 304 -18 b 153 30 247 -18 196 -2 b 88 169 109 62 88 108 b 454 382 88 311 210 382 l 546 382 l 546 424 b 494 569 546 488 529 537 b 350 618 460 602 412 618 b 156 542 276 618 211 593 l 128 578 b 353 661 189 633 264 661 b 530 602 428 661 487 641 b 594 426 573 563 594 504 l 594 144 b 606 0 594 85 598 37 l 558 0 b 549 138 552 41 549 87 l 544 138 b 449 21 524 86 492 47 b 304 -18 406 -5 358 -18 m 313 24 b 488 105 391 24 450 51 b 546 304 527 159 546 225 l 546 342 l 468 342 b 138 171 248 342 138 285 b 190 60 138 121 155 84 b 313 24 225 36 266 24 m 489 903 b 449 809 489 866 476 834 b 356 771 423 784 392 771 b 262 809 319 771 288 784 b 222 903 235 834 222 866 b 262 997 222 940 235 971 b 356 1035 288 1022 319 1035 b 449 997 392 1035 423 1022 b 489 903 476 971 489 940 m 456 903 b 426 974 456 931 446 954 b 356 1003 407 993 383 1003 b 285 974 328 1003 304 993 b 256 903 265 954 256 931 b 285 832 256 875 265 851 b 356 803 304 813 328 803 b 426 832 383 803 407 813 b 456 903 446 851 456 875 "},"æ":{"ha":1217,"x_min":0,"x_max":0,"o":"m 311 -18 b 153 26 250 -18 197 -3 b 88 161 109 56 88 101 b 456 361 88 294 210 361 l 554 361 l 554 413 b 502 564 554 477 537 528 b 354 618 467 600 418 618 b 154 542 279 618 213 593 l 126 576 b 358 661 188 633 266 661 b 519 614 426 661 479 645 b 590 489 558 582 582 541 b 694 614 614 541 649 582 b 847 661 740 645 791 661 b 1058 570 937 661 1007 631 b 1133 350 1108 509 1133 436 l 1133 318 l 601 318 b 669 114 601 240 624 172 b 858 26 715 56 778 26 b 1075 140 950 26 1022 64 l 1110 111 b 858 -18 1046 25 962 -18 b 688 35 794 -18 737 0 b 583 179 640 70 605 118 b 494 35 570 119 541 71 b 311 -18 447 0 386 -18 m 317 24 b 497 91 399 24 459 46 b 554 261 535 136 554 193 l 554 318 l 474 318 b 351 313 427 318 387 316 b 247 292 316 309 281 302 b 167 243 212 281 185 265 b 139 161 148 221 139 194 b 192 56 139 112 156 77 b 317 24 227 34 269 24 m 1083 361 b 1016 547 1081 438 1059 500 b 846 618 973 594 916 618 b 670 533 773 618 714 590 b 603 361 626 476 604 419 "},"ç":{"ha":675,"x_min":0,"x_max":0,"o":"m 596 538 b 415 618 550 591 489 618 b 213 532 332 618 265 589 b 136 321 162 475 136 404 b 213 111 136 238 162 168 b 415 26 265 55 332 26 b 606 101 489 26 553 51 l 636 71 b 428 -18 582 14 513 -15 l 364 -115 b 431 -106 384 -109 406 -106 b 514 -129 463 -106 491 -113 b 549 -201 537 -145 549 -169 b 500 -289 549 -242 532 -271 b 390 -315 468 -306 431 -315 b 264 -287 348 -315 306 -306 l 275 -256 b 389 -279 307 -271 345 -279 b 468 -261 419 -279 445 -273 b 503 -201 491 -249 503 -229 b 411 -136 503 -158 472 -136 b 326 -154 377 -136 349 -142 l 308 -139 l 389 -17 b 168 85 298 -11 225 23 b 83 321 112 148 83 226 b 176 565 83 419 114 500 b 415 661 238 629 318 661 b 631 569 505 661 577 631 "},"è":{"ha":779,"x_min":0,"x_max":0,"o":"m 646 360 b 574 547 644 437 620 499 b 394 618 528 594 469 618 b 253 573 341 618 294 603 b 165 471 212 543 183 509 b 136 360 147 433 137 396 m 407 -18 b 174 79 313 -18 235 14 b 83 326 114 144 83 226 b 173 566 83 423 113 503 b 394 661 233 629 306 661 b 617 569 490 661 564 631 b 696 349 669 508 696 435 b 695 333 696 346 696 341 b 694 318 695 326 694 321 l 135 318 b 209 113 136 239 160 171 b 407 25 258 54 324 25 b 636 139 498 25 574 63 l 671 110 b 407 -18 604 25 516 -18 m 242 983 l 307 983 l 449 783 l 404 783 "},"é":{"ha":779,"x_min":0,"x_max":0,"o":"m 646 360 b 574 547 644 437 620 499 b 394 618 528 594 469 618 b 253 573 341 618 294 603 b 165 471 212 543 183 509 b 136 360 147 433 137 396 m 407 -18 b 174 79 313 -18 235 14 b 83 326 114 144 83 226 b 173 566 83 423 113 503 b 394 661 233 629 306 661 b 617 569 490 661 564 631 b 696 349 669 508 696 435 b 695 333 696 346 696 341 b 694 318 695 326 694 321 l 135 318 b 209 113 136 239 160 171 b 407 25 258 54 324 25 b 636 139 498 25 574 63 l 671 110 b 407 -18 604 25 516 -18 m 399 783 l 354 783 l 496 983 l 561 983 "},"ê":{"ha":779,"x_min":0,"x_max":0,"o":"m 646 360 b 574 547 644 437 620 499 b 394 618 528 594 469 618 b 253 573 341 618 294 603 b 165 471 212 543 183 509 b 136 360 147 433 137 396 m 407 -18 b 174 79 313 -18 235 14 b 83 326 114 144 83 226 b 173 566 83 423 113 503 b 394 661 233 629 306 661 b 617 569 490 661 564 631 b 696 349 669 508 696 435 b 695 333 696 346 696 341 b 694 318 695 326 694 321 l 135 318 b 209 113 136 239 160 171 b 407 25 258 54 324 25 b 636 139 498 25 574 63 l 671 110 b 407 -18 604 25 516 -18 m 579 783 l 529 783 l 403 957 l 276 783 l 226 783 l 372 983 l 433 983 "},"ë":{"ha":779,"x_min":0,"x_max":0,"o":"m 646 360 b 574 547 644 437 620 499 b 394 618 528 594 469 618 b 253 573 341 618 294 603 b 165 471 212 543 183 509 b 136 360 147 433 137 396 m 407 -18 b 174 79 313 -18 235 14 b 83 326 114 144 83 226 b 173 566 83 423 113 503 b 394 661 233 629 306 661 b 617 569 490 661 564 631 b 696 349 669 508 696 435 b 695 333 696 346 696 341 b 694 318 695 326 694 321 l 135 318 b 209 113 136 239 160 171 b 407 25 258 54 324 25 b 636 139 498 25 574 63 l 671 110 b 407 -18 604 25 516 -18 m 240 910 b 253 942 240 922 245 932 b 285 956 262 951 273 956 b 316 942 297 956 307 951 b 329 910 325 934 329 923 b 316 877 329 897 325 886 b 285 864 307 868 297 864 b 253 877 273 864 262 868 b 240 910 245 886 240 897 m 471 910 b 484 942 471 923 475 934 b 515 956 493 951 503 956 b 547 942 527 956 538 951 b 560 910 555 932 560 922 b 547 877 560 897 555 886 b 515 864 538 868 527 864 b 483 877 502 864 492 868 b 471 910 475 886 471 897 "},"ì":{"ha":324,"x_min":0,"x_max":0,"o":"m 188 0 l 138 0 l 138 642 l 188 642 m -19 983 l 46 983 l 188 783 l 143 783 "},"í":{"ha":324,"x_min":0,"x_max":0,"o":"m 188 0 l 138 0 l 138 642 l 188 642 m 181 783 l 136 783 l 278 983 l 343 983 "},"î":{"ha":324,"x_min":0,"x_max":0,"o":"m 188 0 l 138 0 l 138 642 l 188 642 m 340 783 l 290 783 l 164 957 l 38 783 l -12 783 l 133 983 l 194 983 "},"ï":{"ha":324,"x_min":0,"x_max":0,"o":"m 188 0 l 138 0 l 138 642 l 188 642 m 4 910 b 17 942 4 922 9 932 b 49 956 26 951 37 956 b 80 942 61 956 71 951 b 93 910 89 934 93 923 b 80 877 93 897 89 886 b 49 864 71 868 61 864 b 17 877 37 864 26 868 b 4 910 9 886 4 897 m 235 910 b 248 942 235 923 239 934 b 279 956 257 951 267 956 b 310 942 291 956 302 951 b 324 910 319 932 324 922 b 310 877 324 897 319 886 b 279 864 302 868 291 864 b 247 877 266 864 256 868 b 235 910 239 886 235 897 "},"ð":{"ha":843,"x_min":0,"x_max":0,"o":"m 132 322 b 210 110 132 238 158 167 b 417 25 262 53 331 25 b 624 110 503 25 572 53 b 703 322 677 167 703 238 b 624 533 703 406 677 477 b 417 617 572 589 503 617 b 210 533 331 617 262 589 b 132 322 158 477 132 406 m 475 925 b 595 782 516 884 556 837 b 705 575 634 727 671 658 b 756 335 739 492 756 412 b 665 83 756 235 725 151 b 417 -18 604 16 521 -18 b 175 78 319 -18 238 14 b 81 322 112 142 81 223 b 175 566 81 421 112 503 b 417 661 238 629 319 661 b 654 563 510 661 589 628 l 661 565 b 557 749 635 626 600 688 b 429 900 513 811 471 861 l 274 817 l 247 846 l 400 929 b 264 1039 351 975 306 1012 l 306 1067 b 443 953 344 1041 389 1003 l 588 1032 l 619 1004 "},"ñ":{"ha":799,"x_min":0,"x_max":0,"o":"m 182 642 b 188 492 186 595 188 545 l 190 492 b 285 615 209 544 240 585 b 431 661 329 646 378 661 b 611 584 512 661 572 635 b 669 390 650 533 669 468 l 669 0 l 619 0 l 619 376 b 575 549 619 445 605 502 b 426 618 545 595 496 618 b 258 539 360 618 304 592 b 190 324 213 486 190 414 l 190 0 l 139 0 l 139 486 b 133 642 139 556 137 608 m 222 815 b 253 897 227 850 237 877 b 315 928 270 918 290 928 b 408 894 339 928 370 917 b 493 861 445 872 474 861 b 553 929 525 861 545 884 l 588 929 b 493 819 577 856 546 819 b 401 853 469 819 438 831 b 315 886 365 875 337 886 b 256 815 285 886 265 863 "},"ò":{"ha":843,"x_min":0,"x_max":0,"o":"m 760 322 b 665 78 760 223 728 142 b 421 -18 601 14 520 -18 b 178 78 323 -18 242 14 b 83 322 115 142 83 223 b 178 566 83 421 115 503 b 421 661 242 629 323 661 b 665 566 520 661 601 629 b 760 322 728 503 760 421 m 707 322 b 628 533 707 406 681 477 b 421 618 576 590 507 618 b 214 533 335 618 266 590 b 136 322 162 477 136 406 b 214 110 136 238 162 167 b 421 25 266 53 335 25 b 628 110 507 25 576 53 b 707 322 681 167 707 238 m 269 983 l 335 983 l 476 783 l 432 783 "},"ó":{"ha":843,"x_min":0,"x_max":0,"o":"m 760 322 b 665 78 760 223 728 142 b 421 -18 601 14 520 -18 b 178 78 323 -18 242 14 b 83 322 115 142 83 223 b 178 566 83 421 115 503 b 421 661 242 629 323 661 b 665 566 520 661 601 629 b 760 322 728 503 760 421 m 707 322 b 628 533 707 406 681 477 b 421 618 576 590 507 618 b 214 533 335 618 266 590 b 136 322 162 477 136 406 b 214 110 136 238 162 167 b 421 25 266 53 335 25 b 628 110 507 25 576 53 b 707 322 681 167 707 238 m 414 783 l 369 783 l 511 983 l 576 983 "},"ô":{"ha":843,"x_min":0,"x_max":0,"o":"m 760 322 b 665 78 760 223 728 142 b 421 -18 601 14 520 -18 b 178 78 323 -18 242 14 b 83 322 115 142 83 223 b 178 566 83 421 115 503 b 421 661 242 629 323 661 b 665 566 520 661 601 629 b 760 322 728 503 760 421 m 707 322 b 628 533 707 406 681 477 b 421 618 576 590 507 618 b 214 533 335 618 266 590 b 136 322 162 477 136 406 b 214 110 136 238 162 167 b 421 25 266 53 335 25 b 628 110 507 25 576 53 b 707 322 681 167 707 238 m 599 783 l 549 783 l 422 957 l 296 783 l 246 783 l 392 983 l 453 983 "},"õ":{"ha":843,"x_min":0,"x_max":0,"o":"m 760 322 b 665 78 760 223 728 142 b 421 -18 601 14 520 -18 b 178 78 323 -18 242 14 b 83 322 115 142 83 223 b 178 566 83 421 115 503 b 421 661 242 629 323 661 b 665 566 520 661 601 629 b 760 322 728 503 760 421 m 707 322 b 628 533 707 406 681 477 b 421 618 576 590 507 618 b 214 533 335 618 266 590 b 136 322 162 477 136 406 b 214 110 136 238 162 167 b 421 25 266 53 335 25 b 628 110 507 25 576 53 b 707 322 681 167 707 238 m 240 815 b 272 897 245 850 255 877 b 333 928 288 918 308 928 b 426 894 357 928 388 917 b 511 861 463 872 492 861 b 571 929 544 861 563 884 l 606 929 b 511 819 595 856 564 819 b 419 853 487 819 456 831 b 333 886 383 875 355 886 b 274 815 303 886 283 863 "},"ö":{"ha":843,"x_min":0,"x_max":0,"o":"m 760 322 b 665 78 760 223 728 142 b 421 -18 601 14 520 -18 b 178 78 323 -18 242 14 b 83 322 115 142 83 223 b 178 566 83 421 115 503 b 421 661 242 629 323 661 b 665 566 520 661 601 629 b 760 322 728 503 760 421 m 707 322 b 628 533 707 406 681 477 b 421 618 576 590 507 618 b 214 533 335 618 266 590 b 136 322 162 477 136 406 b 214 110 136 238 162 167 b 421 25 266 53 335 25 b 628 110 507 25 576 53 b 707 322 681 167 707 238 m 264 910 b 277 942 264 922 268 932 b 308 956 286 951 296 956 b 340 942 320 956 331 951 b 353 910 348 934 353 923 b 340 877 353 897 348 886 b 308 864 331 868 320 864 b 277 877 296 864 286 868 b 264 910 268 886 264 897 m 494 910 b 508 942 494 923 499 934 b 539 956 516 951 527 956 b 570 942 551 956 561 951 b 583 910 579 932 583 922 b 570 877 583 897 579 886 b 539 864 561 868 551 864 b 507 877 526 864 515 868 b 494 910 499 886 494 897 "},"÷":{"ha":925,"x_min":0,"x_max":0,"o":"m 803 399 l 124 399 l 124 443 l 803 443 m 521 650 b 503 609 521 634 515 621 b 463 592 492 597 478 592 b 422 609 447 592 433 597 b 406 650 411 621 406 634 b 422 692 406 667 411 681 b 463 710 433 704 447 710 b 503 692 478 710 492 704 b 521 650 515 681 521 667 m 521 192 b 503 149 521 175 515 161 b 463 132 492 138 478 132 b 422 149 447 132 433 138 b 406 192 411 161 406 175 b 422 233 406 208 411 222 b 463 250 432 244 446 250 b 503 233 478 250 492 244 b 521 192 515 221 521 207 "},"ø":{"ha":843,"x_min":0,"x_max":0,"o":"m 69 3 l 163 96 b 83 322 110 158 83 233 b 178 566 83 421 115 503 b 421 661 241 629 322 661 b 646 583 507 661 582 635 l 731 668 l 758 642 l 672 556 b 760 322 731 494 760 417 b 665 78 760 223 728 142 b 421 -18 601 14 520 -18 b 189 69 326 -18 249 11 l 97 -24 m 614 550 b 421 619 563 596 499 619 b 213 534 334 619 264 591 b 135 322 161 477 135 406 b 196 129 135 245 155 181 m 419 24 b 629 109 506 24 576 52 b 708 322 682 166 708 237 b 639 522 708 404 685 470 l 221 101 b 419 24 271 50 337 24 "},"ù":{"ha":799,"x_min":0,"x_max":0,"o":"m 614 0 b 608 150 610 48 608 98 l 606 150 b 510 27 587 98 555 57 b 363 -18 466 -3 416 -18 b 184 58 281 -18 222 7 b 128 253 147 109 128 174 l 128 642 l 178 642 l 178 267 b 222 94 178 198 192 141 b 369 24 251 47 300 24 b 539 104 437 24 494 50 b 607 328 584 158 607 232 l 607 642 l 657 642 l 657 156 b 664 0 657 95 659 44 m 231 983 l 296 983 l 438 783 l 393 783 "},"ú":{"ha":799,"x_min":0,"x_max":0,"o":"m 614 0 b 608 150 610 48 608 98 l 606 150 b 510 27 587 98 555 57 b 363 -18 466 -3 416 -18 b 184 58 281 -18 222 7 b 128 253 147 109 128 174 l 128 642 l 178 642 l 178 267 b 222 94 178 198 192 141 b 369 24 251 47 300 24 b 539 104 437 24 494 50 b 607 328 584 158 607 232 l 607 642 l 657 642 l 657 156 b 664 0 657 95 659 44 m 381 783 l 336 783 l 478 983 l 543 983 "},"û":{"ha":799,"x_min":0,"x_max":0,"o":"m 614 0 b 608 150 610 48 608 98 l 606 150 b 510 27 587 98 555 57 b 363 -18 466 -3 416 -18 b 184 58 281 -18 222 7 b 128 253 147 109 128 174 l 128 642 l 178 642 l 178 267 b 222 94 178 198 192 141 b 369 24 251 47 300 24 b 539 104 437 24 494 50 b 607 328 584 158 607 232 l 607 642 l 657 642 l 657 156 b 664 0 657 95 659 44 m 568 783 l 518 783 l 392 957 l 265 783 l 215 783 l 361 983 l 422 983 "},"ü":{"ha":799,"x_min":0,"x_max":0,"o":"m 614 0 b 608 150 610 48 608 98 l 606 150 b 510 27 587 98 555 57 b 363 -18 466 -3 416 -18 b 184 58 281 -18 222 7 b 128 253 147 109 128 174 l 128 642 l 178 642 l 178 267 b 222 94 178 198 192 141 b 369 24 251 47 300 24 b 539 104 437 24 494 50 b 607 328 584 158 607 232 l 607 642 l 657 642 l 657 156 b 664 0 657 95 659 44 m 232 910 b 245 942 232 922 236 932 b 276 956 254 951 264 956 b 308 942 288 956 299 951 b 321 910 316 934 321 923 b 308 877 321 897 316 886 b 276 864 299 868 288 864 b 245 877 264 864 254 868 b 232 910 236 886 232 897 m 463 910 b 476 942 463 923 467 934 b 507 956 484 951 495 956 b 538 942 519 956 529 951 b 551 910 547 932 551 922 b 538 877 551 897 547 886 b 507 864 529 868 519 864 b 475 877 494 864 483 868 b 463 910 467 886 463 897 "},"ý":{"ha":621,"x_min":0,"x_max":0,"o":"m 101 -335 b 36 -326 76 -335 55 -332 l 44 -281 b 101 -290 62 -287 81 -290 b 181 -258 135 -290 161 -279 b 232 -169 201 -236 218 -206 l 290 -12 l 31 642 l 86 642 l 317 43 l 536 642 l 590 642 l 271 -197 b 101 -335 236 -289 179 -335 m 319 783 l 275 783 l 417 983 l 482 983 "},"þ":{"ha":872,"x_min":0,"x_max":0,"o":"m 464 -18 b 301 26 406 -18 351 -3 b 190 153 251 56 214 98 l 188 153 l 188 -333 l 138 -333 l 138 1050 l 188 1050 l 188 488 l 190 488 b 304 616 217 543 255 586 b 464 661 353 646 406 661 b 698 565 559 661 637 629 b 789 321 759 500 789 419 b 697 78 789 224 758 143 b 464 -18 636 14 558 -18 m 738 321 b 661 531 738 404 712 474 b 461 617 610 588 544 617 b 262 531 381 617 314 588 b 183 321 209 474 183 404 b 262 111 183 238 209 169 b 461 25 314 54 381 25 b 661 110 544 25 610 53 b 738 321 712 167 738 238 "},"ÿ":{"ha":621,"x_min":0,"x_max":0,"o":"m 101 -335 b 36 -326 76 -335 55 -332 l 44 -281 b 101 -290 62 -287 81 -290 b 181 -258 135 -290 161 -279 b 232 -169 201 -236 218 -206 l 290 -12 l 31 642 l 86 642 l 317 43 l 536 642 l 590 642 l 271 -197 b 101 -335 236 -289 179 -335 m 157 910 b 170 942 157 922 161 932 b 201 956 179 951 189 956 b 233 942 213 956 224 951 b 246 910 241 934 246 923 b 233 877 246 897 241 886 b 201 864 224 868 213 864 b 170 877 189 864 179 868 b 157 910 161 886 157 897 m 388 910 b 401 942 388 923 392 934 b 432 956 409 951 420 956 b 463 942 444 956 454 951 b 476 910 472 932 476 922 b 463 877 476 897 472 886 b 432 864 454 868 444 864 b 400 877 419 864 408 868 b 388 910 392 886 388 897 "},"¤":{"ha":1138,"x_min":0,"x_max":0,"o":"m 835 656 b 911 431 886 594 911 519 b 829 197 911 339 884 261 b 960 67 871 152 914 108 b 942 49 957 65 951 59 b 926 32 932 38 927 33 l 794 164 b 569 85 733 111 658 85 b 344 167 481 85 406 112 l 210 32 b 176 67 198 47 187 58 l 310 200 b 231 431 257 262 231 339 b 306 654 231 518 256 592 b 241 718 301 659 279 680 b 176 781 203 756 181 777 b 211 814 181 784 193 795 l 338 688 b 569 772 401 744 479 772 b 800 689 662 772 739 744 l 925 814 l 942 797 b 960 781 951 788 957 782 l 835 656 m 569 725 b 361 640 483 725 414 697 b 282 431 308 584 282 514 b 361 218 282 346 308 275 b 569 132 414 161 483 132 b 779 218 656 132 726 161 b 858 431 832 275 858 346 b 779 640 858 514 832 584 b 569 725 726 697 656 725 "},"¦":{"ha":308,"x_min":0,"x_max":0,"o":"m 175 938 l 175 469 l 133 469 l 133 938 m 175 226 l 175 -242 l 133 -242 l 133 226 "},"¨":{"ha":333,"x_min":0,"x_max":0,"o":"m 7 910 b 20 942 7 922 11 932 b 51 956 29 951 39 956 b 83 942 63 956 74 951 b 96 910 91 934 96 923 b 83 877 96 897 91 886 b 51 864 74 868 63 864 b 20 877 39 864 29 868 b 7 910 11 886 7 897 m 238 910 b 251 942 238 923 242 934 b 282 956 259 951 270 956 b 313 942 294 956 304 951 b 326 910 322 932 326 922 b 313 877 326 897 322 886 b 282 864 304 868 294 864 b 250 877 269 864 258 868 b 238 910 242 886 238 897 "},"´":{"ha":333,"x_min":0,"x_max":0,"o":"m 156 783 l 111 783 l 253 983 l 318 983 "},"¸":{"ha":333,"x_min":0,"x_max":0,"o":"m 122 -115 b 189 -106 143 -109 165 -106 b 272 -129 221 -106 249 -113 b 307 -201 295 -145 307 -169 b 258 -289 307 -242 291 -271 b 149 -315 226 -306 189 -315 b 22 -287 106 -315 64 -306 l 33 -256 b 147 -279 66 -271 104 -279 b 226 -261 177 -279 203 -273 b 261 -201 250 -249 261 -229 b 169 -136 261 -158 231 -136 b 85 -154 135 -136 107 -142 l 67 -139 l 160 0 l 199 0 "},"¼":{"ha":1128,"x_min":0,"x_max":0,"o":"m 954 185 l 1044 185 l 1044 144 l 954 144 l 954 0 l 911 0 l 911 144 l 643 144 l 643 188 l 896 589 l 954 589 m 907 532 l 689 185 l 911 185 l 911 532 m 283 399 l 236 399 l 236 929 l 117 843 l 88 876 l 240 983 l 283 983 m 258 -39 l 221 -17 l 836 1024 l 874 1001 "},"½":{"ha":1128,"x_min":0,"x_max":0,"o":"m 1035 0 l 678 0 l 678 43 l 897 278 b 986 442 956 341 986 395 b 953 526 986 478 975 506 b 865 557 931 547 901 557 b 739 454 799 557 756 523 l 694 464 b 756 563 705 506 725 539 b 865 597 787 586 824 597 b 988 555 916 597 957 583 b 1033 447 1018 527 1033 491 b 1010 353 1033 411 1026 380 b 924 244 995 326 966 290 l 733 40 l 1035 40 m 258 -39 l 221 -17 l 836 1024 l 874 1001 m 283 399 l 236 399 l 236 929 l 117 843 l 88 876 l 258 983 l 283 983 "},"¾":{"ha":1128,"x_min":0,"x_max":0,"o":"m 911 144 l 643 144 l 643 188 l 896 589 l 954 589 l 954 185 l 1044 185 l 1044 144 l 954 144 l 954 0 l 911 0 m 231 389 b 54 497 145 389 87 425 l 96 513 b 151 450 108 485 126 464 b 231 429 176 436 203 429 b 329 464 272 429 305 441 b 365 560 353 487 365 519 b 319 655 365 600 350 632 b 208 689 288 678 251 689 l 181 689 l 181 728 l 207 728 b 309 762 250 728 284 739 b 346 849 334 784 346 813 b 313 931 346 884 335 911 b 231 961 290 951 263 961 b 117 899 180 961 142 940 l 81 919 b 231 1000 116 973 166 1000 b 348 960 281 1000 320 987 b 390 850 376 933 390 896 b 360 758 390 813 380 782 b 278 711 339 734 312 719 l 278 708 b 374 658 319 701 351 684 b 410 560 398 632 410 600 b 359 434 410 506 393 464 b 231 389 325 404 282 389 m 911 185 l 911 532 l 907 532 l 689 185 m 258 -39 l 221 -17 l 836 1024 l 874 1001 "},"Ā":{"ha":940,"x_min":0,"x_max":0,"o":"m 79 0 l 22 0 l 447 983 l 504 983 l 918 0 l 861 0 l 747 275 l 194 275 m 214 321 l 728 321 l 474 936 m 644 1132 l 306 1132 l 306 1174 l 644 1174 "},"ā":{"ha":721,"x_min":0,"x_max":0,"o":"m 304 -18 b 153 30 247 -18 196 -2 b 88 169 109 62 88 108 b 454 382 88 311 210 382 l 546 382 l 546 424 b 494 569 546 488 529 537 b 350 618 460 602 412 618 b 156 542 276 618 211 593 l 128 578 b 353 661 189 633 264 661 b 530 602 428 661 487 641 b 594 426 573 563 594 504 l 594 144 b 606 0 594 85 598 37 l 558 0 b 549 138 552 41 549 87 l 544 138 b 449 21 524 86 492 47 b 304 -18 406 -5 358 -18 m 313 24 b 488 105 391 24 450 51 b 546 304 527 159 546 225 l 546 342 l 468 342 b 138 171 248 342 138 285 b 190 60 138 121 155 84 b 313 24 225 36 266 24 m 538 854 l 199 854 l 199 896 l 538 896 "},"Ă":{"ha":940,"x_min":0,"x_max":0,"o":"m 79 0 l 22 0 l 447 983 l 504 983 l 918 0 l 861 0 l 747 275 l 194 275 m 214 321 l 728 321 l 474 936 m 658 1251 b 598 1120 651 1195 631 1151 b 474 1074 565 1089 524 1074 b 349 1120 424 1074 382 1089 b 292 1251 316 1151 297 1195 l 328 1251 b 379 1151 336 1208 353 1175 b 474 1117 405 1128 437 1117 b 622 1251 554 1117 604 1162 "},"ă":{"ha":721,"x_min":0,"x_max":0,"o":"m 304 -18 b 153 30 247 -18 196 -2 b 88 169 109 62 88 108 b 454 382 88 311 210 382 l 546 382 l 546 424 b 494 569 546 488 529 537 b 350 618 460 602 412 618 b 156 542 276 618 211 593 l 128 578 b 353 661 189 633 264 661 b 530 602 428 661 487 641 b 594 426 573 563 594 504 l 594 144 b 606 0 594 85 598 37 l 558 0 b 549 138 552 41 549 87 l 544 138 b 449 21 524 86 492 47 b 304 -18 406 -5 358 -18 m 313 24 b 488 105 391 24 450 51 b 546 304 527 159 546 225 l 546 342 l 468 342 b 138 171 248 342 138 285 b 190 60 138 121 155 84 b 313 24 225 36 266 24 m 553 974 b 492 842 545 917 525 873 b 368 796 459 811 418 796 b 244 842 318 796 277 811 b 186 974 211 873 192 917 l 222 974 b 274 874 231 930 248 897 b 368 839 300 850 331 839 b 517 974 449 839 498 884 "},"Ą":{"ha":940,"x_min":0,"x_max":0,"o":"m 447 983 l 504 983 l 918 0 b 876 -37 910 -7 896 -20 b 838 -74 857 -54 844 -66 b 782 -187 800 -119 782 -157 b 805 -247 782 -212 790 -232 b 865 -269 820 -262 840 -269 b 954 -232 901 -269 931 -257 l 972 -264 b 854 -310 939 -294 900 -310 b 769 -278 821 -310 793 -299 b 735 -196 746 -258 735 -230 b 768 -101 735 -162 746 -131 b 861 0 790 -72 821 -38 l 747 275 l 194 275 l 79 0 l 22 0 m 214 321 l 728 321 l 474 936 "},"ą":{"ha":721,"x_min":0,"x_max":0,"o":"m 304 -18 b 153 30 247 -18 196 -2 b 88 169 109 62 88 108 b 451 382 88 311 209 382 l 546 382 l 546 424 b 494 569 546 488 529 537 b 350 618 460 602 412 618 b 156 542 276 618 211 593 l 128 578 b 353 661 189 633 264 661 b 530 602 428 661 487 641 b 594 426 573 563 594 504 l 594 144 b 606 0 594 85 598 37 l 601 0 b 507 -106 557 -44 525 -80 b 479 -187 488 -133 479 -160 b 502 -247 479 -212 487 -232 b 563 -269 517 -262 538 -269 b 651 -232 599 -269 628 -257 l 668 -264 b 551 -310 636 -294 597 -310 b 467 -278 518 -310 490 -299 b 432 -196 444 -258 432 -230 b 465 -100 432 -162 443 -131 b 558 0 488 -69 519 -36 b 549 138 552 41 549 87 l 544 138 b 449 21 524 86 492 47 b 304 -18 406 -5 358 -18 m 313 24 b 421 47 353 24 389 31 b 494 108 452 62 477 82 b 533 192 512 134 525 162 b 546 285 542 221 546 252 l 546 342 l 468 342 b 138 171 248 342 138 285 b 190 60 138 121 155 84 b 313 24 225 36 266 24 "},"Ć":{"ha":1004,"x_min":0,"x_max":0,"o":"m 954 132 b 802 16 916 83 866 44 b 599 -26 739 -12 671 -26 b 235 120 451 -26 330 22 b 93 492 141 218 93 342 b 236 863 93 642 141 766 b 599 1010 331 961 452 1010 b 786 974 664 1010 727 998 b 931 875 845 951 894 918 l 893 840 b 764 930 861 878 818 908 b 599 963 710 952 655 963 b 273 826 465 963 357 917 b 147 492 189 736 147 624 b 272 157 147 359 189 248 b 599 21 356 66 464 21 b 777 57 661 21 720 33 b 915 163 834 81 880 116 m 579 1061 l 535 1061 l 676 1261 l 742 1261 "},"ć":{"ha":675,"x_min":0,"x_max":0,"o":"m 596 538 b 415 618 550 591 489 618 b 213 532 332 618 265 589 b 136 321 162 475 136 404 b 213 111 136 238 162 168 b 415 26 265 55 332 26 b 606 101 489 26 553 51 l 636 71 b 415 -18 580 12 506 -18 b 176 77 318 -18 238 14 b 83 321 114 141 83 222 b 176 565 83 419 114 500 b 415 661 238 629 318 661 b 631 569 505 661 577 631 m 407 783 l 363 783 l 504 983 l 569 983 "},"Ĉ":{"ha":1004,"x_min":0,"x_max":0,"o":"m 954 132 b 802 16 916 83 866 44 b 599 -26 739 -12 671 -26 b 235 120 451 -26 330 22 b 93 492 141 218 93 342 b 236 863 93 642 141 766 b 599 1010 331 961 452 1010 b 786 974 664 1010 727 998 b 931 875 845 951 894 918 l 893 840 b 764 930 861 878 818 908 b 599 963 710 952 655 963 b 273 826 465 963 357 917 b 147 492 189 736 147 624 b 272 157 147 359 189 248 b 599 21 356 66 464 21 b 777 57 661 21 720 33 b 915 163 834 81 880 116 m 774 1061 l 724 1061 l 597 1235 l 471 1061 l 421 1061 l 567 1261 l 628 1261 "},"ĉ":{"ha":675,"x_min":0,"x_max":0,"o":"m 596 538 b 415 618 550 591 489 618 b 213 532 332 618 265 589 b 136 321 162 475 136 404 b 213 111 136 238 162 168 b 415 26 265 55 332 26 b 606 101 489 26 553 51 l 636 71 b 415 -18 580 12 506 -18 b 176 77 318 -18 238 14 b 83 321 114 141 83 222 b 176 565 83 419 114 500 b 415 661 238 629 318 661 b 631 569 505 661 577 631 m 590 783 l 540 783 l 414 957 l 288 783 l 238 783 l 383 983 l 444 983 "},"Ċ":{"ha":1004,"x_min":0,"x_max":0,"o":"m 954 132 b 802 16 916 83 866 44 b 599 -26 739 -12 671 -26 b 235 120 451 -26 330 22 b 93 492 141 218 93 342 b 236 863 93 642 141 766 b 599 1010 331 961 452 1010 b 786 974 664 1010 727 998 b 931 875 845 951 894 918 l 893 840 b 764 930 861 878 818 908 b 599 963 710 952 655 963 b 273 826 465 963 357 917 b 147 492 189 736 147 624 b 272 157 147 359 189 248 b 599 21 356 66 464 21 b 777 57 661 21 720 33 b 915 163 834 81 880 116 m 636 1189 b 623 1156 636 1176 632 1165 b 593 1143 614 1147 604 1143 b 563 1156 581 1143 571 1147 b 550 1189 554 1165 550 1176 b 563 1220 550 1201 554 1211 b 593 1233 572 1229 582 1233 b 623 1220 604 1233 614 1229 b 636 1189 632 1211 636 1201 "},"ċ":{"ha":675,"x_min":0,"x_max":0,"o":"m 596 538 b 415 618 550 591 489 618 b 213 532 332 618 265 589 b 136 321 162 475 136 404 b 213 111 136 238 162 168 b 415 26 265 55 332 26 b 606 101 489 26 553 51 l 636 71 b 415 -18 580 12 506 -18 b 176 77 318 -18 238 14 b 83 321 114 141 83 222 b 176 565 83 419 114 500 b 415 661 238 629 318 661 b 631 569 505 661 577 631 m 451 911 b 438 878 451 898 447 887 b 408 865 429 870 419 865 b 378 878 397 865 387 870 b 365 911 370 887 365 898 b 378 942 365 923 370 934 b 408 956 387 951 397 956 b 438 942 419 956 429 951 b 451 911 447 934 451 923 "},"Č":{"ha":1004,"x_min":0,"x_max":0,"o":"m 954 132 b 802 16 916 83 866 44 b 599 -26 739 -12 671 -26 b 235 120 451 -26 330 22 b 93 492 141 218 93 342 b 236 863 93 642 141 766 b 599 1010 331 961 452 1010 b 786 974 664 1010 727 998 b 931 875 845 951 894 918 l 893 840 b 764 930 861 878 818 908 b 599 963 710 952 655 963 b 273 826 465 963 357 917 b 147 492 189 736 147 624 b 272 157 147 359 189 248 b 599 21 356 66 464 21 b 777 57 661 21 720 33 b 915 163 834 81 880 116 m 628 1061 l 567 1061 l 421 1261 l 471 1261 l 597 1088 l 724 1261 l 774 1261 "},"č":{"ha":675,"x_min":0,"x_max":0,"o":"m 596 538 b 415 618 550 591 489 618 b 213 532 332 618 265 589 b 136 321 162 475 136 404 b 213 111 136 238 162 168 b 415 26 265 55 332 26 b 606 101 489 26 553 51 l 636 71 b 415 -18 580 12 506 -18 b 176 77 318 -18 238 14 b 83 321 114 141 83 222 b 176 565 83 419 114 500 b 415 661 238 629 318 661 b 631 569 505 661 577 631 m 442 783 l 381 783 l 235 983 l 285 983 l 411 810 l 538 983 l 588 983 "},"Ď":{"ha":1064,"x_min":0,"x_max":0,"o":"m 142 983 l 436 983 b 819 858 590 983 717 941 b 971 492 920 774 971 652 b 928 274 971 410 956 337 b 810 119 899 210 860 158 b 641 30 761 79 704 50 b 436 0 578 10 509 0 l 142 0 m 194 47 l 422 47 b 781 164 571 47 691 86 b 917 492 872 242 917 351 b 781 819 917 632 872 742 b 422 936 691 897 571 936 l 194 936 m 521 1061 l 460 1061 l 314 1261 l 364 1261 l 490 1088 l 617 1261 l 667 1261 "},"ď":{"ha":917,"x_min":0,"x_max":0,"o":"m 683 153 b 569 26 656 98 618 56 b 408 -18 519 -3 466 -18 b 174 78 313 -18 235 14 b 83 321 114 143 83 224 b 175 564 83 418 114 499 b 408 661 236 629 314 661 b 569 616 466 661 519 646 b 683 488 618 586 656 543 l 686 488 l 686 1050 l 736 1050 l 736 0 l 686 0 l 686 153 l 683 153 m 136 321 b 211 110 136 238 161 167 b 411 25 261 53 328 25 b 608 111 490 25 556 54 b 688 321 661 169 688 238 b 608 531 688 403 661 473 b 411 618 556 589 490 618 b 212 532 329 618 262 589 b 136 321 161 475 136 404 m 861 726 l 821 726 l 897 983 l 950 983 "},"Đ":{"ha":1064,"x_min":0,"x_max":0,"o":"m 139 493 l 31 493 l 31 535 l 139 535 l 139 983 l 432 983 b 815 858 586 983 713 941 b 967 492 916 774 967 652 b 924 274 967 410 952 337 b 806 119 895 210 856 158 b 637 30 757 79 700 50 b 432 0 573 10 505 0 l 139 0 m 192 47 l 418 47 b 777 164 568 47 688 86 b 911 492 866 242 911 351 b 777 819 911 632 866 742 b 418 936 688 897 568 936 l 192 936 l 192 535 l 560 535 l 560 493 l 192 493 "},"đ":{"ha":874,"x_min":0,"x_max":0,"o":"m 686 831 l 686 1050 l 736 1050 l 736 831 l 828 831 l 828 792 l 736 792 l 736 0 l 686 0 l 686 153 l 683 153 b 569 26 656 98 618 56 b 408 -18 519 -3 466 -18 b 174 78 313 -18 235 14 b 83 321 114 143 83 224 b 175 564 83 418 114 499 b 408 661 236 629 314 661 b 569 616 466 661 519 646 b 683 488 618 586 656 543 l 686 488 l 686 792 l 415 792 l 415 831 m 136 321 b 211 110 136 238 161 167 b 411 25 261 53 328 25 b 611 111 492 25 558 54 b 690 321 664 169 690 238 b 611 532 690 404 664 475 b 411 618 558 589 492 618 b 212 532 329 618 262 589 b 136 321 161 475 136 404 "},"Ē":{"ha":821,"x_min":0,"x_max":0,"o":"m 193 47 l 746 47 l 746 0 l 142 0 l 142 983 l 726 983 l 726 936 l 193 936 l 193 533 l 693 533 l 693 488 l 193 488 m 608 1132 l 269 1132 l 269 1174 l 608 1174 "},"ē":{"ha":779,"x_min":0,"x_max":0,"o":"m 646 360 b 574 547 644 437 620 499 b 394 618 528 594 469 618 b 253 573 341 618 294 603 b 165 471 212 543 183 509 b 136 360 147 433 137 396 m 407 -18 b 174 79 313 -18 235 14 b 83 326 114 144 83 226 b 173 566 83 423 113 503 b 394 661 233 629 306 661 b 617 569 490 661 564 631 b 696 349 669 508 696 435 b 695 333 696 346 696 341 b 694 318 695 326 694 321 l 135 318 b 209 113 136 239 160 171 b 407 25 258 54 324 25 b 636 139 498 25 574 63 l 671 110 b 407 -18 604 25 516 -18 m 571 854 l 232 854 l 232 896 l 571 896 "},"Ĕ":{"ha":821,"x_min":0,"x_max":0,"o":"m 193 47 l 746 47 l 746 0 l 142 0 l 142 983 l 726 983 l 726 936 l 193 936 l 193 533 l 693 533 l 693 488 l 193 488 m 622 1251 b 562 1120 615 1195 595 1151 b 438 1074 529 1089 488 1074 b 313 1120 388 1074 346 1089 b 256 1251 280 1151 261 1195 l 292 1251 b 343 1151 300 1208 317 1175 b 438 1117 369 1128 400 1117 b 586 1251 518 1117 568 1162 "},"ĕ":{"ha":779,"x_min":0,"x_max":0,"o":"m 646 360 b 574 547 644 437 620 499 b 394 618 528 594 469 618 b 253 573 341 618 294 603 b 165 471 212 543 183 509 b 136 360 147 433 137 396 m 407 -18 b 174 79 313 -18 235 14 b 83 326 114 144 83 226 b 173 566 83 423 113 503 b 394 661 233 629 306 661 b 617 569 490 661 564 631 b 696 349 669 508 696 435 b 695 333 696 346 696 341 b 694 318 695 326 694 321 l 135 318 b 209 113 136 239 160 171 b 407 25 258 54 324 25 b 636 139 498 25 574 63 l 671 110 b 407 -18 604 25 516 -18 m 586 974 b 526 842 579 917 559 873 b 401 796 493 811 451 796 b 277 842 351 796 310 811 b 219 974 244 873 225 917 l 256 974 b 307 874 264 930 281 897 b 401 839 333 850 364 839 b 550 974 482 839 531 884 "},"Ė":{"ha":821,"x_min":0,"x_max":0,"o":"m 193 47 l 746 47 l 746 0 l 142 0 l 142 983 l 726 983 l 726 936 l 193 936 l 193 533 l 693 533 l 693 488 l 193 488 m 483 1189 b 470 1156 483 1176 479 1165 b 440 1143 461 1147 451 1143 b 410 1156 428 1143 418 1147 b 397 1189 401 1165 397 1176 b 410 1220 397 1201 402 1211 b 440 1233 419 1229 429 1233 b 470 1220 451 1233 461 1229 b 483 1189 479 1211 483 1201 "},"ė":{"ha":779,"x_min":0,"x_max":0,"o":"m 646 360 b 574 547 644 437 620 499 b 394 618 528 594 469 618 b 253 573 341 618 294 603 b 165 471 212 543 183 509 b 136 360 147 433 137 396 m 407 -18 b 174 79 313 -18 235 14 b 83 326 114 144 83 226 b 173 566 83 423 113 503 b 394 661 233 629 306 661 b 617 569 490 661 564 631 b 696 349 669 508 696 435 b 695 333 696 346 696 341 b 694 318 695 326 694 321 l 135 318 b 209 113 136 239 160 171 b 407 25 258 54 324 25 b 636 139 498 25 574 63 l 671 110 b 407 -18 604 25 516 -18 m 444 911 b 431 878 444 898 440 887 b 401 865 422 870 413 865 b 371 878 389 865 379 870 b 358 911 363 887 358 898 b 372 942 358 923 363 934 b 401 956 380 951 390 956 b 431 942 413 956 422 951 b 444 911 440 934 444 923 "},"Ę":{"ha":821,"x_min":0,"x_max":0,"o":"m 793 -264 b 676 -310 761 -294 722 -310 b 592 -278 643 -310 615 -299 b 557 -196 569 -258 557 -230 b 590 -100 557 -162 568 -131 b 683 0 613 -69 644 -36 l 142 0 l 142 983 l 726 983 l 726 936 l 193 936 l 193 533 l 693 533 l 693 488 l 193 488 l 193 47 l 746 47 l 746 0 l 726 0 b 632 -106 682 -44 650 -79 b 604 -187 613 -132 604 -160 b 627 -247 604 -212 612 -232 b 688 -269 642 -262 663 -269 b 776 -232 722 -269 751 -257 "},"ę":{"ha":779,"x_min":0,"x_max":0,"o":"m 440 -310 b 356 -278 407 -310 379 -299 b 321 -196 332 -258 321 -230 b 428 -18 321 -143 356 -84 l 396 -18 b 171 83 304 -15 229 18 b 83 326 113 147 83 228 b 173 566 83 423 113 503 b 394 661 233 629 306 661 b 617 570 490 661 564 631 b 696 350 669 509 696 436 b 694 318 696 332 695 322 l 135 318 b 209 113 136 239 160 171 b 407 25 258 54 324 25 b 633 140 502 25 578 63 l 671 110 b 478 -11 620 43 556 3 b 392 -109 438 -51 409 -84 b 367 -187 375 -134 367 -161 b 390 -247 367 -212 375 -232 b 451 -269 406 -262 426 -269 b 539 -232 487 -269 516 -257 l 557 -264 b 440 -310 524 -294 485 -310 m 646 360 b 574 547 644 437 620 499 b 394 618 528 594 469 618 b 253 573 341 618 294 603 b 165 471 212 543 183 509 b 136 360 147 433 137 396 "},"Ě":{"ha":821,"x_min":0,"x_max":0,"o":"m 193 47 l 746 47 l 746 0 l 142 0 l 142 983 l 726 983 l 726 936 l 193 936 l 193 533 l 693 533 l 693 488 l 193 488 m 469 1061 l 408 1061 l 263 1261 l 313 1261 l 439 1088 l 565 1261 l 615 1261 "},"ě":{"ha":779,"x_min":0,"x_max":0,"o":"m 646 360 b 574 547 644 437 620 499 b 394 618 528 594 469 618 b 253 573 341 618 294 603 b 165 471 212 543 183 509 b 136 360 147 433 137 396 m 407 -18 b 174 79 313 -18 235 14 b 83 326 114 144 83 226 b 173 566 83 423 113 503 b 394 661 233 629 306 661 b 617 569 490 661 564 631 b 696 349 669 508 696 435 b 695 333 696 346 696 341 b 694 318 695 326 694 321 l 135 318 b 209 113 136 239 160 171 b 407 25 258 54 324 25 b 636 139 498 25 574 63 l 671 110 b 407 -18 604 25 516 -18 m 431 783 l 369 783 l 224 983 l 274 983 l 400 810 l 526 983 l 576 983 "},"Ĝ":{"ha":1097,"x_min":0,"x_max":0,"o":"m 907 854 b 772 935 872 888 827 915 b 606 964 718 954 662 964 b 274 828 469 964 359 919 b 147 493 190 737 147 625 b 274 156 147 360 189 247 b 613 19 358 65 471 19 b 915 88 725 19 826 42 l 915 450 l 668 450 l 668 494 l 967 494 l 967 61 b 610 -26 867 3 748 -26 b 237 121 457 -26 333 23 b 93 493 141 219 93 343 b 237 864 93 643 141 767 b 606 1010 333 961 456 1010 b 942 890 740 1010 852 970 m 779 1061 l 729 1061 l 603 1235 l 476 1061 l 426 1061 l 572 1261 l 633 1261 "},"ĝ":{"ha":872,"x_min":0,"x_max":0,"o":"m 151 -186 b 411 -299 224 -261 310 -299 b 622 -208 509 -299 580 -268 b 686 29 665 -147 686 -68 l 686 158 l 683 158 b 572 32 659 105 622 63 b 408 -14 521 1 467 -14 b 174 81 313 -14 235 18 b 83 322 114 145 83 225 b 175 564 83 419 114 499 b 408 661 236 629 314 661 b 569 615 466 661 519 646 b 683 488 618 585 656 542 l 686 488 l 686 642 l 736 642 l 736 26 b 720 -110 736 -23 731 -68 b 669 -226 709 -151 692 -190 b 567 -312 645 -262 611 -291 b 410 -343 522 -333 470 -343 b 118 -219 290 -343 193 -302 m 136 322 b 212 115 136 241 161 172 b 411 29 262 58 329 29 b 609 115 491 29 557 58 b 688 324 661 172 688 241 b 608 532 688 405 661 475 b 411 618 556 589 490 618 b 212 532 329 618 262 589 b 136 322 161 475 136 405 m 603 783 l 553 783 l 426 957 l 300 783 l 250 783 l 396 983 l 457 983 "},"Ğ":{"ha":1097,"x_min":0,"x_max":0,"o":"m 907 854 b 772 935 872 888 827 915 b 606 964 718 954 662 964 b 274 828 469 964 359 919 b 147 493 190 737 147 625 b 274 156 147 360 189 247 b 613 19 358 65 471 19 b 915 88 725 19 826 42 l 915 450 l 668 450 l 668 494 l 967 494 l 967 61 b 610 -26 867 3 748 -26 b 237 121 457 -26 333 23 b 93 493 141 219 93 343 b 237 864 93 643 141 767 b 606 1010 333 961 456 1010 b 942 890 740 1010 852 970 m 786 1251 b 726 1120 779 1195 759 1151 b 601 1074 693 1089 651 1074 b 477 1120 551 1074 510 1089 b 419 1251 444 1151 425 1195 l 456 1251 b 507 1151 464 1208 481 1175 b 601 1117 533 1128 564 1117 b 750 1251 682 1117 731 1162 "},"ğ":{"ha":872,"x_min":0,"x_max":0,"o":"m 151 -186 b 411 -299 224 -261 310 -299 b 622 -208 509 -299 580 -268 b 686 29 665 -147 686 -68 l 686 158 l 683 158 b 572 32 659 105 622 63 b 408 -14 521 1 467 -14 b 174 81 313 -14 235 18 b 83 322 114 145 83 225 b 175 564 83 419 114 499 b 408 661 236 629 314 661 b 569 615 466 661 519 646 b 683 488 618 585 656 542 l 686 488 l 686 642 l 736 642 l 736 26 b 720 -110 736 -23 731 -68 b 669 -226 709 -151 692 -190 b 567 -312 645 -262 611 -291 b 410 -343 522 -333 470 -343 b 118 -219 290 -343 193 -302 m 136 322 b 212 115 136 241 161 172 b 411 29 262 58 329 29 b 609 115 491 29 557 58 b 688 324 661 172 688 241 b 608 532 688 405 661 475 b 411 618 556 589 490 618 b 212 532 329 618 262 589 b 136 322 161 475 136 405 m 610 974 b 549 842 602 917 582 873 b 425 796 516 811 475 796 b 301 842 375 796 334 811 b 243 974 268 873 249 917 l 279 974 b 331 874 288 930 305 897 b 425 839 356 850 388 839 b 574 974 506 839 555 884 "},"Ġ":{"ha":1097,"x_min":0,"x_max":0,"o":"m 907 854 b 772 935 872 888 827 915 b 606 964 718 954 662 964 b 274 828 469 964 359 919 b 147 493 190 737 147 625 b 274 156 147 360 189 247 b 613 19 358 65 471 19 b 915 88 725 19 826 42 l 915 450 l 668 450 l 668 494 l 967 494 l 967 61 b 610 -26 867 3 748 -26 b 237 121 457 -26 333 23 b 93 493 141 219 93 343 b 237 864 93 643 141 767 b 606 1010 333 961 456 1010 b 942 890 740 1010 852 970 m 642 1189 b 628 1156 642 1176 637 1165 b 599 1143 620 1147 610 1143 b 568 1156 587 1143 576 1147 b 556 1189 560 1165 556 1176 b 569 1220 556 1201 560 1211 b 599 1233 578 1229 588 1233 b 628 1220 610 1233 620 1229 b 642 1189 637 1211 642 1201 "},"ġ":{"ha":872,"x_min":0,"x_max":0,"o":"m 151 -186 b 411 -299 224 -261 310 -299 b 622 -208 509 -299 580 -268 b 686 29 665 -147 686 -68 l 686 158 l 683 158 b 572 32 659 105 622 63 b 408 -14 521 1 467 -14 b 174 81 313 -14 235 18 b 83 322 114 145 83 225 b 175 564 83 419 114 499 b 408 661 236 629 314 661 b 569 615 466 661 519 646 b 683 488 618 585 656 542 l 686 488 l 686 642 l 736 642 l 736 26 b 720 -110 736 -23 731 -68 b 669 -226 709 -151 692 -190 b 567 -312 645 -262 611 -291 b 410 -343 522 -333 470 -343 b 118 -219 290 -343 193 -302 m 136 322 b 212 115 136 241 161 172 b 411 29 262 58 329 29 b 609 115 491 29 557 58 b 688 324 661 172 688 241 b 608 532 688 405 661 475 b 411 618 556 589 490 618 b 212 532 329 618 262 589 b 136 322 161 475 136 405 m 467 911 b 453 878 467 898 462 887 b 424 865 445 870 435 865 b 393 878 412 865 401 870 b 381 911 385 887 381 898 b 394 942 381 923 385 934 b 424 956 403 951 413 956 b 453 942 435 956 445 951 b 467 911 462 934 467 923 "},"Ģ":{"ha":1099,"x_min":0,"x_max":0,"o":"m 907 854 b 772 935 872 888 827 915 b 606 964 718 954 662 964 b 274 828 469 964 359 919 b 147 493 190 737 147 625 b 274 156 147 360 189 247 b 613 19 358 65 471 19 b 915 88 725 19 826 42 l 915 450 l 668 450 l 668 494 l 967 494 l 967 61 b 610 -26 867 3 748 -26 b 237 121 457 -26 333 23 b 93 493 141 219 93 343 b 237 864 93 643 141 767 b 606 1010 333 961 456 1010 b 942 890 740 1010 852 970 m 558 -317 l 518 -317 l 593 -60 l 647 -60 "},"ģ":{"ha":872,"x_min":0,"x_max":0,"o":"m 151 -186 b 411 -299 224 -261 310 -299 b 622 -208 509 -299 580 -268 b 686 29 665 -147 686 -68 l 686 158 l 683 158 b 572 32 659 105 622 63 b 408 -14 521 1 467 -14 b 174 81 313 -14 235 18 b 83 322 114 145 83 225 b 175 564 83 419 114 499 b 408 661 236 629 314 661 b 569 615 466 661 519 646 b 683 488 618 585 656 542 l 686 488 l 686 642 l 736 642 l 736 26 b 720 -110 736 -23 731 -68 b 669 -226 709 -151 692 -190 b 567 -312 645 -262 611 -291 b 410 -343 522 -333 470 -343 b 118 -219 290 -343 193 -302 m 136 322 b 212 115 136 241 161 172 b 411 29 262 58 329 29 b 609 115 491 29 557 58 b 688 324 661 172 688 241 b 608 532 688 405 661 475 b 411 618 556 589 490 618 b 212 532 329 618 262 589 b 136 322 161 475 136 405 m 474 1040 l 515 1040 l 439 783 l 386 783 "},"Ĥ":{"ha":1011,"x_min":0,"x_max":0,"o":"m 142 983 l 194 983 l 194 533 l 817 533 l 817 983 l 868 983 l 868 0 l 817 0 l 817 486 l 194 486 l 194 0 l 142 0 m 682 1061 l 632 1061 l 506 1235 l 379 1061 l 329 1061 l 475 1261 l 536 1261 "},"ĥ":{"ha":796,"x_min":0,"x_max":0,"o":"m 190 493 b 285 616 209 545 240 586 b 432 661 329 646 378 661 b 610 585 513 661 573 636 b 667 390 648 534 667 469 l 667 0 l 617 0 l 617 376 b 608 463 617 408 614 437 b 578 540 602 490 592 515 b 519 597 565 564 545 583 b 424 618 492 611 461 618 b 255 536 356 618 300 591 b 188 304 210 481 188 404 l 188 0 l 138 0 l 138 1050 l 188 1050 l 188 493 m 572 1106 l 522 1106 l 396 1279 l 269 1106 l 219 1106 l 365 1306 l 426 1306 "},"Ħ":{"ha":1011,"x_min":0,"x_max":0,"o":"m 142 983 l 194 983 l 194 733 l 817 733 l 817 983 l 868 983 l 868 0 l 817 0 l 817 486 l 194 486 l 194 0 l 142 0 m 817 533 l 817 694 l 194 694 l 194 533 "},"ħ":{"ha":796,"x_min":0,"x_max":0,"o":"m 138 831 l 138 1050 l 188 1050 l 188 831 l 458 831 l 458 792 l 188 792 l 188 493 l 190 493 b 285 616 209 545 240 586 b 432 661 329 646 378 661 b 610 585 513 661 573 636 b 667 390 648 534 667 469 l 667 0 l 617 0 l 617 376 b 608 463 617 408 614 437 b 578 540 602 490 592 515 b 519 597 565 564 545 583 b 424 618 492 611 461 618 b 256 539 357 618 301 592 b 188 324 210 486 188 414 l 188 0 l 138 0 l 138 792 l 44 792 l 44 831 "},"Ĩ":{"ha":336,"x_min":0,"x_max":0,"o":"m 194 0 l 142 0 l 142 983 l 194 983 m -12 1093 b 19 1175 -8 1127 3 1155 b 81 1206 35 1195 56 1206 b 174 1172 106 1206 137 1194 b 258 1139 211 1150 239 1139 b 318 1207 291 1139 311 1162 l 353 1207 b 258 1097 343 1134 311 1097 b 167 1131 234 1097 204 1108 b 81 1164 131 1153 102 1164 b 21 1093 50 1164 30 1140 "},"ĩ":{"ha":324,"x_min":0,"x_max":0,"o":"m 188 0 l 138 0 l 138 642 l 188 642 m -18 815 b 13 897 -13 850 -3 877 b 75 928 29 918 50 928 b 168 894 99 928 130 917 b 253 861 205 872 233 861 b 313 929 285 861 305 884 l 347 929 b 253 819 337 856 306 819 b 161 853 229 819 198 831 b 75 886 125 875 96 886 b 15 815 44 886 25 863 "},"Ī":{"ha":336,"x_min":0,"x_max":0,"o":"m 194 0 l 142 0 l 142 983 l 194 983 m 339 1132 l 0 1132 l 0 1174 l 339 1174 "},"ī":{"ha":324,"x_min":0,"x_max":0,"o":"m 188 0 l 138 0 l 138 642 l 188 642 m 333 854 l -6 854 l -6 896 l 333 896 "},"Ĭ":{"ha":336,"x_min":0,"x_max":0,"o":"m 194 0 l 142 0 l 142 983 l 194 983 m 351 1251 b 291 1120 344 1195 324 1151 b 167 1074 258 1089 217 1074 b 42 1120 117 1074 75 1089 b -15 1251 9 1151 -10 1195 l 21 1251 b 72 1151 29 1208 46 1175 b 167 1117 98 1128 130 1117 b 315 1251 247 1117 297 1162 "},"ĭ":{"ha":324,"x_min":0,"x_max":0,"o":"m 188 0 l 138 0 l 138 642 l 188 642 m 346 974 b 285 842 338 917 318 873 b 161 796 253 811 211 796 b 37 842 111 796 70 811 b -21 974 4 873 -15 917 l 15 974 b 67 874 24 930 41 897 b 161 839 93 850 124 839 b 310 974 242 839 291 884 "},"Į":{"ha":336,"x_min":0,"x_max":0,"o":"m 142 -310 b 57 -278 108 -310 80 -299 b 22 -196 34 -258 22 -230 b 56 -100 22 -162 33 -131 b 149 0 78 -69 109 -36 l 142 0 l 142 983 l 194 983 l 194 0 b 97 -109 148 -46 116 -83 b 69 -187 79 -135 69 -162 b 92 -247 69 -212 77 -232 b 153 -269 108 -262 128 -269 b 242 -232 189 -269 219 -257 l 258 -264 b 142 -310 226 -294 187 -310 "},"į":{"ha":324,"x_min":0,"x_max":0,"o":"m 136 -310 b 51 -278 103 -310 75 -299 b 17 -196 28 -258 17 -230 b 50 -101 17 -163 28 -132 b 143 0 72 -71 103 -37 l 138 0 l 138 642 l 188 642 l 186 0 b 92 -106 142 -44 110 -80 b 64 -187 73 -133 64 -160 b 88 -247 64 -212 72 -232 b 149 -269 103 -262 124 -269 b 236 -232 184 -269 213 -257 l 254 -264 b 136 -310 221 -294 181 -310 m 163 865 b 132 878 150 865 140 870 b 119 911 124 887 119 898 b 133 942 119 923 124 934 b 163 956 141 951 151 956 b 192 942 174 956 183 951 b 204 911 200 934 204 923 b 192 878 204 898 200 887 b 163 865 183 870 174 865 "},"İ":{"ha":336,"x_min":0,"x_max":0,"o":"m 194 0 l 142 0 l 142 983 l 194 983 m 213 1189 b 199 1156 213 1176 208 1165 b 169 1143 191 1147 181 1143 b 140 1156 158 1143 148 1147 b 126 1189 131 1165 126 1176 b 140 1220 126 1201 131 1211 b 169 1233 148 1229 158 1233 b 199 1220 181 1233 191 1229 b 213 1189 208 1211 213 1201 "},"ı":{"ha":324,"x_min":0,"x_max":0,"o":"m 188 0 l 138 0 l 138 642 l 188 642 "},"Ĳ":{"ha":993,"x_min":0,"x_max":0,"o":"m 194 0 l 142 0 l 142 983 l 194 983 m 407 160 b 481 59 423 118 447 84 b 600 21 515 34 555 21 b 756 91 671 21 723 44 b 806 278 789 138 806 200 l 806 983 l 858 983 l 858 272 b 795 58 858 184 837 113 b 603 -25 753 3 689 -25 b 448 22 543 -25 491 -9 b 360 143 405 54 375 94 "},"ĳ":{"ha":650,"x_min":0,"x_max":0,"o":"m 306 -286 b 349 -292 326 -290 340 -292 b 410 -279 374 -292 394 -287 b 445 -241 427 -271 438 -258 b 459 -191 452 -224 457 -207 b 463 -131 461 -175 463 -155 l 463 642 l 514 642 l 514 -133 b 478 -284 514 -200 502 -250 b 349 -335 455 -318 412 -335 b 297 -328 331 -335 314 -332 m 138 642 l 188 642 l 188 0 l 138 0 m 163 865 b 132 878 150 865 140 870 b 119 911 124 887 119 898 b 133 942 119 923 124 934 b 163 956 141 951 151 956 b 192 942 174 956 183 951 b 204 911 200 934 204 923 b 192 878 204 898 200 887 b 163 865 183 870 174 865 m 489 865 b 459 878 478 865 468 870 b 446 911 450 887 446 898 b 459 942 446 923 450 934 b 489 956 468 951 478 956 b 518 942 500 956 510 951 b 531 911 526 934 531 923 b 518 878 531 898 526 887 b 489 865 510 870 500 865 "},"Ĵ":{"ha":672,"x_min":0,"x_max":0,"o":"m 86 160 b 160 59 101 118 125 84 b 278 21 194 34 233 21 b 435 91 349 21 401 44 b 485 278 468 138 485 200 l 485 983 l 536 983 l 536 272 b 473 58 536 184 515 113 b 282 -25 431 3 367 -25 b 126 22 222 -25 170 -9 b 39 143 83 54 54 94 m 685 1061 l 635 1061 l 508 1235 l 382 1061 l 332 1061 l 478 1261 l 539 1261 "},"ĵ":{"ha":325,"x_min":0,"x_max":0,"o":"m -19 -286 b 22 -292 -1 -290 13 -292 b 75 -282 43 -292 60 -288 b 109 -259 90 -275 101 -268 b 128 -222 117 -250 123 -238 b 136 -179 132 -206 135 -192 b 138 -131 137 -166 138 -150 l 138 642 l 188 642 l 188 -133 b 152 -284 188 -200 176 -250 b 24 -335 128 -318 86 -335 b -28 -328 6 -335 -11 -332 m 338 783 l 288 783 l 161 957 l 35 783 l -15 783 l 131 983 l 192 983 "},"Ķ":{"ha":811,"x_min":0,"x_max":0,"o":"m 194 535 l 682 983 l 757 983 l 258 533 l 782 0 l 707 0 l 194 528 l 194 0 l 142 0 l 142 983 l 194 983 m 389 -319 l 347 -319 l 424 -62 l 476 -62 "},"ķ":{"ha":646,"x_min":0,"x_max":0,"o":"m 188 349 l 190 349 l 511 642 l 583 642 l 249 346 l 619 0 l 546 0 l 190 339 l 188 339 l 188 0 l 138 0 l 138 1050 l 188 1050 m 308 -318 l 268 -318 l 343 -61 l 397 -61 "},"ĸ":{"ha":646,"x_min":0,"x_max":0,"o":"m 188 349 l 190 349 l 511 642 l 583 642 l 249 346 l 619 0 l 546 0 l 190 339 l 188 339 l 188 0 l 138 0 l 138 642 l 188 642 "},"Ĺ":{"ha":697,"x_min":0,"x_max":0,"o":"m 194 47 l 674 47 l 674 0 l 142 0 l 142 983 l 194 983 m 189 1061 l 144 1061 l 286 1261 l 351 1261 "},"ĺ":{"ha":325,"x_min":0,"x_max":0,"o":"m 188 0 l 138 0 l 138 1050 l 188 1050 m 183 1100 l 139 1100 l 281 1300 l 346 1300 "},"Ļ":{"ha":697,"x_min":0,"x_max":0,"o":"m 194 47 l 674 47 l 674 0 l 142 0 l 142 983 l 194 983 m 356 -319 l 315 -319 l 392 -62 l 444 -62 "},"ļ":{"ha":325,"x_min":0,"x_max":0,"o":"m 188 0 l 138 0 l 138 1050 l 188 1050 m 122 -319 l 82 -319 l 157 -62 l 211 -62 "},"Ľ":{"ha":697,"x_min":0,"x_max":0,"o":"m 194 47 l 674 47 l 674 0 l 142 0 l 142 983 l 194 983 m 346 726 l 306 726 l 381 983 l 433 983 "},"ľ":{"ha":361,"x_min":0,"x_max":0,"o":"m 188 0 l 138 0 l 138 1050 l 188 1050 m 306 726 l 265 726 l 342 983 l 394 983 "},"Ŀ":{"ha":697,"x_min":0,"x_max":0,"o":"m 194 47 l 674 47 l 674 0 l 142 0 l 142 983 l 194 983 m 454 606 b 441 573 454 593 450 582 b 411 560 432 564 422 560 b 381 573 400 560 390 564 b 368 606 372 582 368 593 b 381 637 368 618 372 628 b 411 650 390 646 400 650 b 441 637 422 650 432 646 b 454 606 450 628 454 618 "},"ŀ":{"ha":367,"x_min":0,"x_max":0,"o":"m 188 0 l 138 0 l 138 1050 l 188 1050 m 358 647 b 345 615 358 634 354 623 b 315 601 336 606 326 601 b 285 615 303 601 293 606 b 272 647 276 623 272 634 b 285 678 272 659 277 670 b 315 692 294 687 304 692 b 345 678 326 692 336 687 b 358 647 354 670 358 659 "},"Ł":{"ha":697,"x_min":0,"x_max":0,"o":"m 194 446 l 486 704 l 486 650 l 194 389 l 194 47 l 674 47 l 674 0 l 142 0 l 142 351 l 44 264 l 44 319 l 142 407 l 142 983 l 194 983 "},"ł":{"ha":325,"x_min":0,"x_max":0,"o":"m 190 586 l 296 683 l 296 628 l 190 529 l 190 0 l 142 0 l 142 489 l 44 396 l 44 454 l 142 546 l 142 1050 l 190 1050 "},"Ń":{"ha":1074,"x_min":0,"x_max":0,"o":"m 876 72 l 879 72 l 879 983 l 932 983 l 932 0 l 863 0 l 197 914 l 194 914 l 194 0 l 142 0 l 142 983 l 211 983 m 544 1061 l 500 1061 l 642 1261 l 707 1261 "},"ń":{"ha":799,"x_min":0,"x_max":0,"o":"m 182 642 b 188 492 186 595 188 545 l 190 492 b 285 615 209 544 240 585 b 431 661 329 646 378 661 b 611 584 512 661 572 635 b 669 390 650 533 669 468 l 669 0 l 619 0 l 619 376 b 575 549 619 445 605 502 b 426 618 545 595 496 618 b 258 539 360 618 304 592 b 190 324 213 486 190 414 l 190 0 l 139 0 l 139 486 b 133 642 139 556 137 608 m 406 783 l 361 783 l 503 983 l 568 983 "},"Ņ":{"ha":1074,"x_min":0,"x_max":0,"o":"m 876 72 l 879 72 l 879 983 l 932 983 l 932 0 l 863 0 l 197 914 l 194 914 l 194 0 l 142 0 l 142 983 l 211 983 m 481 -319 l 439 -319 l 515 -62 l 568 -62 "},"ņ":{"ha":799,"x_min":0,"x_max":0,"o":"m 182 642 b 188 492 186 595 188 545 l 190 492 b 285 615 209 544 240 585 b 431 661 329 646 378 661 b 611 584 512 661 572 635 b 669 390 650 533 669 468 l 669 0 l 619 0 l 619 376 b 575 549 619 445 605 502 b 426 618 545 595 496 618 b 258 539 360 618 304 592 b 190 324 213 486 190 414 l 190 0 l 139 0 l 139 486 b 133 642 139 556 137 608 m 358 -321 l 318 -321 l 393 -64 l 447 -64 "},"Ň":{"ha":1074,"x_min":0,"x_max":0,"o":"m 876 72 l 879 72 l 879 983 l 932 983 l 932 0 l 863 0 l 197 914 l 194 914 l 194 0 l 142 0 l 142 983 l 211 983 m 568 1061 l 507 1061 l 361 1261 l 411 1261 l 538 1088 l 664 1261 l 714 1261 "},"ň":{"ha":799,"x_min":0,"x_max":0,"o":"m 182 642 b 188 492 186 595 188 545 l 190 492 b 285 615 209 544 240 585 b 431 661 329 646 378 661 b 611 584 512 661 572 635 b 669 390 650 533 669 468 l 669 0 l 619 0 l 619 376 b 575 549 619 445 605 502 b 426 618 545 595 496 618 b 258 539 360 618 304 592 b 190 324 213 486 190 414 l 190 0 l 139 0 l 139 486 b 133 642 139 556 137 608 m 438 783 l 376 783 l 231 983 l 281 983 l 407 810 l 533 983 l 583 983 "},"ŉ":{"ha":799,"x_min":0,"x_max":0,"o":"m 182 642 b 188 492 186 595 188 545 l 190 492 b 285 615 209 544 240 585 b 431 661 329 646 378 661 b 611 584 512 661 572 635 b 669 390 650 533 669 468 l 669 0 l 619 0 l 619 376 b 575 549 619 445 605 502 b 426 618 545 595 496 618 b 258 539 360 618 304 592 b 190 324 213 486 190 414 l 190 0 l 139 0 l 139 486 b 133 642 139 556 137 608 m 85 747 l 44 747 l 121 1004 l 174 1004 "},"Ŋ":{"ha":1074,"x_min":0,"x_max":0,"o":"m 142 983 l 211 983 l 876 83 l 879 83 l 879 983 l 932 983 l 932 -133 b 897 -284 932 -200 920 -250 b 767 -335 873 -318 830 -335 b 715 -328 749 -335 732 -332 l 724 -286 b 767 -292 744 -290 758 -292 b 828 -279 792 -292 812 -287 b 863 -241 845 -271 856 -258 b 877 -191 870 -224 875 -207 b 881 -131 879 -175 881 -155 l 881 -14 l 197 914 l 194 914 l 194 0 l 142 0 "},"ŋ":{"ha":799,"x_min":0,"x_max":0,"o":"m 463 -286 b 504 -292 481 -290 495 -292 b 581 -267 538 -292 563 -283 b 613 -211 598 -250 609 -231 b 619 -131 617 -191 619 -164 l 619 376 b 575 549 619 445 605 502 b 426 618 545 595 496 618 b 258 539 360 618 304 592 b 190 324 213 486 190 414 l 190 0 l 139 0 l 139 486 b 133 642 139 556 137 608 l 182 642 b 188 492 186 595 188 545 l 190 492 b 285 615 209 544 241 585 b 433 661 330 646 380 661 b 613 585 515 661 575 636 b 669 390 650 534 669 469 l 669 -133 b 634 -284 669 -200 658 -250 b 504 -335 610 -318 567 -335 b 454 -328 487 -335 470 -332 "},"Ō":{"ha":1201,"x_min":0,"x_max":0,"o":"m 1108 492 b 964 120 1108 342 1060 218 b 601 -26 868 22 747 -26 b 238 120 455 -26 334 22 b 93 492 141 218 93 342 b 237 863 93 642 141 766 b 601 1010 333 961 454 1010 b 965 863 748 1010 869 961 b 1108 492 1060 766 1108 642 m 1054 492 b 928 827 1054 624 1012 736 b 601 964 844 918 735 964 b 274 827 468 964 359 918 b 147 492 190 736 147 624 b 274 157 147 359 189 248 b 601 21 358 66 467 21 b 928 157 736 21 845 66 b 1054 492 1012 248 1054 359 m 774 1132 l 435 1132 l 435 1174 l 774 1174 "},"ō":{"ha":843,"x_min":0,"x_max":0,"o":"m 760 322 b 665 78 760 223 728 142 b 421 -18 601 14 520 -18 b 178 78 323 -18 242 14 b 83 322 115 142 83 223 b 178 566 83 421 115 503 b 421 661 242 629 323 661 b 665 566 520 661 601 629 b 760 322 728 503 760 421 m 707 322 b 628 533 707 406 681 477 b 421 618 576 590 507 618 b 214 533 335 618 266 590 b 136 322 162 477 136 406 b 214 110 136 238 162 167 b 421 25 266 53 335 25 b 628 110 507 25 576 53 b 707 322 681 167 707 238 m 590 854 l 251 854 l 251 896 l 590 896 "},"Ŏ":{"ha":1201,"x_min":0,"x_max":0,"o":"m 1108 492 b 964 120 1108 342 1060 218 b 601 -26 868 22 747 -26 b 238 120 455 -26 334 22 b 93 492 141 218 93 342 b 237 863 93 642 141 766 b 601 1010 333 961 454 1010 b 965 863 748 1010 869 961 b 1108 492 1060 766 1108 642 m 1054 492 b 928 827 1054 624 1012 736 b 601 964 844 918 735 964 b 274 827 468 964 359 918 b 147 492 190 736 147 624 b 274 157 147 359 189 248 b 601 21 358 66 467 21 b 928 157 736 21 845 66 b 1054 492 1012 248 1054 359 m 785 1251 b 724 1120 777 1195 757 1151 b 600 1074 691 1089 650 1074 b 476 1120 550 1074 509 1089 b 418 1251 443 1151 424 1195 l 454 1251 b 506 1151 463 1208 480 1175 b 600 1117 531 1128 563 1117 b 749 1251 681 1117 730 1162 "},"ŏ":{"ha":843,"x_min":0,"x_max":0,"o":"m 760 322 b 665 78 760 223 728 142 b 421 -18 601 14 520 -18 b 178 78 323 -18 242 14 b 83 322 115 142 83 223 b 178 566 83 421 115 503 b 421 661 242 629 323 661 b 665 566 520 661 601 629 b 760 322 728 503 760 421 m 707 322 b 628 533 707 406 681 477 b 421 618 576 590 507 618 b 214 533 335 618 266 590 b 136 322 162 477 136 406 b 214 110 136 238 162 167 b 421 25 266 53 335 25 b 628 110 507 25 576 53 b 707 322 681 167 707 238 m 606 974 b 545 842 598 917 578 873 b 421 796 512 811 471 796 b 297 842 371 796 329 811 b 239 974 264 873 244 917 l 275 974 b 326 874 283 930 300 897 b 421 839 352 850 384 839 b 569 974 501 839 551 884 "},"Ő":{"ha":1201,"x_min":0,"x_max":0,"o":"m 1108 492 b 964 120 1108 342 1060 218 b 601 -26 868 22 747 -26 b 238 120 455 -26 334 22 b 93 492 141 218 93 342 b 237 863 93 642 141 766 b 601 1010 333 961 454 1010 b 965 863 748 1010 869 961 b 1108 492 1060 766 1108 642 m 1054 492 b 928 827 1054 624 1012 736 b 601 964 844 918 735 964 b 274 827 468 964 359 918 b 147 492 190 736 147 624 b 274 157 147 359 189 248 b 601 21 358 66 467 21 b 928 157 736 21 845 66 b 1054 492 1012 248 1054 359 m 626 1261 l 692 1261 l 528 1060 l 483 1060 m 811 1261 l 876 1261 l 714 1060 l 669 1060 "},"ő":{"ha":843,"x_min":0,"x_max":0,"o":"m 760 322 b 665 78 760 223 728 142 b 421 -18 601 14 520 -18 b 178 78 323 -18 242 14 b 83 322 115 142 83 223 b 178 566 83 421 115 503 b 421 661 242 629 323 661 b 665 566 520 661 601 629 b 760 322 728 503 760 421 m 707 322 b 628 533 707 406 681 477 b 421 618 576 590 507 618 b 214 533 335 618 266 590 b 136 322 162 477 136 406 b 214 110 136 238 162 167 b 421 25 266 53 335 25 b 628 110 507 25 576 53 b 707 322 681 167 707 238 m 447 983 l 513 983 l 349 782 l 304 782 m 632 983 l 697 983 l 535 782 l 490 782 "},"Ŕ":{"ha":828,"x_min":0,"x_max":0,"o":"m 194 0 l 142 0 l 142 983 l 419 983 b 647 926 512 983 588 964 b 736 735 706 888 736 825 b 656 554 736 655 709 595 b 461 489 602 513 537 492 l 756 0 l 694 0 l 406 485 l 194 485 m 194 531 l 414 531 b 615 583 501 531 568 548 b 685 735 661 619 685 669 b 404 939 685 871 591 939 l 194 939 m 374 1061 l 329 1061 l 471 1261 l 536 1261 "},"ŕ":{"ha":458,"x_min":0,"x_max":0,"o":"m 139 486 b 133 642 139 556 137 608 l 182 642 b 188 492 186 595 188 545 l 190 492 b 276 617 208 546 236 588 b 407 661 315 647 359 661 b 444 658 424 661 436 660 l 440 613 b 407 615 429 614 418 615 b 247 531 338 615 285 587 b 190 317 209 474 190 403 l 190 0 l 139 0 l 139 486 m 214 783 l 169 783 l 311 983 l 376 983 "},"Ŗ":{"ha":828,"x_min":0,"x_max":0,"o":"m 194 0 l 142 0 l 142 983 l 419 983 b 647 926 512 983 588 964 b 736 735 706 888 736 825 b 656 554 736 655 709 595 b 461 489 602 513 537 492 l 756 0 l 694 0 l 406 485 l 194 485 m 194 531 l 414 531 b 615 583 501 531 568 548 b 685 735 661 619 685 669 b 404 939 685 871 591 939 l 194 939 m 378 -319 l 338 -319 l 413 -62 l 467 -62 "},"ŗ":{"ha":458,"x_min":0,"x_max":0,"o":"m 139 486 b 133 642 139 556 137 608 l 182 642 b 188 492 186 595 188 545 l 190 492 b 276 617 208 546 236 588 b 407 661 315 647 359 661 b 444 658 424 661 436 660 l 440 613 b 407 615 429 614 418 615 b 247 531 338 615 285 587 b 190 317 209 474 190 403 l 190 0 l 139 0 l 139 486 m 125 -319 l 85 -319 l 160 -62 l 214 -62 "},"Ř":{"ha":828,"x_min":0,"x_max":0,"o":"m 194 0 l 142 0 l 142 983 l 419 983 b 647 926 512 983 588 964 b 736 735 706 888 736 825 b 656 554 736 655 709 595 b 461 489 602 513 537 492 l 756 0 l 694 0 l 406 485 l 194 485 m 194 531 l 414 531 b 615 583 501 531 568 548 b 685 735 661 619 685 669 b 404 939 685 871 591 939 l 194 939 m 413 1061 l 351 1061 l 206 1261 l 256 1261 l 382 1088 l 508 1261 l 558 1261 "},"ř":{"ha":458,"x_min":0,"x_max":0,"o":"m 139 486 b 133 642 139 556 137 608 l 182 642 b 188 492 186 595 188 545 l 190 492 b 276 617 208 546 236 588 b 407 661 315 647 359 661 b 444 658 424 661 436 660 l 440 613 b 407 615 429 614 418 615 b 247 531 338 615 285 587 b 190 317 209 474 190 403 l 190 0 l 139 0 l 139 486 m 310 783 l 249 783 l 103 983 l 153 983 l 279 810 l 406 983 l 456 983 "},"Ś":{"ha":789,"x_min":0,"x_max":0,"o":"m 636 864 b 415 964 586 931 513 964 b 238 908 348 964 289 945 b 163 750 188 870 162 818 b 192 644 163 709 172 674 b 268 574 211 615 237 591 b 372 528 300 557 334 542 b 485 488 409 515 447 501 b 589 438 523 474 557 457 b 665 360 620 419 646 393 b 694 243 685 328 694 288 b 606 45 694 159 665 93 b 389 -26 546 -3 474 -26 b 94 100 263 -26 165 16 l 129 135 b 389 21 202 59 289 21 b 567 80 458 21 518 41 b 642 240 617 119 642 173 b 602 359 642 288 628 327 b 504 430 576 391 543 415 b 376 479 465 445 423 462 b 249 532 330 497 288 514 b 151 614 210 550 177 577 b 111 749 124 651 111 696 b 201 940 111 830 141 894 b 417 1010 260 987 332 1010 b 566 980 471 1010 521 1000 b 675 897 611 960 647 932 m 401 1061 l 357 1061 l 499 1261 l 564 1261 "},"ś":{"ha":589,"x_min":0,"x_max":0,"o":"m 464 533 b 297 618 426 590 370 618 b 189 586 256 618 220 607 b 142 489 157 565 142 532 b 181 404 142 452 155 424 b 314 353 206 385 251 368 b 465 289 380 337 430 316 b 518 172 500 262 518 223 b 454 33 518 113 497 67 b 299 -17 412 0 360 -17 b 64 96 195 -17 117 21 l 104 125 b 299 26 150 59 215 26 b 417 63 344 26 384 39 b 468 168 451 88 468 123 b 455 221 468 188 464 205 b 427 258 446 237 437 249 b 378 285 417 268 401 277 b 326 303 355 294 337 300 b 265 319 314 307 294 312 b 135 381 208 334 165 355 b 92 489 106 408 92 444 b 153 616 92 544 112 586 b 299 661 194 646 242 661 b 501 561 390 661 458 628 m 296 783 l 251 783 l 393 983 l 458 983 "},"Ŝ":{"ha":789,"x_min":0,"x_max":0,"o":"m 636 864 b 415 964 586 931 513 964 b 238 908 348 964 289 945 b 163 750 188 870 162 818 b 192 644 163 709 172 674 b 268 574 211 615 237 591 b 372 528 300 557 334 542 b 485 488 409 515 447 501 b 589 438 523 474 557 457 b 665 360 620 419 646 393 b 694 243 685 328 694 288 b 606 45 694 159 665 93 b 389 -26 546 -3 474 -26 b 94 100 263 -26 165 16 l 129 135 b 389 21 202 59 289 21 b 567 80 458 21 518 41 b 642 240 617 119 642 173 b 602 359 642 288 628 327 b 504 430 576 391 543 415 b 376 479 465 445 423 462 b 249 532 330 497 288 514 b 151 614 210 550 177 577 b 111 749 124 651 111 696 b 201 940 111 830 141 894 b 417 1010 260 987 332 1010 b 566 980 471 1010 521 1000 b 675 897 611 960 647 932 m 592 1061 l 542 1061 l 415 1235 l 289 1061 l 239 1061 l 385 1261 l 446 1261 "},"ŝ":{"ha":589,"x_min":0,"x_max":0,"o":"m 464 533 b 297 618 426 590 370 618 b 189 586 256 618 220 607 b 142 489 157 565 142 532 b 181 404 142 452 155 424 b 314 353 206 385 251 368 b 465 289 380 337 430 316 b 518 172 500 262 518 223 b 454 33 518 113 497 67 b 299 -17 412 0 360 -17 b 64 96 195 -17 117 21 l 104 125 b 299 26 150 59 215 26 b 417 63 344 26 384 39 b 468 168 451 88 468 123 b 455 221 468 188 464 205 b 427 258 446 237 437 249 b 378 285 417 268 401 277 b 326 303 355 294 337 300 b 265 319 314 307 294 312 b 135 381 208 334 165 355 b 92 489 106 408 92 444 b 153 616 92 544 112 586 b 299 661 194 646 242 661 b 501 561 390 661 458 628 m 481 783 l 431 783 l 304 957 l 178 783 l 128 783 l 274 983 l 335 983 "},"Ş":{"ha":789,"x_min":0,"x_max":0,"o":"m 636 864 b 415 964 586 931 513 964 b 238 908 348 964 289 945 b 163 750 188 870 162 818 b 192 644 163 709 172 674 b 268 574 211 615 237 591 b 372 528 300 557 334 542 b 485 488 409 515 447 501 b 589 438 523 474 557 457 b 665 360 620 419 646 393 b 694 243 685 328 694 288 b 611 49 694 161 667 96 b 406 -26 556 3 487 -23 l 347 -115 b 414 -106 368 -109 390 -106 b 497 -129 446 -106 474 -113 b 532 -201 520 -145 532 -169 b 483 -289 532 -242 516 -271 b 374 -315 451 -306 414 -315 b 247 -287 331 -315 289 -306 l 258 -256 b 372 -279 291 -271 329 -279 b 451 -261 402 -279 428 -273 b 486 -201 475 -249 486 -229 b 394 -136 486 -158 456 -136 b 310 -154 360 -136 332 -142 l 292 -139 l 367 -26 b 94 100 250 -21 159 21 l 129 135 b 389 21 202 59 289 21 b 567 80 458 21 518 41 b 642 240 617 119 642 173 b 602 359 642 288 628 327 b 504 430 576 391 543 415 b 376 479 465 445 423 462 b 249 532 330 497 288 514 b 151 614 210 550 177 577 b 111 749 124 651 111 696 b 201 940 111 830 141 894 b 417 1010 260 987 332 1010 b 566 980 471 1010 521 1000 b 675 897 611 960 647 932 "},"ş":{"ha":589,"x_min":0,"x_max":0,"o":"m 464 533 b 297 618 426 590 370 618 b 189 586 256 618 220 607 b 142 489 157 565 142 532 b 181 404 142 452 155 424 b 314 353 206 385 251 368 b 465 289 380 337 430 316 b 518 172 500 262 518 223 b 461 39 518 116 499 71 b 318 -15 423 6 375 -12 l 253 -115 b 319 -106 273 -109 295 -106 b 403 -129 352 -106 380 -113 b 438 -201 426 -145 438 -169 b 389 -289 438 -242 421 -271 b 279 -315 356 -306 320 -315 b 153 -287 237 -315 194 -306 l 164 -256 b 278 -279 196 -271 234 -279 b 357 -261 307 -279 334 -273 b 392 -201 380 -249 392 -229 b 300 -136 392 -158 361 -136 b 215 -154 266 -136 238 -142 l 197 -139 l 279 -15 b 64 96 184 -11 112 26 l 104 125 b 299 26 150 59 215 26 b 417 63 344 26 384 39 b 468 168 451 88 468 123 b 455 221 468 188 464 205 b 427 258 446 237 437 249 b 378 285 417 268 401 277 b 326 303 355 294 337 300 b 265 319 314 307 294 312 b 135 381 208 334 165 355 b 92 489 106 408 92 444 b 153 616 92 544 112 586 b 299 661 194 646 242 661 b 501 561 390 661 458 628 "},"Ţ":{"ha":763,"x_min":0,"x_max":0,"o":"m 407 0 l 356 0 l 356 936 l 22 936 l 22 983 l 740 983 l 740 936 l 407 936 m 340 -319 l 300 -319 l 375 -62 l 429 -62 "},"ţ":{"ha":428,"x_min":0,"x_max":0,"o":"m 394 600 l 208 600 l 208 150 b 319 29 208 69 245 29 b 393 44 346 29 371 34 l 397 3 b 307 -14 369 -8 338 -14 b 198 26 261 -14 224 0 b 158 142 172 53 158 92 l 158 600 l 21 600 l 21 642 l 157 642 l 157 829 l 208 829 l 208 642 l 394 642 m 225 -319 l 183 -319 l 260 -62 l 313 -62 "},"Ť":{"ha":763,"x_min":0,"x_max":0,"o":"m 407 0 l 356 0 l 356 936 l 22 936 l 22 983 l 740 983 l 740 936 l 407 936 m 413 1061 l 351 1061 l 206 1261 l 256 1261 l 382 1088 l 508 1261 l 558 1261 "},"ť":{"ha":442,"x_min":0,"x_max":0,"o":"m 394 600 l 208 600 l 208 150 b 319 31 208 70 245 31 b 393 46 346 31 371 36 l 397 3 b 308 -14 369 -8 339 -14 b 199 26 262 -14 225 0 b 158 142 172 53 158 92 l 158 600 l 21 600 l 21 642 l 157 642 l 157 829 l 208 829 l 208 642 l 394 642 m 357 758 l 317 758 l 393 1015 l 446 1015 "},"Ŧ":{"ha":763,"x_min":0,"x_max":0,"o":"m 356 756 l 356 936 l 22 936 l 22 983 l 740 983 l 740 936 l 407 936 l 407 756 l 669 756 l 669 717 l 407 717 l 407 0 l 356 0 l 356 717 l 89 717 l 89 756 "},"ŧ":{"ha":428,"x_min":0,"x_max":0,"o":"m 158 400 l 158 600 l 21 600 l 21 642 l 157 642 l 157 829 l 208 829 l 208 642 l 394 642 l 394 600 l 208 600 l 208 400 l 376 400 l 376 363 l 208 363 l 208 150 b 319 29 208 69 245 29 b 393 44 346 29 371 34 l 397 3 b 307 -14 369 -8 338 -14 b 198 26 261 -14 224 0 b 158 142 172 53 158 92 l 158 363 l 32 363 l 32 400 "},"Ũ":{"ha":1007,"x_min":0,"x_max":0,"o":"m 504 -26 b 326 6 436 -26 376 -16 b 210 97 276 28 238 58 b 150 222 183 135 163 177 b 131 371 137 268 131 317 l 131 983 l 183 983 l 183 378 b 191 281 183 344 186 311 b 219 185 196 250 206 218 b 275 101 233 153 252 124 b 368 42 298 77 329 58 b 504 19 407 27 452 19 b 664 52 566 19 619 30 b 764 140 708 74 742 103 b 811 253 786 177 802 215 b 825 378 820 292 825 333 l 825 983 l 876 983 l 876 371 b 857 222 876 317 870 268 b 797 97 844 177 824 135 b 681 6 769 58 731 28 b 504 -26 631 -16 572 -26 m 322 1093 b 353 1175 327 1127 337 1155 b 415 1206 370 1195 390 1206 b 508 1172 440 1206 471 1194 b 593 1139 545 1150 574 1139 b 653 1207 625 1139 645 1162 l 688 1207 b 593 1097 677 1134 646 1097 b 501 1131 569 1097 538 1108 b 415 1164 465 1153 437 1164 b 356 1093 385 1164 365 1140 "},"ũ":{"ha":799,"x_min":0,"x_max":0,"o":"m 614 0 b 608 150 610 48 608 98 l 606 150 b 510 27 587 98 555 57 b 363 -18 466 -3 416 -18 b 184 58 281 -18 222 7 b 128 253 147 109 128 174 l 128 642 l 178 642 l 178 267 b 222 94 178 198 192 141 b 369 24 251 47 300 24 b 539 104 437 24 494 50 b 607 328 584 158 607 232 l 607 642 l 657 642 l 657 156 b 664 0 657 95 659 44 m 214 815 b 245 897 219 850 229 877 b 307 928 261 918 282 928 b 400 894 332 928 363 917 b 485 861 437 872 465 861 b 544 929 517 861 537 884 l 579 929 b 485 819 569 856 538 819 b 393 853 461 819 430 831 b 307 886 357 875 328 886 b 247 815 276 886 256 863 "},"Ū":{"ha":1007,"x_min":0,"x_max":0,"o":"m 504 -26 b 326 6 436 -26 376 -16 b 210 97 276 28 238 58 b 150 222 183 135 163 177 b 131 371 137 268 131 317 l 131 983 l 183 983 l 183 378 b 191 281 183 344 186 311 b 219 185 196 250 206 218 b 275 101 233 153 252 124 b 368 42 298 77 329 58 b 504 19 407 27 452 19 b 664 52 566 19 619 30 b 764 140 708 74 742 103 b 811 253 786 177 802 215 b 825 378 820 292 825 333 l 825 983 l 876 983 l 876 371 b 857 222 876 317 870 268 b 797 97 844 177 824 135 b 681 6 769 58 731 28 b 504 -26 631 -16 572 -26 m 675 1132 l 336 1132 l 336 1174 l 675 1174 "},"ū":{"ha":799,"x_min":0,"x_max":0,"o":"m 614 0 b 608 150 610 48 608 98 l 606 150 b 510 27 587 98 555 57 b 363 -18 466 -3 416 -18 b 184 58 281 -18 222 7 b 128 253 147 109 128 174 l 128 642 l 178 642 l 178 267 b 222 94 178 198 192 141 b 369 24 251 47 300 24 b 539 104 437 24 494 50 b 607 328 584 158 607 232 l 607 642 l 657 642 l 657 156 b 664 0 657 95 659 44 m 564 854 l 225 854 l 225 896 l 564 896 "},"Ŭ":{"ha":1007,"x_min":0,"x_max":0,"o":"m 504 -26 b 326 6 436 -26 376 -16 b 210 97 276 28 238 58 b 150 222 183 135 163 177 b 131 371 137 268 131 317 l 131 983 l 183 983 l 183 378 b 191 281 183 344 186 311 b 219 185 196 250 206 218 b 275 101 233 153 252 124 b 368 42 298 77 329 58 b 504 19 407 27 452 19 b 664 52 566 19 619 30 b 764 140 708 74 742 103 b 811 253 786 177 802 215 b 825 378 820 292 825 333 l 825 983 l 876 983 l 876 371 b 857 222 876 317 870 268 b 797 97 844 177 824 135 b 681 6 769 58 731 28 b 504 -26 631 -16 572 -26 m 688 1251 b 627 1120 680 1195 660 1151 b 503 1074 594 1089 553 1074 b 378 1120 453 1074 411 1089 b 321 1251 346 1151 326 1195 l 357 1251 b 408 1151 365 1208 382 1175 b 503 1117 434 1128 466 1117 b 651 1251 583 1117 633 1162 "},"ŭ":{"ha":799,"x_min":0,"x_max":0,"o":"m 614 0 b 608 150 610 48 608 98 l 606 150 b 510 27 587 98 555 57 b 363 -18 466 -3 416 -18 b 184 58 281 -18 222 7 b 128 253 147 109 128 174 l 128 642 l 178 642 l 178 267 b 222 94 178 198 192 141 b 369 24 251 47 300 24 b 539 104 437 24 494 50 b 607 328 584 158 607 232 l 607 642 l 657 642 l 657 156 b 664 0 657 95 659 44 m 578 974 b 517 842 570 917 550 873 b 393 796 484 811 443 796 b 269 842 343 796 302 811 b 211 974 236 873 217 917 l 247 974 b 299 874 256 930 273 897 b 393 839 325 850 356 839 b 542 974 474 839 523 884 "},"Ů":{"ha":1007,"x_min":0,"x_max":0,"o":"m 504 -26 b 326 6 436 -26 376 -16 b 210 97 276 28 238 58 b 150 222 183 135 163 177 b 131 371 137 268 131 317 l 131 983 l 183 983 l 183 378 b 191 281 183 344 186 311 b 219 185 196 250 206 218 b 275 101 233 153 252 124 b 368 42 298 77 329 58 b 504 19 407 27 452 19 b 664 52 566 19 619 30 b 764 140 708 74 742 103 b 811 253 786 177 802 215 b 825 378 820 292 825 333 l 825 983 l 876 983 l 876 371 b 857 222 876 317 870 268 b 797 97 844 177 824 135 b 681 6 769 58 731 28 b 504 -26 631 -16 572 -26 m 640 1181 b 601 1087 640 1144 627 1112 b 507 1049 574 1061 543 1049 b 413 1087 471 1049 440 1061 b 374 1181 387 1112 374 1144 b 413 1274 374 1218 387 1249 b 507 1313 440 1300 471 1313 b 601 1274 543 1313 574 1300 b 640 1181 627 1249 640 1218 m 607 1181 b 578 1251 607 1208 597 1232 b 507 1281 558 1271 535 1281 b 436 1251 479 1281 456 1271 b 407 1181 417 1232 407 1208 b 436 1110 407 1153 417 1129 b 507 1081 456 1090 479 1081 b 578 1110 535 1081 558 1090 b 607 1181 597 1129 607 1153 "},"ů":{"ha":799,"x_min":0,"x_max":0,"o":"m 614 0 b 608 150 610 48 608 98 l 606 150 b 510 27 587 98 555 57 b 363 -18 466 -3 416 -18 b 184 58 281 -18 222 7 b 128 253 147 109 128 174 l 128 642 l 178 642 l 178 267 b 222 94 178 198 192 141 b 369 24 251 47 300 24 b 539 104 437 24 494 50 b 607 328 584 158 607 232 l 607 642 l 657 642 l 657 156 b 664 0 657 95 659 44 m 528 903 b 488 809 528 866 515 834 b 394 771 462 784 431 771 b 301 809 358 771 327 784 b 261 903 274 834 261 866 b 301 997 261 940 274 971 b 394 1035 327 1022 358 1035 b 488 997 431 1035 462 1022 b 528 903 515 971 528 940 m 494 903 b 465 974 494 931 485 954 b 394 1003 446 993 422 1003 b 324 974 367 1003 343 993 b 294 903 304 954 294 931 b 324 832 294 875 304 851 b 394 803 343 813 367 803 b 465 832 422 803 446 813 b 494 903 485 851 494 875 "},"Ű":{"ha":1007,"x_min":0,"x_max":0,"o":"m 504 -26 b 326 6 436 -26 376 -16 b 210 97 276 28 238 58 b 150 222 183 135 163 177 b 131 371 137 268 131 317 l 131 983 l 183 983 l 183 378 b 191 281 183 344 186 311 b 219 185 196 250 206 218 b 275 101 233 153 252 124 b 368 42 298 77 329 58 b 504 19 407 27 452 19 b 664 52 566 19 619 30 b 764 140 708 74 742 103 b 811 253 786 177 802 215 b 825 378 820 292 825 333 l 825 983 l 876 983 l 876 371 b 857 222 876 317 870 268 b 797 97 844 177 824 135 b 681 6 769 58 731 28 b 504 -26 631 -16 572 -26 m 525 1261 l 590 1261 l 426 1060 l 382 1060 m 710 1261 l 775 1261 l 613 1060 l 568 1060 "},"ű":{"ha":799,"x_min":0,"x_max":0,"o":"m 614 0 b 608 150 610 48 608 98 l 606 150 b 510 27 587 98 555 57 b 363 -18 466 -3 416 -18 b 184 58 281 -18 222 7 b 128 253 147 109 128 174 l 128 642 l 178 642 l 178 267 b 222 94 178 198 192 141 b 369 24 251 47 300 24 b 539 104 437 24 494 50 b 607 328 584 158 607 232 l 607 642 l 657 642 l 657 156 b 664 0 657 95 659 44 m 415 983 l 481 983 l 317 782 l 272 782 m 600 983 l 665 983 l 503 782 l 458 782 "},"Ų":{"ha":1007,"x_min":0,"x_max":0,"o":"m 504 -26 b 326 6 436 -26 376 -16 b 210 97 276 28 238 58 b 150 222 183 135 163 177 b 131 371 137 268 131 317 l 131 983 l 183 983 l 183 378 b 191 281 183 344 186 311 b 219 185 196 250 206 218 b 275 101 233 153 252 124 b 368 42 298 77 329 58 b 504 19 407 27 452 19 b 664 52 566 19 619 30 b 764 140 708 74 742 103 b 811 253 786 177 802 215 b 825 378 820 292 825 333 l 825 983 l 876 983 l 876 371 b 805 106 876 266 853 178 b 574 -22 757 34 680 -8 b 496 -112 538 -57 512 -87 b 472 -187 480 -136 472 -162 b 496 -247 472 -212 480 -232 b 557 -269 512 -262 532 -269 b 644 -232 592 -269 621 -257 l 663 -264 b 544 -310 629 -294 590 -310 b 460 -278 511 -310 483 -299 b 426 -196 438 -258 426 -230 b 524 -26 426 -146 459 -89 l 504 -26 "},"ų":{"ha":799,"x_min":0,"x_max":0,"o":"m 607 -310 b 522 -278 574 -310 545 -299 b 488 -196 499 -258 488 -230 b 521 -100 488 -162 499 -131 b 614 0 543 -69 574 -36 b 608 150 610 48 608 98 l 606 150 b 510 27 587 98 555 57 b 363 -18 466 -3 416 -18 b 184 58 281 -18 222 7 b 128 253 147 109 128 174 l 128 642 l 178 642 l 178 267 b 222 94 178 198 192 141 b 369 24 251 47 300 24 b 539 103 437 24 494 50 b 607 318 584 156 607 227 l 607 642 l 657 642 l 657 156 b 664 0 657 95 659 44 l 658 -1 b 656 -3 657 -1 656 -2 l 654 -3 b 562 -107 611 -46 580 -81 b 535 -187 544 -133 535 -160 b 558 -247 535 -212 542 -232 b 618 -269 573 -262 593 -269 b 707 -232 652 -269 682 -257 l 724 -264 b 607 -310 691 -294 652 -310 "},"Ŵ":{"ha":1335,"x_min":0,"x_max":0,"o":"m 358 61 l 363 61 l 631 983 l 700 983 l 974 61 l 976 61 l 1247 983 l 1301 983 l 1008 0 l 940 0 l 667 921 l 664 921 l 394 0 l 326 0 l 33 983 l 88 983 m 842 1061 l 792 1061 l 665 1235 l 539 1061 l 489 1061 l 635 1261 l 696 1261 "},"ŵ":{"ha":990,"x_min":0,"x_max":0,"o":"m 97 642 l 267 58 l 269 58 l 465 642 l 524 642 l 721 58 l 724 58 l 893 642 l 946 642 l 753 0 l 693 0 l 494 581 l 492 581 l 296 0 l 236 0 l 44 642 m 671 783 l 621 783 l 494 957 l 368 783 l 318 783 l 464 983 l 525 983 "},"Ŷ":{"ha":775,"x_min":0,"x_max":0,"o":"m 414 0 l 361 0 l 361 428 l 14 983 l 78 983 l 389 475 l 700 983 l 760 983 l 414 428 m 565 1061 l 515 1061 l 389 1235 l 263 1061 l 213 1061 l 358 1261 l 419 1261 "},"ŷ":{"ha":621,"x_min":0,"x_max":0,"o":"m 101 -335 b 36 -326 76 -335 55 -332 l 44 -281 b 101 -290 62 -287 81 -290 b 181 -258 135 -290 161 -279 b 232 -169 201 -236 218 -206 l 290 -12 l 31 642 l 86 642 l 317 43 l 536 642 l 590 642 l 271 -197 b 101 -335 236 -289 179 -335 m 494 783 l 444 783 l 318 957 l 192 783 l 142 783 l 288 983 l 349 983 "},"Ź":{"ha":815,"x_min":0,"x_max":0,"o":"m 747 929 l 122 47 l 763 47 l 763 0 l 65 0 l 65 51 l 693 936 l 82 936 l 82 983 l 747 983 m 415 1061 l 371 1061 l 513 1261 l 578 1261 "},"ź":{"ha":610,"x_min":0,"x_max":0,"o":"m 532 600 l 121 43 l 547 43 l 547 0 l 60 0 l 60 40 l 475 600 l 82 600 l 82 642 l 532 642 m 311 783 l 267 783 l 408 983 l 474 983 "},"Ż":{"ha":815,"x_min":0,"x_max":0,"o":"m 747 929 l 122 47 l 763 47 l 763 0 l 65 0 l 65 51 l 693 936 l 82 936 l 82 983 l 747 983 m 458 1189 b 445 1156 458 1176 454 1165 b 415 1143 436 1147 426 1143 b 385 1156 403 1143 393 1147 b 372 1189 376 1165 372 1176 b 385 1220 372 1201 377 1211 b 415 1233 394 1229 404 1233 b 445 1220 426 1233 436 1229 b 458 1189 454 1211 458 1201 "},"ż":{"ha":610,"x_min":0,"x_max":0,"o":"m 532 600 l 121 43 l 547 43 l 547 0 l 60 0 l 60 40 l 475 600 l 82 600 l 82 642 l 532 642 m 353 911 b 340 878 353 898 348 887 b 310 865 331 870 321 865 b 279 878 298 865 288 870 b 267 911 271 887 267 898 b 280 942 267 923 271 934 b 310 956 289 951 299 956 b 340 942 321 956 331 951 b 353 911 348 934 353 923 "},"ƒ":{"ha":786,"x_min":0,"x_max":0,"o":"m 572 531 l 404 531 l 304 -14 b 247 -149 293 -72 274 -117 b 124 -197 220 -181 179 -197 b 35 -178 87 -197 57 -191 l 56 -136 b 125 -153 78 -147 101 -153 b 217 -109 168 -153 198 -138 b 261 17 236 -80 251 -38 l 353 531 l 200 531 l 200 571 l 361 571 l 401 799 b 590 1000 425 933 488 1000 b 694 969 634 1000 669 990 l 669 932 b 593 956 645 948 620 956 b 453 799 518 956 471 903 l 413 571 l 572 571 "},"Ș":{"ha":789,"x_min":0,"x_max":0,"o":"m 636 864 b 415 964 586 931 513 964 b 238 908 348 964 289 945 b 163 750 188 870 162 818 b 192 644 163 709 172 674 b 268 574 211 615 237 591 b 372 528 300 557 334 542 b 485 488 409 515 447 501 b 589 438 523 474 557 457 b 665 360 620 419 646 393 b 694 243 685 328 694 288 b 606 45 694 159 665 93 b 389 -26 546 -3 474 -26 b 94 100 263 -26 165 16 l 129 135 b 389 21 202 59 289 21 b 567 80 458 21 518 41 b 642 240 617 119 642 173 b 602 359 642 288 628 327 b 504 430 576 391 543 415 b 376 479 465 445 423 462 b 249 532 330 497 288 514 b 151 614 210 550 177 577 b 111 749 124 651 111 696 b 201 940 111 830 141 894 b 417 1010 260 987 332 1010 b 566 980 471 1010 521 1000 b 675 897 611 960 647 932 m 357 -319 l 317 -319 l 392 -62 l 446 -62 "},"ș":{"ha":589,"x_min":0,"x_max":0,"o":"m 464 533 b 297 618 426 590 370 618 b 189 586 256 618 220 607 b 142 489 157 565 142 532 b 181 404 142 452 155 424 b 314 353 206 385 251 368 b 465 289 380 337 430 316 b 518 172 500 262 518 223 b 454 33 518 113 497 67 b 299 -17 412 0 360 -17 b 64 96 195 -17 117 21 l 104 125 b 299 26 150 59 215 26 b 417 63 344 26 384 39 b 468 168 451 88 468 123 b 455 221 468 188 464 205 b 427 258 446 237 437 249 b 378 285 417 268 401 277 b 326 303 355 294 337 300 b 265 319 314 307 294 312 b 135 381 208 334 165 355 b 92 489 106 408 92 444 b 153 616 92 544 112 586 b 299 661 194 646 242 661 b 501 561 390 661 458 628 m 253 -322 l 213 -322 l 288 -65 l 342 -65 "},"Ț":{"ha":763,"x_min":0,"x_max":0,"o":"m 407 0 l 356 0 l 356 936 l 22 936 l 22 983 l 740 983 l 740 936 l 407 936 m 340 -319 l 300 -319 l 375 -62 l 429 -62 "},"ț":{"ha":428,"x_min":0,"x_max":0,"o":"m 394 600 l 208 600 l 208 150 b 319 29 208 69 245 29 b 393 44 346 29 371 34 l 397 3 b 307 -14 369 -8 338 -14 b 198 26 261 -14 224 0 b 158 142 172 53 158 92 l 158 600 l 21 600 l 21 642 l 157 642 l 157 829 l 208 829 l 208 642 l 394 642 m 225 -319 l 183 -319 l 260 -62 l 313 -62 "},"ȷ":{"ha":325,"x_min":0,"x_max":0,"o":"m -19 -286 b 22 -292 -1 -290 13 -292 b 75 -282 43 -292 60 -288 b 109 -259 90 -275 101 -268 b 128 -222 117 -250 123 -238 b 136 -179 132 -206 135 -192 b 138 -131 137 -166 138 -150 l 138 642 l 188 642 l 188 -133 b 152 -284 188 -200 176 -250 b 24 -335 128 -318 86 -335 b -28 -328 6 -335 -11 -332 "},"ˆ":{"ha":333,"x_min":0,"x_max":0,"o":"m 343 783 l 293 783 l 167 957 l 40 783 l -10 783 l 136 983 l 197 983 "},"ˇ":{"ha":333,"x_min":0,"x_max":0,"o":"m 197 783 l 136 783 l -10 983 l 40 983 l 167 810 l 293 983 l 343 983 "},"ˉ":{"ha":333,"x_min":0,"x_max":0,"o":"m 336 1132 l -3 1132 l -3 1174 l 336 1174 "},"˘":{"ha":333,"x_min":0,"x_max":0,"o":"m 350 974 b 290 842 343 917 322 873 b 165 796 257 811 215 796 b 41 842 115 796 74 811 b -17 974 8 873 -11 917 l 19 974 b 71 874 28 930 45 897 b 165 839 97 850 128 839 b 314 974 246 839 295 884 "},"˙":{"ha":333,"x_min":0,"x_max":0,"o":"m 210 911 b 197 878 210 898 205 887 b 167 865 188 870 178 865 b 137 878 156 865 146 870 b 124 911 128 887 124 898 b 137 942 124 923 128 934 b 167 956 146 951 156 956 b 197 942 178 956 188 951 b 210 911 205 934 210 923 "},"˚":{"ha":333,"x_min":0,"x_max":0,"o":"m 300 903 b 260 809 300 866 287 834 b 167 771 234 784 203 771 b 73 809 131 771 99 784 b 33 903 47 834 33 866 b 73 997 33 940 47 971 b 167 1035 99 1022 131 1035 b 260 997 203 1035 234 1022 b 300 903 287 971 300 940 m 267 903 b 238 974 267 931 257 954 b 167 1003 218 993 194 1003 b 96 974 139 1003 115 993 b 67 903 76 954 67 931 b 96 832 67 875 76 851 b 167 803 115 813 139 803 b 238 832 194 803 218 813 b 267 903 257 851 267 875 "},"˛":{"ha":333,"x_min":0,"x_max":0,"o":"m 288 -264 b 171 -310 255 -294 216 -310 b 86 -278 138 -310 109 -299 b 51 -196 63 -258 51 -230 b 85 -100 51 -162 63 -131 b 178 0 107 -69 138 -36 l 221 0 b 126 -106 176 -44 145 -79 b 99 -187 108 -132 99 -160 b 122 -247 99 -212 106 -232 b 182 -269 137 -262 157 -269 b 269 -232 217 -269 246 -257 "},"˜":{"ha":333,"x_min":0,"x_max":0,"o":"m -15 815 b 16 897 -11 850 0 877 b 78 928 32 918 53 928 b 171 894 102 928 133 917 b 256 861 208 872 236 861 b 315 929 288 861 308 884 l 350 929 b 256 819 340 856 308 819 b 164 853 231 819 201 831 b 78 886 128 875 99 886 b 18 815 47 886 27 863 "},"˝":{"ha":333,"x_min":0,"x_max":0,"o":"m 156 983 l 221 983 l 57 782 l 13 782 m 340 983 l 406 983 l 243 782 l 199 782 "},"Δ":{"ha":918,"x_min":0,"x_max":0,"o":"m 44 0 l 426 989 l 488 989 l 876 0 m 457 942 l 110 46 l 807 46 "},"Ω":{"ha":1028,"x_min":0,"x_max":0,"o":"m 621 0 l 621 231 b 813 351 704 246 768 286 b 881 581 858 415 881 492 b 772 848 881 687 844 776 b 507 956 700 920 612 956 b 242 848 402 956 314 920 b 133 581 169 776 133 687 b 201 351 133 492 156 415 b 393 231 246 286 310 246 l 393 0 l 83 0 l 83 44 l 353 44 l 353 196 b 156 338 269 220 204 267 b 83 581 107 409 83 490 b 208 881 83 700 125 800 b 507 1001 291 961 390 1001 b 807 881 625 1001 725 961 b 931 581 889 800 931 700 b 859 338 931 490 907 409 b 661 196 811 267 745 220 l 661 44 l 931 44 l 931 0 "},"μ":{"ha":772,"x_min":0,"x_max":0,"o":"m 121 642 l 171 642 l 171 267 b 364 25 171 106 235 25 b 533 104 431 25 488 51 b 600 318 578 157 600 228 l 600 642 l 649 642 l 649 156 l 654 0 l 601 0 l 601 149 l 599 149 b 501 27 579 98 547 57 b 356 -18 456 -3 407 -18 b 171 76 270 -18 209 13 l 171 -317 l 121 -317 "},"π":{"ha":775,"x_min":0,"x_max":0,"o":"m 713 10 b 639 -7 689 -1 665 -7 b 597 1 622 -7 608 -4 b 571 19 585 6 576 12 b 558 51 565 26 561 36 b 552 89 554 65 553 78 b 551 139 552 100 551 117 l 551 597 l 201 597 l 201 0 l 153 0 l 153 597 l 56 597 l 56 642 l 706 642 l 706 597 l 600 597 l 600 124 b 613 55 600 92 604 69 b 664 33 621 41 638 33 b 713 42 681 33 698 36 l 713 10 "},"Ѐ":{"ha":821,"x_min":0,"x_max":0,"o":"m 193 47 l 746 47 l 746 0 l 142 0 l 142 983 l 726 983 l 726 936 l 193 936 l 193 533 l 693 533 l 693 488 l 193 488 m 276 1261 l 342 1261 l 483 1061 l 439 1061 "},"Ё":{"ha":821,"x_min":0,"x_max":0,"o":"m 279 1188 b 292 1220 279 1200 283 1211 b 322 1233 300 1229 310 1233 b 353 1220 334 1233 345 1229 b 367 1188 362 1211 367 1200 b 353 1155 367 1175 362 1164 b 322 1142 345 1146 334 1142 b 292 1155 310 1142 300 1146 b 279 1188 283 1164 279 1175 m 510 1188 b 522 1220 510 1200 514 1211 b 553 1233 531 1229 541 1233 b 584 1220 565 1233 575 1229 b 597 1188 593 1211 597 1200 b 584 1155 597 1175 593 1164 b 553 1142 575 1146 565 1142 b 522 1155 541 1142 531 1146 b 510 1188 514 1164 510 1175 m 142 983 l 726 983 l 726 936 l 193 936 l 193 533 l 693 533 l 693 488 l 193 488 l 193 47 l 746 47 l 746 0 l 142 0 "},"Ђ":{"ha":1082,"x_min":0,"x_max":0,"o":"m 658 -12 b 553 -3 619 -12 583 -9 l 564 44 b 656 35 592 38 622 35 b 878 97 751 35 825 56 b 957 281 931 139 957 200 b 877 465 957 361 930 423 b 649 529 824 508 748 529 b 407 493 560 529 479 517 l 407 0 l 356 0 l 356 936 l 22 936 l 22 983 l 740 983 l 740 936 l 407 936 l 407 542 b 651 575 485 564 566 575 b 915 499 763 575 851 550 b 1010 281 978 449 1010 376 b 916 63 1010 186 978 114 b 658 -12 853 13 768 -12 "},"Ѓ":{"ha":689,"x_min":0,"x_max":0,"o":"m 389 1061 l 346 1061 l 488 1261 l 553 1261 m 142 983 l 665 983 l 665 936 l 194 936 l 194 0 l 142 0 "},"Є":{"ha":1004,"x_min":0,"x_max":0,"o":"m 599 -26 b 235 120 451 -26 330 22 b 93 492 141 218 93 342 b 236 863 93 642 141 766 b 599 1010 331 961 452 1010 b 787 974 664 1010 727 998 b 932 875 847 951 895 918 l 893 840 b 763 931 861 878 817 908 b 599 964 709 953 654 964 b 287 841 473 964 369 923 b 149 533 205 759 159 656 l 688 533 l 688 488 l 147 488 l 147 482 b 275 153 149 351 192 242 b 599 19 358 64 466 19 b 777 56 661 19 720 32 b 915 163 834 81 880 116 l 954 132 b 802 16 916 83 866 44 b 599 -26 739 -12 671 -26 "},"Ѕ":{"ha":789,"x_min":0,"x_max":0,"o":"m 636 864 b 415 964 586 931 513 964 b 238 908 348 964 289 945 b 163 750 188 870 162 818 b 192 644 163 709 172 674 b 268 574 211 615 237 591 b 372 528 300 557 334 542 b 485 488 409 515 447 501 b 589 438 523 474 557 457 b 665 360 620 419 646 393 b 694 243 685 328 694 288 b 606 45 694 159 665 93 b 389 -26 546 -3 474 -26 b 94 100 263 -26 165 16 l 129 135 b 389 21 202 59 289 21 b 567 80 458 21 518 41 b 642 240 617 119 642 173 b 602 359 642 288 628 327 b 504 430 576 391 543 415 b 376 479 465 445 423 462 b 249 532 330 497 288 514 b 151 614 210 550 177 577 b 111 749 124 651 111 696 b 201 940 111 830 141 894 b 417 1010 260 987 332 1010 b 566 980 471 1010 521 1000 b 675 897 611 960 647 932 "},"І":{"ha":336,"x_min":0,"x_max":0,"o":"m 142 983 l 194 983 l 194 0 l 142 0 "},"Ї":{"ha":336,"x_min":0,"x_max":0,"o":"m 8 1188 b 22 1219 8 1200 13 1210 b 53 1233 30 1229 41 1233 b 84 1220 65 1233 75 1229 b 97 1188 93 1211 97 1200 b 84 1155 97 1175 93 1164 b 53 1142 75 1146 65 1142 b 22 1155 41 1142 30 1146 b 8 1188 13 1164 8 1175 m 239 1188 b 252 1220 239 1200 243 1211 b 283 1233 261 1229 271 1233 b 315 1219 295 1233 306 1229 b 328 1188 323 1210 328 1200 b 315 1155 328 1175 323 1164 b 283 1142 306 1146 295 1142 b 251 1155 270 1142 260 1146 b 239 1188 243 1164 239 1175 m 142 983 l 194 983 l 194 0 l 142 0 "},"Ј":{"ha":672,"x_min":0,"x_max":0,"o":"m 282 -25 b 126 22 222 -25 170 -9 b 39 143 83 54 54 94 l 86 160 b 160 59 101 118 125 84 b 278 21 194 34 233 21 b 435 91 349 21 401 44 b 485 278 468 138 485 200 l 485 983 l 536 983 l 536 272 b 473 58 536 184 515 113 b 282 -25 431 3 367 -25 "},"Љ":{"ha":1511,"x_min":0,"x_max":0,"o":"m 81 -10 b 10 -1 58 -10 35 -7 l 21 46 b 75 38 49 40 67 38 b 272 213 169 38 235 96 b 328 763 309 329 328 513 l 328 983 l 889 983 l 889 540 l 1121 540 b 1348 471 1212 540 1287 517 b 1439 265 1409 425 1439 356 b 1344 65 1439 175 1407 108 b 1108 0 1281 22 1203 0 l 836 0 l 836 938 l 379 938 l 379 747 b 314 176 379 490 357 299 b 81 -10 270 52 193 -10 m 1104 46 b 1306 99 1185 46 1252 63 b 1386 265 1359 134 1386 189 b 1310 437 1386 341 1361 398 b 1118 494 1259 475 1195 494 l 889 494 l 889 46 "},"Њ":{"ha":1492,"x_min":0,"x_max":0,"o":"m 142 983 l 194 983 l 194 540 l 817 540 l 817 983 l 868 983 l 868 540 l 1101 540 b 1328 471 1191 540 1267 517 b 1419 265 1389 425 1419 356 b 1324 65 1419 175 1388 108 b 1088 0 1261 22 1182 0 l 817 0 l 817 494 l 194 494 l 194 0 l 142 0 m 1085 46 b 1286 99 1165 46 1232 63 b 1367 265 1340 134 1367 189 b 1290 437 1367 341 1341 398 b 1099 494 1239 475 1175 494 l 868 494 l 868 46 "},"Ћ":{"ha":1079,"x_min":0,"x_max":0,"o":"m 356 936 l 22 936 l 22 983 l 740 983 l 740 936 l 407 936 l 407 542 b 653 575 484 564 566 575 b 880 510 756 575 831 553 b 953 333 928 467 953 408 l 953 0 l 901 0 l 901 331 b 842 474 901 391 881 439 b 654 528 802 510 739 528 b 407 496 559 528 476 517 l 407 0 l 356 0 "},"Ќ":{"ha":811,"x_min":0,"x_max":0,"o":"m 422 1061 l 379 1061 l 521 1261 l 586 1261 m 142 983 l 194 983 l 194 535 l 682 983 l 757 983 l 258 533 l 782 0 l 707 0 l 194 528 l 194 0 l 142 0 "},"Ѝ":{"ha":1032,"x_min":0,"x_max":0,"o":"m 350 1261 l 415 1261 l 557 1061 l 514 1061 m 142 983 l 194 983 l 194 75 l 197 75 l 824 983 l 889 983 l 889 0 l 838 0 l 838 910 l 833 910 l 207 0 l 142 0 "},"Ў":{"ha":849,"x_min":0,"x_max":0,"o":"m 167 -10 b 97 0 142 -10 119 -6 l 107 47 b 165 39 125 42 145 39 b 318 149 227 39 278 75 l 403 303 l 17 983 l 76 983 l 431 357 l 775 983 l 832 983 l 363 128 b 278 24 337 81 309 47 b 167 -10 248 2 211 -10 m 431 1074 b 306 1122 380 1074 338 1090 b 249 1243 273 1153 254 1194 l 283 1250 b 431 1117 303 1161 352 1117 b 578 1250 509 1117 558 1161 l 613 1243 b 556 1122 607 1194 588 1153 b 431 1074 523 1090 481 1074 "},"Џ":{"ha":1001,"x_min":0,"x_max":0,"o":"m 475 0 l 142 0 l 142 983 l 194 983 l 194 47 l 807 47 l 807 983 l 858 983 l 858 0 l 525 0 l 525 -253 l 475 -253 "},"А":{"ha":940,"x_min":0,"x_max":0,"o":"m 447 983 l 504 983 l 918 0 l 861 0 l 747 275 l 194 275 l 79 0 l 22 0 m 728 321 l 474 936 l 214 321 "},"Б":{"ha":849,"x_min":0,"x_max":0,"o":"m 142 983 l 693 983 l 693 936 l 194 936 l 194 540 l 443 540 b 670 471 534 540 609 517 b 761 265 731 425 761 356 b 713 110 761 203 745 152 b 592 24 680 69 640 41 b 431 0 545 8 491 0 l 142 0 m 426 46 b 628 99 507 46 574 63 b 708 265 681 134 708 189 b 633 437 708 341 683 398 b 442 494 582 475 519 494 l 194 494 l 194 46 "},"В":{"ha":860,"x_min":0,"x_max":0,"o":"m 142 983 l 418 983 b 530 972 458 983 495 979 b 628 934 565 964 597 951 b 700 860 658 917 682 892 b 726 746 718 828 726 790 b 672 597 726 685 708 635 b 535 522 636 559 590 534 l 535 519 b 700 444 597 513 652 488 b 772 265 748 401 772 341 b 676 65 772 175 740 108 b 440 0 613 22 534 0 l 142 0 m 429 46 b 640 100 516 46 586 64 b 719 264 693 136 719 191 b 639 436 719 340 693 397 b 446 494 585 475 521 494 l 194 494 l 194 46 m 419 539 b 598 590 488 539 547 556 b 674 740 648 623 674 674 b 599 891 674 810 649 860 b 406 938 549 922 484 938 l 194 938 l 194 539 "},"Г":{"ha":689,"x_min":0,"x_max":0,"o":"m 142 983 l 665 983 l 665 936 l 194 936 l 194 0 l 142 0 "},"Д":{"ha":1021,"x_min":0,"x_max":0,"o":"m 24 47 l 100 47 b 286 708 224 169 286 389 l 286 983 l 861 983 l 861 47 l 975 47 l 975 -253 l 924 -253 l 924 0 l 75 0 l 75 -253 l 24 -253 m 810 47 l 810 936 l 338 936 l 338 708 b 167 47 338 394 281 173 "},"Е":{"ha":821,"x_min":0,"x_max":0,"o":"m 142 983 l 726 983 l 726 936 l 193 936 l 193 533 l 693 533 l 693 488 l 193 488 l 193 47 l 746 47 l 746 0 l 142 0 "},"Ж":{"ha":1257,"x_min":0,"x_max":0,"o":"m 539 533 l 56 983 l 131 983 l 603 535 l 603 983 l 654 983 l 654 535 l 1126 983 l 1201 983 l 718 533 l 1228 0 l 1153 0 l 654 528 l 654 0 l 603 0 l 603 528 l 104 0 l 29 0 "},"З":{"ha":785,"x_min":0,"x_max":0,"o":"m 364 -26 b 67 101 239 -26 140 16 l 103 135 b 364 19 174 58 261 19 b 558 89 441 19 505 43 b 636 271 610 135 636 196 b 555 435 636 341 609 396 b 353 494 501 475 433 494 l 278 494 l 278 540 l 343 540 b 529 595 418 540 480 559 b 603 754 578 632 603 685 b 536 908 603 818 581 869 b 367 965 492 946 435 965 b 140 865 277 965 201 932 l 106 896 b 364 1010 172 972 258 1010 b 575 942 453 1010 523 987 b 653 753 627 896 653 833 b 599 600 653 693 635 642 b 463 519 563 558 517 531 l 463 518 b 624 437 527 509 581 482 b 688 271 666 392 688 337 b 596 55 688 181 657 109 b 364 -26 535 1 457 -26 "},"И":{"ha":1032,"x_min":0,"x_max":0,"o":"m 142 983 l 194 983 l 194 75 l 197 75 l 824 983 l 889 983 l 889 0 l 838 0 l 838 910 l 833 910 l 207 0 l 142 0 "},"Й":{"ha":1032,"x_min":0,"x_max":0,"o":"m 142 983 l 194 983 l 194 75 l 197 75 l 824 983 l 889 983 l 889 0 l 838 0 l 838 910 l 833 910 l 207 0 l 142 0 m 517 1074 b 392 1122 466 1074 424 1090 b 335 1243 359 1153 340 1194 l 369 1250 b 517 1117 389 1161 438 1117 b 664 1250 595 1117 644 1161 l 699 1243 b 642 1122 693 1194 674 1153 b 517 1074 609 1090 568 1074 "},"К":{"ha":811,"x_min":0,"x_max":0,"o":"m 142 983 l 194 983 l 194 535 l 682 983 l 757 983 l 258 533 l 782 0 l 707 0 l 194 528 l 194 0 l 142 0 "},"Л":{"ha":1031,"x_min":0,"x_max":0,"o":"m 81 -10 b 10 -1 58 -10 35 -7 l 21 46 b 75 38 49 40 67 38 b 272 213 169 38 235 96 b 328 763 309 329 328 513 l 328 983 l 889 983 l 889 0 l 836 0 l 836 938 l 379 938 l 379 747 b 314 176 379 490 357 299 b 81 -10 270 52 193 -10 "},"М":{"ha":1250,"x_min":0,"x_max":0,"o":"m 142 983 l 226 983 l 625 83 l 1024 983 l 1108 983 l 1108 0 l 1056 0 l 1056 919 l 1051 919 l 640 0 l 607 0 l 197 919 l 194 919 l 194 0 l 142 0 "},"Н":{"ha":1011,"x_min":0,"x_max":0,"o":"m 142 983 l 194 983 l 194 533 l 817 533 l 817 983 l 868 983 l 868 0 l 817 0 l 817 486 l 194 486 l 194 0 l 142 0 "},"О":{"ha":1201,"x_min":0,"x_max":0,"o":"m 601 -26 b 238 120 455 -26 334 22 b 93 492 141 218 93 342 b 237 863 93 642 141 766 b 601 1010 333 961 454 1010 b 965 863 748 1010 869 961 b 1108 492 1060 766 1108 642 b 964 120 1108 342 1060 218 b 601 -26 868 22 747 -26 m 601 19 b 928 156 736 19 845 65 b 1054 492 1012 247 1054 359 b 928 827 1054 624 1012 736 b 601 964 844 918 735 964 b 274 827 468 964 359 918 b 147 492 190 736 147 624 b 274 156 147 359 189 247 b 601 19 358 65 467 19 "},"П":{"ha":1001,"x_min":0,"x_max":0,"o":"m 142 983 l 858 983 l 858 0 l 807 0 l 807 936 l 194 936 l 194 0 l 142 0 "},"Р":{"ha":797,"x_min":0,"x_max":0,"o":"m 142 983 l 413 983 b 635 923 501 983 576 963 b 725 733 695 883 725 819 b 640 542 725 651 697 587 b 424 474 584 496 512 474 l 194 474 l 194 0 l 142 0 m 424 519 b 602 573 496 519 555 537 b 672 733 649 609 672 662 b 600 888 672 804 648 855 b 418 938 552 921 491 938 l 194 938 l 194 519 "},"С":{"ha":1004,"x_min":0,"x_max":0,"o":"m 954 132 b 802 16 916 83 866 44 b 599 -26 739 -12 671 -26 b 235 120 451 -26 330 22 b 93 492 141 218 93 342 b 236 863 93 642 141 766 b 599 1010 331 961 452 1010 b 786 974 664 1010 727 998 b 931 875 845 951 894 918 l 893 840 b 764 930 861 878 818 908 b 599 963 710 952 655 963 b 273 826 465 963 357 917 b 147 492 189 736 147 624 b 272 157 147 359 189 248 b 599 21 356 66 464 21 b 777 57 661 21 720 33 b 915 163 834 81 880 116 "},"Т":{"ha":763,"x_min":0,"x_max":0,"o":"m 356 936 l 22 936 l 22 983 l 740 983 l 740 936 l 407 936 l 407 0 l 356 0 "},"У":{"ha":849,"x_min":0,"x_max":0,"o":"m 167 -10 b 97 0 142 -10 119 -6 l 107 47 b 165 39 125 42 145 39 b 318 149 227 39 278 75 l 403 303 l 17 983 l 76 983 l 431 357 l 775 983 l 832 983 l 363 128 b 278 24 337 81 309 47 b 167 -10 248 2 211 -10 "},"Ф":{"ha":1113,"x_min":0,"x_max":0,"o":"m 531 93 b 208 205 399 95 291 132 b 82 507 124 278 82 378 b 206 809 82 637 123 737 b 531 921 288 881 396 918 l 531 1010 l 582 1010 l 582 921 b 907 809 716 918 825 881 b 1031 507 989 737 1031 637 b 905 205 1031 378 989 278 b 582 93 821 132 713 95 l 582 -28 l 531 -28 m 531 875 b 243 774 410 872 314 839 b 136 507 172 710 136 621 b 245 240 136 392 172 303 b 531 139 318 176 413 143 m 582 139 b 869 240 700 143 796 176 b 978 507 941 303 978 392 b 870 775 978 622 942 711 b 582 875 798 839 702 872 l 582 139 "},"Х":{"ha":844,"x_min":0,"x_max":0,"o":"m 390 515 l 72 983 l 135 983 l 424 554 l 710 983 l 771 983 l 454 515 l 806 0 l 742 0 l 422 476 l 103 0 l 39 0 "},"Ц":{"ha":1019,"x_min":0,"x_max":0,"o":"m 922 0 l 142 0 l 142 983 l 194 983 l 194 47 l 807 47 l 807 983 l 858 983 l 858 47 l 972 47 l 972 -253 l 922 -253 "},"Ч":{"ha":860,"x_min":0,"x_max":0,"o":"m 667 432 b 408 400 591 411 505 400 b 191 464 310 400 238 421 b 121 642 144 506 121 566 l 121 983 l 172 983 l 172 644 b 230 501 172 584 191 536 b 407 447 268 465 327 447 b 667 479 511 447 597 458 l 667 983 l 718 983 l 718 0 l 667 0 "},"Ш":{"ha":1488,"x_min":0,"x_max":0,"o":"m 142 983 l 194 983 l 194 47 l 718 47 l 718 983 l 769 983 l 769 47 l 1293 47 l 1293 983 l 1344 983 l 1344 0 l 142 0 "},"Щ":{"ha":1506,"x_min":0,"x_max":0,"o":"m 1408 0 l 142 0 l 142 983 l 194 983 l 194 47 l 718 47 l 718 983 l 769 983 l 769 47 l 1293 47 l 1293 983 l 1344 983 l 1344 47 l 1458 47 l 1458 -253 l 1408 -253 "},"Ъ":{"ha":968,"x_min":0,"x_max":0,"o":"m 293 936 l 22 936 l 22 983 l 346 983 l 346 540 l 578 540 b 805 471 669 540 744 517 b 896 265 866 425 896 356 b 801 65 896 175 864 108 b 565 0 738 22 660 0 l 293 0 m 561 46 b 763 99 642 46 709 63 b 843 265 816 134 843 189 b 767 437 843 341 818 398 b 575 494 716 475 652 494 l 346 494 l 346 46 "},"Ы":{"ha":1100,"x_min":0,"x_max":0,"o":"m 142 983 l 194 983 l 194 540 l 426 540 b 653 471 517 540 593 517 b 744 265 714 425 744 356 b 650 65 744 175 713 108 b 414 0 587 22 508 0 l 142 0 m 410 46 b 611 99 490 46 557 63 b 692 265 665 134 692 189 b 615 437 692 341 666 398 b 424 494 564 475 500 494 l 194 494 l 194 46 m 906 983 l 957 983 l 957 0 l 906 0 "},"Ь":{"ha":817,"x_min":0,"x_max":0,"o":"m 142 983 l 194 983 l 194 540 l 426 540 b 653 471 517 540 593 517 b 744 265 714 425 744 356 b 650 65 744 175 713 108 b 414 0 587 22 508 0 l 142 0 m 410 46 b 611 99 490 46 557 63 b 692 265 665 134 692 189 b 615 437 692 341 666 398 b 424 494 564 475 500 494 l 194 494 l 194 46 "},"Э":{"ha":1004,"x_min":0,"x_max":0,"o":"m 406 -26 b 202 16 333 -26 266 -12 b 50 132 139 44 88 83 l 89 163 b 227 56 124 116 170 81 b 406 19 284 32 344 19 b 731 155 539 19 647 65 b 857 488 815 245 857 356 l 317 488 l 317 533 l 854 533 b 717 841 845 656 799 759 b 406 964 635 923 531 964 b 240 931 349 964 294 953 b 111 840 187 908 144 878 l 72 875 b 217 974 109 918 158 951 b 406 1010 277 998 340 1010 b 768 863 552 1010 673 961 b 911 492 863 766 911 642 b 769 120 911 342 864 218 b 406 -26 674 22 553 -26 "},"Ю":{"ha":1458,"x_min":0,"x_max":0,"o":"m 897 -25 b 562 119 759 -25 647 23 b 429 486 476 216 432 338 l 194 486 l 194 0 l 142 0 l 142 983 l 194 983 l 194 532 l 431 532 b 569 872 438 667 484 780 b 897 1008 655 963 764 1008 b 1235 861 1036 1008 1149 959 b 1365 500 1322 763 1365 643 b 1235 124 1365 348 1322 223 b 897 -25 1149 25 1036 -25 m 897 22 b 1200 163 1024 22 1125 69 b 1313 500 1275 256 1313 369 b 1265 722 1313 579 1297 653 b 1120 894 1233 792 1184 849 b 897 963 1056 940 981 963 b 674 894 813 963 739 940 b 531 722 610 849 562 792 b 483 500 499 653 483 579 b 595 163 483 369 521 256 b 897 22 670 69 770 22 "},"Я":{"ha":829,"x_min":0,"x_max":0,"o":"m 350 446 b 160 527 273 454 210 481 b 85 718 110 573 85 637 b 180 919 85 809 116 876 b 417 983 243 962 322 983 l 688 983 l 688 0 l 635 0 l 635 443 l 406 443 l 138 0 l 75 0 m 635 489 l 635 938 l 419 938 b 218 885 339 938 272 920 b 138 718 164 850 138 794 b 214 547 138 642 163 585 b 406 489 265 508 329 489 "},"а":{"ha":721,"x_min":0,"x_max":0,"o":"m 304 -18 b 153 30 247 -18 196 -2 b 88 169 109 62 88 108 b 461 382 88 311 212 382 l 546 382 l 546 424 b 494 569 546 488 529 537 b 350 618 460 602 412 618 b 156 542 276 618 211 593 l 128 578 b 353 661 189 633 264 661 b 530 602 428 661 487 641 b 594 426 573 563 594 504 l 594 144 b 606 0 594 85 598 37 l 558 0 b 549 138 552 41 549 87 l 544 138 b 449 21 524 86 492 47 b 304 -18 406 -5 358 -18 m 313 24 b 421 47 353 24 389 31 b 494 108 452 62 477 82 b 533 192 512 134 525 162 b 546 285 542 221 546 252 l 546 342 l 468 342 b 138 171 248 342 138 285 b 190 60 138 121 155 84 b 313 24 225 36 266 24 "},"б":{"ha":846,"x_min":0,"x_max":0,"o":"m 426 -18 b 191 76 330 -18 252 13 b 100 353 130 138 100 231 b 103 507 100 415 101 466 b 114 644 105 548 108 594 b 140 770 119 695 128 737 b 188 867 152 803 168 835 b 264 940 207 898 232 922 b 374 974 295 957 332 968 l 599 1001 b 713 1063 664 1009 702 1029 l 749 1051 b 706 990 741 1025 727 1004 b 611 960 684 975 653 965 l 393 932 b 201 804 300 920 237 877 b 146 478 166 731 148 622 l 150 478 b 444 656 210 596 308 656 b 676 558 541 656 618 623 b 763 317 734 494 763 413 b 668 76 763 219 731 139 b 426 -18 605 13 525 -18 m 426 25 b 631 108 510 25 578 53 b 711 317 684 163 711 232 b 636 528 711 402 686 472 b 438 613 586 584 520 613 b 233 526 355 613 287 584 b 151 314 178 469 151 398 b 228 106 151 230 177 160 b 426 25 279 52 345 25 "},"в":{"ha":725,"x_min":0,"x_max":0,"o":"m 139 642 l 408 642 b 553 606 467 642 515 630 b 611 486 592 583 611 543 b 576 390 611 447 599 415 b 486 340 552 365 522 349 l 486 339 b 594 291 527 335 563 319 b 642 174 626 263 642 224 b 579 42 642 114 621 71 b 425 0 538 14 486 0 l 139 0 m 414 44 b 542 77 467 44 509 55 b 590 176 574 99 590 132 b 541 281 590 223 574 257 b 424 315 508 304 469 315 l 190 315 l 190 44 m 407 358 b 515 389 449 358 485 369 b 561 481 546 409 561 440 b 399 599 561 559 507 599 l 190 599 l 190 358 "},"г":{"ha":579,"x_min":0,"x_max":0,"o":"m 139 642 l 547 642 l 547 599 l 190 599 l 190 0 l 139 0 "},"д":{"ha":825,"x_min":0,"x_max":0,"o":"m 38 44 l 117 44 b 196 216 148 85 175 142 b 228 464 217 290 228 372 l 228 642 l 667 642 l 667 44 l 774 44 l 774 -215 l 725 -215 l 725 0 l 85 0 l 85 -215 l 38 -215 m 617 44 l 617 599 l 278 599 l 278 456 b 174 44 278 286 243 149 "},"е":{"ha":779,"x_min":0,"x_max":0,"o":"m 646 360 b 574 547 644 437 620 499 b 394 618 528 594 469 618 b 253 573 341 618 294 603 b 165 471 212 543 183 509 b 136 360 147 433 137 396 m 407 -18 b 174 79 313 -18 235 14 b 83 326 114 144 83 226 b 173 566 83 423 113 503 b 394 661 233 629 306 661 b 617 569 490 661 564 631 b 696 349 669 508 696 435 b 695 333 696 346 696 341 b 694 318 695 326 694 321 l 135 318 b 209 113 136 239 160 171 b 407 25 258 54 324 25 b 636 139 498 25 574 63 l 671 110 b 407 -18 604 25 516 -18 "},"ж":{"ha":985,"x_min":0,"x_max":0,"o":"m 406 338 l 63 642 l 135 642 l 465 340 l 468 340 l 468 642 l 518 642 l 518 340 l 850 642 l 922 642 l 579 338 l 960 0 l 885 0 l 518 331 l 518 0 l 468 0 l 468 331 l 465 331 l 100 0 l 26 0 "},"з":{"ha":638,"x_min":0,"x_max":0,"o":"m 303 -18 b 61 93 195 -18 115 19 l 97 121 b 301 25 148 57 216 25 b 440 65 357 25 403 38 b 494 178 476 92 494 130 b 442 280 494 222 477 256 b 303 315 406 303 360 315 l 236 315 l 236 358 l 296 358 b 426 397 349 358 392 371 b 478 496 461 423 478 456 b 433 587 478 536 463 566 b 308 618 403 608 361 618 b 131 533 234 618 175 590 l 94 561 b 310 661 145 628 217 661 b 469 618 376 661 429 647 b 528 496 508 589 528 549 b 489 397 528 458 515 425 b 389 340 463 368 430 350 l 389 339 b 501 286 435 333 473 316 b 544 176 530 256 544 220 b 477 35 544 117 522 70 b 303 -18 432 0 374 -18 "},"и":{"ha":819,"x_min":0,"x_max":0,"o":"m 139 642 l 190 642 l 190 74 l 625 642 l 681 642 l 681 0 l 631 0 l 631 574 l 628 574 l 193 0 l 139 0 "},"й":{"ha":819,"x_min":0,"x_max":0,"o":"m 414 796 b 289 844 363 796 321 812 b 232 965 256 876 238 916 l 267 972 b 414 839 286 883 335 839 b 561 972 493 839 542 883 l 596 965 b 539 844 590 916 571 876 b 414 796 506 812 465 796 m 139 642 l 190 642 l 190 74 l 625 642 l 681 642 l 681 0 l 631 0 l 631 574 l 628 574 l 193 0 l 139 0 "},"к":{"ha":664,"x_min":0,"x_max":0,"o":"m 140 642 l 190 642 l 190 340 l 193 340 l 528 642 l 600 642 l 251 338 l 638 0 l 563 0 l 193 331 l 190 331 l 190 0 l 140 0 "},"л":{"ha":807,"x_min":0,"x_max":0,"o":"m 75 -7 b 22 0 58 -7 41 -5 l 32 44 b 71 38 41 40 54 38 b 152 64 102 38 129 46 b 205 142 175 81 192 108 b 232 260 217 177 226 216 b 240 413 238 303 240 354 l 240 642 l 667 642 l 667 0 l 617 0 l 617 599 l 289 599 l 289 401 b 272 194 289 320 283 251 b 206 51 261 137 239 89 b 75 -7 173 12 130 -7 "},"м":{"ha":996,"x_min":0,"x_max":0,"o":"m 139 642 l 219 642 l 497 74 l 779 642 l 857 642 l 857 0 l 807 0 l 807 589 l 804 589 l 514 0 l 482 0 l 193 588 l 190 588 l 190 0 l 139 0 "},"н":{"ha":808,"x_min":0,"x_max":0,"o":"m 139 642 l 190 642 l 190 356 l 618 356 l 618 642 l 668 642 l 668 0 l 618 0 l 618 313 l 190 313 l 190 0 l 139 0 "},"о":{"ha":843,"x_min":0,"x_max":0,"o":"m 421 -18 b 178 78 323 -18 242 14 b 83 322 115 142 83 223 b 178 566 83 421 115 503 b 421 661 242 629 323 661 b 665 566 520 661 601 629 b 760 322 728 503 760 421 b 665 78 760 223 728 142 b 421 -18 601 14 520 -18 m 421 25 b 628 110 507 25 576 53 b 707 322 681 167 707 238 b 628 533 707 406 681 477 b 421 618 576 590 507 618 b 214 533 335 618 266 590 b 136 322 162 477 136 406 b 214 110 136 238 162 167 b 421 25 266 53 335 25 "},"п":{"ha":799,"x_min":0,"x_max":0,"o":"m 139 642 l 660 642 l 660 0 l 610 0 l 610 599 l 190 599 l 190 0 l 139 0 "},"р":{"ha":874,"x_min":0,"x_max":0,"o":"m 136 642 l 188 642 l 188 488 l 192 488 b 306 616 219 543 256 586 b 465 661 355 646 408 661 b 700 565 562 661 640 629 b 790 321 760 500 790 419 b 699 78 790 224 760 143 b 465 -18 639 14 561 -18 b 303 27 407 -18 353 -3 b 192 153 253 57 216 99 l 188 153 l 188 -333 l 136 -333 m 463 25 b 662 110 545 25 611 53 b 738 321 712 167 738 238 b 662 531 738 403 712 473 b 463 618 611 589 545 618 b 262 532 382 618 315 589 b 182 321 209 475 182 404 b 262 111 182 238 209 169 b 463 25 315 54 382 25 "},"с":{"ha":675,"x_min":0,"x_max":0,"o":"m 596 538 b 415 618 550 591 489 618 b 213 532 332 618 265 589 b 136 321 162 475 136 404 b 213 111 136 238 162 168 b 415 26 265 55 332 26 b 606 101 489 26 553 51 l 636 71 b 415 -18 580 12 506 -18 b 176 77 318 -18 238 14 b 83 321 114 141 83 222 b 176 565 83 419 114 500 b 415 661 238 629 318 661 b 631 569 505 661 577 631 "},"т":{"ha":603,"x_min":0,"x_max":0,"o":"m 276 599 l 32 599 l 32 642 l 571 642 l 571 599 l 326 599 l 326 0 l 276 0 "},"у":{"ha":621,"x_min":0,"x_max":0,"o":"m 101 -335 b 36 -326 76 -335 55 -332 l 44 -281 b 101 -290 62 -287 81 -290 b 181 -258 135 -290 161 -279 b 232 -169 201 -236 218 -206 l 290 -12 l 31 642 l 86 642 l 317 47 l 536 642 l 590 642 l 271 -197 b 101 -335 236 -289 179 -335 "},"ф":{"ha":954,"x_min":0,"x_max":0,"o":"m 451 -15 b 177 76 334 -13 242 17 b 79 322 112 134 79 217 b 178 565 79 425 112 506 b 451 660 244 625 335 656 l 451 1065 l 503 1065 l 503 660 b 776 565 619 656 711 625 b 875 322 842 506 875 425 b 777 76 875 217 842 134 b 503 -15 712 17 620 -13 l 503 -333 l 451 -333 m 451 615 b 215 538 350 614 272 588 b 131 322 159 487 131 415 b 215 105 131 228 159 155 b 451 29 271 54 350 29 m 503 29 b 740 105 605 29 684 54 b 824 322 796 155 824 228 b 739 538 824 415 795 487 b 503 615 682 588 604 614 l 503 29 "},"х":{"ha":642,"x_min":0,"x_max":0,"o":"m 288 338 l 61 642 l 125 642 l 319 372 l 514 642 l 576 642 l 350 339 l 608 0 l 542 0 l 318 303 l 96 0 l 33 0 "},"ц":{"ha":818,"x_min":0,"x_max":0,"o":"m 718 0 l 139 0 l 139 642 l 190 642 l 190 44 l 610 44 l 610 642 l 660 642 l 660 44 l 767 44 l 767 -215 l 718 -215 "},"ч":{"ha":725,"x_min":0,"x_max":0,"o":"m 536 283 b 325 256 459 265 389 256 b 167 300 255 256 202 270 b 114 447 131 330 114 379 l 114 642 l 164 642 l 164 450 b 206 332 164 393 178 353 b 332 300 233 311 275 300 b 536 328 387 300 455 309 l 536 642 l 586 642 l 586 0 l 536 0 "},"ш":{"ha":1181,"x_min":0,"x_max":0,"o":"m 139 642 l 190 642 l 190 44 l 565 44 l 565 642 l 615 642 l 615 44 l 992 44 l 992 642 l 1042 642 l 1042 0 l 139 0 "},"щ":{"ha":1200,"x_min":0,"x_max":0,"o":"m 1100 0 l 139 0 l 139 642 l 190 642 l 190 44 l 565 44 l 565 642 l 615 642 l 615 44 l 992 44 l 992 642 l 1042 642 l 1042 44 l 1149 44 l 1149 -215 l 1100 -215 "},"ъ":{"ha":778,"x_min":0,"x_max":0,"o":"m 236 599 l 32 599 l 32 642 l 288 642 l 288 376 l 482 376 b 658 325 562 376 620 359 b 715 183 696 291 715 244 b 483 0 715 61 638 0 l 236 0 m 486 44 b 664 183 605 44 664 91 b 486 333 664 283 605 333 l 288 333 l 288 44 "},"ы":{"ha":936,"x_min":0,"x_max":0,"o":"m 139 642 l 190 642 l 190 376 l 385 376 b 561 325 464 376 523 359 b 618 183 599 291 618 244 b 386 0 618 61 541 0 l 139 0 m 389 44 b 567 183 507 44 567 91 b 389 333 567 283 507 333 l 190 333 l 190 44 m 746 642 l 797 642 l 797 0 l 746 0 "},"ь":{"ha":681,"x_min":0,"x_max":0,"o":"m 139 642 l 190 642 l 190 376 l 385 376 b 561 325 464 376 523 359 b 618 183 599 291 618 244 b 386 0 618 61 541 0 l 139 0 m 389 44 b 567 183 507 44 567 91 b 389 333 567 283 507 333 l 190 333 l 190 44 "},"э":{"ha":676,"x_min":0,"x_max":0,"o":"m 261 -18 b 40 69 169 -18 96 11 l 72 100 b 261 24 123 49 186 24 b 462 107 344 24 410 51 b 542 313 513 163 540 231 l 211 313 l 211 356 l 540 356 b 453 544 532 431 503 494 b 261 619 403 594 339 619 b 75 538 195 619 133 592 l 44 569 b 263 661 100 631 173 661 b 501 565 360 661 439 629 b 593 321 562 501 593 420 b 500 76 593 221 562 139 b 261 -18 438 13 358 -18 "},"ю":{"ha":1088,"x_min":0,"x_max":0,"o":"m 139 642 l 190 642 l 190 356 l 358 356 b 457 574 366 444 399 516 b 679 661 515 632 589 661 b 915 563 776 661 855 628 b 1004 317 974 497 1004 415 b 914 74 1004 220 974 139 b 679 -25 854 8 775 -25 b 447 71 584 -25 506 7 b 356 310 388 135 357 214 l 356 313 l 190 313 l 190 0 l 139 0 m 679 19 b 878 105 762 19 828 48 b 953 317 928 162 953 232 b 878 531 953 402 928 473 b 679 617 828 588 762 617 b 483 531 598 617 532 588 b 408 317 433 473 408 402 b 483 105 408 232 433 162 b 679 19 532 48 598 19 "},"я":{"ha":732,"x_min":0,"x_max":0,"o":"m 274 269 b 150 332 221 280 180 300 b 106 454 120 363 106 404 b 167 593 106 514 126 561 b 343 642 209 625 267 642 l 594 642 l 594 0 l 543 0 l 543 267 l 329 267 l 154 0 l 94 0 m 543 311 l 543 599 l 344 599 b 205 561 284 599 238 586 b 156 454 172 536 156 500 b 203 351 156 412 171 377 b 333 311 234 324 278 311 "},"ѐ":{"ha":779,"x_min":0,"x_max":0,"o":"m 646 360 b 574 547 644 437 620 499 b 394 618 528 594 469 618 b 253 573 341 618 294 603 b 165 471 212 543 183 509 b 136 360 147 433 137 396 m 407 -18 b 174 79 313 -18 235 14 b 83 326 114 144 83 226 b 173 566 83 423 113 503 b 394 661 233 629 306 661 b 617 569 490 661 564 631 b 696 349 669 508 696 435 b 695 333 696 346 696 341 b 694 318 695 326 694 321 l 135 318 b 209 113 136 239 160 171 b 407 25 258 54 324 25 b 636 139 498 25 574 63 l 671 110 b 407 -18 604 25 516 -18 m 240 983 l 306 983 l 447 783 l 403 783 "},"ё":{"ha":779,"x_min":0,"x_max":0,"o":"m 240 910 b 253 942 240 922 245 932 b 285 956 262 951 273 956 b 316 942 297 956 307 951 b 329 910 325 934 329 923 b 316 877 329 897 325 886 b 285 864 307 868 297 864 b 253 877 273 864 262 868 b 240 910 245 886 240 897 m 471 910 b 484 942 471 923 475 934 b 515 956 493 951 503 956 b 546 942 527 956 538 951 b 558 910 554 934 558 923 b 546 877 558 897 554 886 b 515 864 538 868 527 864 b 483 877 502 864 492 868 b 471 910 475 886 471 897 m 646 360 b 574 547 644 437 620 499 b 394 618 528 594 469 618 b 253 573 341 618 294 603 b 165 471 212 543 183 509 b 136 360 147 433 137 396 m 407 -18 b 174 79 313 -18 235 14 b 83 326 114 144 83 226 b 173 566 83 423 113 503 b 394 661 233 629 306 661 b 617 569 490 661 564 631 b 696 349 669 508 696 435 b 695 333 696 346 696 341 b 694 318 695 326 694 321 l 135 318 b 209 113 136 239 160 171 b 407 25 258 54 324 25 b 636 139 498 25 574 63 l 671 110 b 407 -18 604 25 516 -18 "},"ђ":{"ha":796,"x_min":0,"x_max":0,"o":"m 488 -335 b 417 -326 460 -335 436 -332 l 425 -285 b 485 -292 446 -289 466 -292 b 617 -122 573 -292 617 -235 l 617 376 b 608 463 617 408 614 437 b 578 540 602 490 592 515 b 519 597 565 564 545 583 b 424 618 492 611 461 618 b 256 539 357 618 301 592 b 188 324 210 486 188 414 l 188 0 l 138 0 l 138 801 l 15 801 l 15 842 l 138 842 l 138 1050 l 188 1050 l 188 842 l 419 842 l 419 801 l 188 801 l 188 493 l 190 493 b 285 616 209 545 240 586 b 432 661 329 646 378 661 b 610 585 513 661 573 636 b 667 390 648 534 667 469 l 667 -124 b 617 -283 667 -196 650 -249 b 488 -335 583 -318 540 -335 "},"ѓ":{"ha":579,"x_min":0,"x_max":0,"o":"m 308 783 l 265 783 l 407 983 l 472 983 m 139 642 l 547 642 l 547 599 l 190 599 l 190 0 l 139 0 "},"є":{"ha":676,"x_min":0,"x_max":0,"o":"m 415 -18 b 176 76 318 -18 238 13 b 83 321 114 139 83 221 b 176 565 83 420 114 501 b 414 661 238 629 318 661 b 633 569 506 661 580 631 l 600 538 b 415 618 550 591 488 618 b 224 543 338 618 274 593 b 138 356 174 493 145 431 l 474 356 l 474 313 l 135 313 b 215 108 137 231 163 163 b 415 25 266 53 333 25 b 604 100 491 25 554 50 l 638 69 b 415 -18 582 11 508 -18 "},"ѕ":{"ha":589,"x_min":0,"x_max":0,"o":"m 464 533 b 297 618 426 590 370 618 b 189 586 256 618 220 607 b 142 489 157 565 142 532 b 181 404 142 452 155 424 b 314 353 206 385 251 368 b 465 289 380 337 430 316 b 518 172 500 262 518 223 b 454 33 518 113 497 67 b 299 -17 412 0 360 -17 b 64 96 195 -17 117 21 l 104 125 b 299 26 150 59 215 26 b 417 63 344 26 384 39 b 468 168 451 88 468 123 b 455 221 468 188 464 205 b 427 258 446 237 437 249 b 378 285 417 268 401 277 b 326 303 355 294 337 300 b 265 319 314 307 294 312 b 135 381 208 334 165 355 b 92 489 106 408 92 444 b 153 616 92 544 112 586 b 299 661 194 646 242 661 b 501 561 390 661 458 628 "},"і":{"ha":324,"x_min":0,"x_max":0,"o":"m 138 642 l 188 642 l 188 0 l 138 0 m 163 865 b 132 878 150 865 140 870 b 119 911 124 887 119 898 b 133 942 119 923 124 934 b 163 956 141 951 151 956 b 192 942 174 956 183 951 b 204 911 200 934 204 923 b 192 878 204 898 200 887 b 163 865 183 870 174 865 "},"ї":{"ha":324,"x_min":0,"x_max":0,"o":"m 3 910 b 16 942 3 923 7 934 b 47 956 25 951 35 956 b 78 942 59 956 69 951 b 90 910 86 934 90 923 b 78 877 90 897 86 886 b 47 864 69 868 59 864 b 15 877 34 864 24 868 b 3 910 7 886 3 897 m 233 910 b 247 942 233 923 238 934 b 278 956 255 951 266 956 b 308 942 290 956 300 951 b 321 910 317 934 321 923 b 308 877 321 897 316 886 b 278 864 299 868 289 864 b 246 877 265 864 254 868 b 233 910 238 886 233 897 m 188 0 l 138 0 l 138 642 l 188 642 "},"ј":{"ha":325,"x_min":0,"x_max":0,"o":"m 24 -335 b -28 -328 6 -335 -11 -332 l -19 -286 b 22 -292 -1 -290 13 -292 b 75 -282 43 -292 60 -288 b 109 -259 90 -275 101 -268 b 128 -222 117 -250 123 -238 b 136 -179 132 -206 135 -192 b 138 -131 137 -166 138 -150 l 138 642 l 188 642 l 188 -133 b 152 -284 188 -200 176 -250 b 24 -335 128 -318 86 -335 m 163 865 b 132 878 150 865 140 870 b 119 911 124 887 119 898 b 133 942 119 923 124 934 b 163 956 141 951 151 956 b 192 942 174 956 184 951 b 206 911 201 934 206 923 b 192 878 206 898 201 887 b 163 865 184 870 174 865 "},"љ":{"ha":1158,"x_min":0,"x_max":0,"o":"m 75 -7 b 22 0 58 -7 41 -5 l 32 44 b 71 38 41 40 54 38 b 152 64 102 38 129 46 b 205 142 175 81 192 108 b 232 260 217 177 226 216 b 240 413 238 303 240 354 l 240 642 l 667 642 l 667 376 l 863 376 b 1038 325 941 376 1000 359 b 1096 183 1077 291 1096 244 b 863 0 1096 61 1018 0 l 617 0 l 617 599 l 289 599 l 289 401 b 272 194 289 320 283 251 b 206 51 261 137 239 89 b 75 -7 173 12 130 -7 m 867 44 b 1044 183 985 44 1044 91 b 867 333 1044 283 985 333 l 667 333 l 667 44 "},"њ":{"ha":1160,"x_min":0,"x_max":0,"o":"m 139 642 l 190 642 l 190 365 l 618 365 l 618 642 l 668 642 l 668 365 l 864 365 b 1097 178 1019 365 1097 303 b 864 0 1097 59 1019 0 l 618 0 l 618 322 l 190 322 l 190 0 l 139 0 m 868 44 b 1004 78 931 44 976 56 b 1046 178 1032 100 1046 133 b 868 322 1046 274 987 322 l 668 322 l 668 44 "},"ћ":{"ha":796,"x_min":0,"x_max":0,"o":"m 138 801 l 15 801 l 15 842 l 138 842 l 138 1050 l 188 1050 l 188 842 l 419 842 l 419 801 l 188 801 l 188 493 l 190 493 b 285 616 209 545 240 586 b 432 661 329 646 378 661 b 610 585 513 661 573 636 b 667 390 648 534 667 469 l 667 0 l 617 0 l 617 376 b 608 463 617 408 614 437 b 578 540 602 490 592 515 b 519 597 565 564 545 583 b 424 618 492 611 461 618 b 256 539 357 618 301 592 b 188 324 210 486 188 414 l 188 0 l 138 0 "},"ќ":{"ha":664,"x_min":0,"x_max":0,"o":"m 356 783 l 313 783 l 454 983 l 519 983 m 140 642 l 190 642 l 190 340 l 193 340 l 528 642 l 600 642 l 251 338 l 638 0 l 563 0 l 193 331 l 190 331 l 190 0 l 140 0 "},"ѝ":{"ha":819,"x_min":0,"x_max":0,"o":"m 254 983 l 319 983 l 461 783 l 418 783 m 139 642 l 190 642 l 190 74 l 625 642 l 681 642 l 681 0 l 631 0 l 631 574 l 628 574 l 193 0 l 139 0 "},"ў":{"ha":621,"x_min":0,"x_max":0,"o":"m 317 796 b 192 844 266 796 224 812 b 135 965 159 876 140 916 l 169 972 b 317 839 189 883 238 839 b 464 972 395 839 444 883 l 499 965 b 442 844 493 916 474 876 b 317 796 409 812 368 796 m 101 -335 b 36 -326 76 -335 55 -332 l 44 -281 b 101 -290 62 -287 81 -290 b 181 -258 135 -290 161 -279 b 232 -169 201 -236 218 -206 l 290 -12 l 31 642 l 86 642 l 317 47 l 536 642 l 590 642 l 271 -197 b 101 -335 236 -289 179 -335 "},"џ":{"ha":799,"x_min":0,"x_max":0,"o":"m 375 0 l 139 0 l 139 642 l 190 642 l 190 44 l 610 44 l 610 642 l 660 642 l 660 0 l 422 0 l 422 -215 l 375 -215 "},"Ґ":{"ha":689,"x_min":0,"x_max":0,"o":"m 142 983 l 615 983 l 615 1189 l 665 1189 l 665 936 l 194 936 l 194 0 l 142 0 "},"ґ":{"ha":579,"x_min":0,"x_max":0,"o":"m 139 642 l 499 642 l 499 817 l 547 817 l 547 599 l 190 599 l 190 0 l 139 0 "},"Ẁ":{"ha":1335,"x_min":0,"x_max":0,"o":"m 358 61 l 363 61 l 631 983 l 700 983 l 974 61 l 976 61 l 1247 983 l 1301 983 l 1008 0 l 940 0 l 667 921 l 664 921 l 394 0 l 326 0 l 33 983 l 88 983 m 483 1261 l 549 1261 l 690 1061 l 646 1061 "},"ẁ":{"ha":990,"x_min":0,"x_max":0,"o":"m 97 642 l 267 58 l 269 58 l 465 642 l 524 642 l 721 58 l 724 58 l 893 642 l 946 642 l 753 0 l 693 0 l 494 581 l 492 581 l 296 0 l 236 0 l 44 642 m 306 983 l 371 983 l 513 783 l 468 783 "},"Ẃ":{"ha":1335,"x_min":0,"x_max":0,"o":"m 358 61 l 363 61 l 631 983 l 700 983 l 974 61 l 976 61 l 1247 983 l 1301 983 l 1008 0 l 940 0 l 667 921 l 664 921 l 394 0 l 326 0 l 33 983 l 88 983 m 686 1061 l 642 1061 l 783 1261 l 849 1261 "},"ẃ":{"ha":990,"x_min":0,"x_max":0,"o":"m 97 642 l 267 58 l 269 58 l 465 642 l 524 642 l 721 58 l 724 58 l 893 642 l 946 642 l 753 0 l 693 0 l 494 581 l 492 581 l 296 0 l 236 0 l 44 642 m 521 783 l 476 783 l 618 983 l 683 983 "},"Ẅ":{"ha":1335,"x_min":0,"x_max":0,"o":"m 358 61 l 363 61 l 631 983 l 700 983 l 974 61 l 976 61 l 1247 983 l 1301 983 l 1008 0 l 940 0 l 667 921 l 664 921 l 394 0 l 326 0 l 33 983 l 88 983 m 507 1188 b 520 1219 507 1200 511 1210 b 551 1233 529 1229 539 1233 b 583 1220 563 1233 574 1229 b 596 1188 591 1211 596 1200 b 583 1155 596 1175 591 1164 b 551 1142 574 1146 563 1142 b 520 1155 539 1142 529 1146 b 507 1188 511 1164 507 1175 m 738 1188 b 751 1220 738 1200 742 1211 b 782 1233 759 1229 770 1233 b 813 1219 794 1233 804 1229 b 826 1188 822 1210 826 1200 b 813 1155 826 1175 822 1164 b 782 1142 804 1146 794 1142 b 750 1155 769 1142 758 1146 b 738 1188 742 1164 738 1175 "},"ẅ":{"ha":990,"x_min":0,"x_max":0,"o":"m 97 642 l 267 58 l 269 58 l 465 642 l 524 642 l 721 58 l 724 58 l 893 642 l 946 642 l 753 0 l 693 0 l 494 581 l 492 581 l 296 0 l 236 0 l 44 642 m 335 910 b 348 942 335 922 339 932 b 379 956 357 951 367 956 b 410 942 391 956 402 951 b 424 910 419 934 424 923 b 410 877 424 897 419 886 b 379 864 402 868 391 864 b 348 877 367 864 357 868 b 335 910 339 886 335 897 m 565 910 b 578 942 565 923 570 934 b 610 956 587 951 598 956 b 641 942 622 956 632 951 b 654 910 650 932 654 922 b 641 877 654 897 650 886 b 610 864 632 868 622 864 b 578 877 597 864 586 868 b 565 910 569 886 565 897 "},"Ỳ":{"ha":775,"x_min":0,"x_max":0,"o":"m 414 0 l 361 0 l 361 428 l 14 983 l 78 983 l 389 475 l 700 983 l 760 983 l 414 428 m 219 1261 l 285 1261 l 426 1061 l 382 1061 "},"ỳ":{"ha":621,"x_min":0,"x_max":0,"o":"m 101 -335 b 36 -326 76 -335 55 -332 l 44 -281 b 101 -290 62 -287 81 -290 b 181 -258 135 -290 161 -279 b 232 -169 201 -236 218 -206 l 290 -12 l 31 642 l 86 642 l 317 43 l 536 642 l 590 642 l 271 -197 b 101 -335 236 -289 179 -335 m 147 983 l 213 983 l 354 783 l 310 783 "},"‐":{"ha":425,"x_min":0,"x_max":0,"o":"m 347 326 l 78 326 l 78 369 l 347 369 "},"–":{"ha":556,"x_min":0,"x_max":0,"o":"m 514 326 l 42 326 l 42 369 l 514 369 "},"—":{"ha":833,"x_min":0,"x_max":0,"o":"m 792 326 l 42 326 l 42 369 l 792 369 "},"‘":{"ha":307,"x_min":0,"x_max":0,"o":"m 181 983 l 221 983 l 139 664 l 85 664 "},"’":{"ha":307,"x_min":0,"x_max":0,"o":"m 126 664 l 85 664 l 168 983 l 221 983 "},"‚":{"ha":307,"x_min":0,"x_max":0,"o":"m 126 -193 l 85 -193 l 168 128 l 221 128 "},"“":{"ha":501,"x_min":0,"x_max":0,"o":"m 182 983 l 224 983 l 139 664 l 85 664 m 376 983 l 417 983 l 335 664 l 281 664 "},"”":{"ha":501,"x_min":0,"x_max":0,"o":"m 364 983 l 417 983 l 319 664 l 279 664 m 168 983 l 221 983 l 126 664 l 85 664 "},"„":{"ha":501,"x_min":0,"x_max":0,"o":"m 364 128 l 417 128 l 319 -193 l 279 -193 m 168 128 l 221 128 l 126 -193 l 85 -193 "},"†":{"ha":738,"x_min":0,"x_max":0,"o":"m 394 697 l 668 697 l 668 653 l 394 653 l 394 -175 l 344 -175 l 344 653 l 69 653 l 69 697 l 344 697 l 344 983 l 394 983 "},"‡":{"ha":738,"x_min":0,"x_max":0,"o":"m 394 703 l 664 703 l 664 657 l 394 657 l 394 151 l 664 151 l 664 106 l 394 106 l 394 -175 l 344 -175 l 344 106 l 74 106 l 74 151 l 344 151 l 344 657 l 74 657 l 74 703 l 344 703 l 344 983 l 394 983 "},"•":{"ha":694,"x_min":0,"x_max":0,"o":"m 101 492 b 173 666 101 560 125 618 b 347 738 221 714 279 738 b 522 666 416 738 474 714 b 593 492 569 618 593 560 b 522 317 593 423 569 365 b 347 246 474 270 416 246 b 173 317 279 246 221 270 b 101 492 125 365 101 423 "},"…":{"ha":1389,"x_min":0,"x_max":0,"o":"m 275 40 b 262 6 275 26 271 15 b 231 -8 253 -4 243 -8 b 198 6 218 -8 207 -4 b 185 40 189 15 185 26 b 198 74 185 53 189 64 b 231 88 207 83 218 88 b 262 74 243 88 253 83 b 275 40 271 64 275 53 m 740 40 b 726 6 740 26 736 15 b 694 -8 717 -4 706 -8 b 662 6 681 -8 671 -4 b 649 40 653 15 649 26 b 663 74 649 53 653 64 b 694 88 672 83 682 88 b 726 74 706 88 717 83 b 740 40 736 64 740 53 m 1204 40 b 1191 6 1204 26 1200 15 b 1158 -8 1182 -4 1171 -8 b 1126 6 1145 -8 1135 -4 b 1114 40 1118 15 1114 26 b 1127 74 1114 53 1118 64 b 1158 88 1136 83 1146 88 b 1191 74 1171 88 1182 83 b 1204 40 1200 64 1204 53 "},"‰":{"ha":1389,"x_min":0,"x_max":0,"o":"m 660 -10 b 515 50 603 -10 555 10 b 456 196 475 90 456 138 b 515 344 456 254 475 303 b 660 404 555 384 603 404 b 806 344 717 404 766 384 b 867 196 847 303 867 254 b 806 50 867 138 847 90 b 660 -10 766 10 717 -10 m 660 32 b 775 79 705 32 744 48 b 822 196 806 111 822 150 b 775 315 822 243 806 283 b 660 363 744 347 705 363 b 547 315 615 363 578 347 b 501 196 517 283 501 243 b 547 79 501 150 517 111 b 660 32 578 48 615 32 m 1139 -10 b 993 50 1081 -10 1033 10 b 933 196 953 90 933 138 b 993 344 933 254 953 303 b 1139 404 1033 384 1081 404 b 1284 344 1195 404 1244 384 b 1344 196 1324 303 1344 254 b 1284 50 1344 138 1324 90 b 1139 -10 1244 10 1195 -10 m 1139 32 b 1253 79 1184 32 1222 48 b 1300 196 1284 111 1300 150 b 1253 315 1300 243 1284 283 b 1139 363 1222 347 1184 363 b 1026 315 1094 363 1057 347 b 979 196 995 283 979 243 b 1026 79 979 150 995 111 b 1139 32 1057 48 1094 32 m 156 -39 l 118 -17 l 733 1024 l 771 1001 m 257 583 b 111 643 200 583 151 603 b 51 789 71 683 51 731 b 111 937 51 847 71 897 b 257 997 151 977 200 997 b 402 937 313 997 362 977 b 463 789 442 897 463 847 b 402 643 463 731 442 683 b 257 583 362 603 313 583 m 257 625 b 372 672 302 625 341 641 b 418 789 403 704 418 743 b 372 908 418 836 403 876 b 257 956 341 940 302 956 b 144 908 213 956 175 940 b 97 789 113 876 97 836 b 144 672 97 743 113 704 b 257 625 175 641 213 625 "},"‹":{"ha":438,"x_min":0,"x_max":0,"o":"m 318 78 l 282 51 l 104 331 l 281 608 l 317 583 l 158 331 "},"›":{"ha":438,"x_min":0,"x_max":0,"o":"m 119 583 l 156 610 l 333 331 l 157 53 l 121 78 l 279 331 "},"‽":{"ha":660,"x_min":0,"x_max":0,"o":"m 360 64 b 368 40 365 57 368 50 b 358 17 368 32 365 24 b 335 6 352 9 344 6 b 314 15 326 6 319 9 b 306 38 308 21 306 28 b 316 63 306 47 309 55 b 339 74 323 70 331 74 b 360 64 346 74 353 70 m 307 767 l 354 767 l 354 479 l 356 479 b 372 503 359 487 365 494 b 390 523 378 511 384 518 b 420 553 395 528 405 538 b 456 586 435 568 447 579 b 523 669 486 617 509 644 b 544 765 537 694 544 726 b 485 908 544 826 525 874 b 336 960 446 943 396 960 b 191 908 278 960 229 942 b 121 771 153 873 129 827 l 71 779 b 163 946 84 850 114 906 b 339 1006 211 986 269 1006 b 523 942 413 1006 474 984 b 596 768 572 900 596 842 b 565 644 596 717 586 676 b 471 542 545 612 513 578 b 381 446 426 504 396 472 b 357 347 365 420 357 387 l 357 275 l 307 275 "},"⁄":{"ha":139,"x_min":0,"x_max":0,"o":"m -236 -39 l -274 -17 l 342 1024 l 379 1001 "},"⁰":{"ha":494,"x_min":0,"x_max":0,"o":"m 435 921 b 426 813 435 882 432 846 b 399 717 421 780 412 748 b 340 642 386 685 366 660 b 247 615 314 624 283 615 b 153 642 210 615 179 624 b 95 717 127 660 108 685 b 68 813 83 748 74 780 b 60 921 63 846 60 882 b 68 1028 60 960 63 996 b 95 1125 74 1061 83 1094 b 153 1199 108 1156 127 1181 b 247 1226 179 1217 210 1226 b 340 1199 283 1226 314 1217 b 399 1125 366 1181 386 1156 b 426 1028 412 1094 421 1061 b 435 921 432 996 435 960 m 389 921 b 383 1003 389 950 387 977 b 365 1088 380 1030 373 1058 b 321 1159 356 1117 341 1141 b 247 1186 300 1177 276 1186 b 173 1159 218 1186 193 1177 b 129 1086 153 1141 138 1117 b 110 1001 120 1056 114 1027 b 106 921 107 975 106 949 b 110 840 106 893 107 866 b 129 755 114 813 120 785 b 173 683 138 725 153 701 b 247 656 193 665 218 656 b 321 683 276 656 300 665 b 365 755 341 701 356 725 b 383 840 373 785 380 813 b 389 921 387 866 389 893 "},"⁴":{"ha":494,"x_min":0,"x_max":0,"o":"m 313 629 l 313 774 l 46 774 l 46 817 l 297 1213 l 356 1213 l 356 814 l 446 814 l 446 774 l 356 774 l 356 629 m 313 1156 l 308 1156 l 92 814 l 313 814 "},"⁵":{"ha":494,"x_min":0,"x_max":0,"o":"m 425 808 b 371 667 425 749 407 702 b 238 615 335 633 290 615 b 68 711 160 615 103 647 l 107 729 b 238 656 138 680 181 656 b 339 696 277 656 311 669 b 381 807 367 723 381 760 b 340 915 381 851 367 888 b 229 957 312 943 275 957 b 110 921 191 957 151 945 l 115 1213 l 400 1213 l 400 1172 l 160 1172 l 156 979 b 239 996 184 990 212 996 b 374 943 295 996 341 978 b 425 808 408 908 425 863 "},"⁶":{"ha":494,"x_min":0,"x_max":0,"o":"m 431 797 b 378 667 431 744 413 701 b 247 615 344 632 300 615 b 115 666 194 615 150 632 b 64 797 81 700 64 744 b 117 954 64 843 81 895 l 269 1213 l 324 1213 l 167 956 l 168 954 b 256 982 196 973 225 982 b 381 931 306 982 347 965 b 431 797 414 896 431 852 m 385 797 b 347 902 385 840 372 875 b 250 943 322 929 290 943 b 151 901 211 943 178 929 b 110 797 123 874 110 839 b 149 696 110 756 123 723 b 247 656 175 669 207 656 b 346 696 287 656 320 669 b 385 797 372 723 385 756 "},"⁷":{"ha":494,"x_min":0,"x_max":0,"o":"m 132 629 l 371 1172 l 86 1172 l 86 1213 l 418 1213 l 418 1175 l 182 629 "},"⁸":{"ha":494,"x_min":0,"x_max":0,"o":"m 431 786 b 378 663 431 735 413 694 b 249 615 344 631 300 615 b 117 663 196 615 152 631 b 65 786 83 694 65 735 b 94 880 65 820 75 852 b 175 940 114 908 141 928 l 175 942 b 109 998 146 955 124 973 b 86 1075 94 1022 86 1048 b 133 1184 86 1119 102 1156 b 249 1226 164 1212 202 1226 b 363 1184 294 1226 332 1212 b 408 1075 393 1156 408 1119 b 385 997 408 1047 401 1021 b 321 942 370 973 349 955 l 321 940 b 401 880 355 928 382 908 b 431 786 421 852 431 820 m 249 1186 b 165 1155 215 1186 188 1176 b 132 1075 143 1134 132 1107 b 165 993 132 1043 143 1015 b 249 960 188 971 215 960 b 331 994 281 960 308 971 b 364 1075 353 1016 364 1044 b 331 1155 364 1107 353 1134 b 249 1186 308 1176 281 1186 m 249 921 b 150 883 210 921 177 908 b 110 788 123 857 110 825 b 149 693 110 750 123 718 b 249 656 175 668 208 656 b 348 693 289 656 322 668 b 386 788 373 718 386 750 b 346 883 386 825 373 857 b 249 921 319 908 287 921 "},"⁹":{"ha":494,"x_min":0,"x_max":0,"o":"m 431 1043 b 378 889 431 1000 413 948 l 224 629 l 171 629 l 329 889 l 328 890 b 239 863 304 872 274 863 b 114 913 189 863 147 879 b 64 1043 81 947 64 990 b 116 1174 64 1096 81 1140 b 247 1226 151 1209 194 1226 b 379 1175 301 1226 345 1209 b 431 1043 413 1141 431 1097 m 385 1043 b 346 1145 385 1084 372 1118 b 247 1186 320 1172 287 1186 b 149 1145 207 1186 175 1172 b 110 1043 123 1118 110 1084 b 148 942 110 1002 122 969 b 244 901 173 915 206 901 b 344 942 283 901 316 915 b 385 1043 371 970 385 1003 "},"₀":{"ha":494,"x_min":0,"x_max":0,"o":"m 435 101 b 426 -6 435 63 432 27 b 399 -103 421 -39 412 -71 b 340 -177 386 -134 366 -159 b 247 -204 314 -195 283 -204 b 153 -177 210 -204 179 -195 b 95 -103 127 -159 108 -134 b 68 -6 83 -71 74 -39 b 60 101 63 27 60 63 b 68 209 60 140 63 176 b 95 306 74 242 83 274 b 153 380 108 337 127 362 b 247 407 179 398 210 407 b 340 380 283 407 314 398 b 399 306 366 362 386 337 b 426 209 412 274 421 242 b 435 101 432 176 435 140 m 389 101 b 383 184 389 130 387 158 b 365 268 380 210 373 238 b 321 340 356 298 341 322 b 247 367 300 358 276 367 b 173 340 218 367 193 358 b 129 267 153 322 138 297 b 110 182 120 236 114 208 b 106 101 107 156 106 129 b 110 20 106 74 107 47 b 129 -65 114 -6 120 -34 b 173 -137 138 -95 153 -119 b 247 -164 193 -155 218 -164 b 321 -137 276 -164 300 -155 b 365 -65 341 -119 356 -95 b 383 20 373 -34 380 -6 b 389 101 387 47 389 74 "},"₁":{"ha":494,"x_min":0,"x_max":0,"o":"m 242 340 l 122 254 l 94 288 l 247 393 l 288 393 l 288 -190 l 242 -190 "},"₂":{"ha":494,"x_min":0,"x_max":0,"o":"m 65 -190 l 65 -147 l 285 88 b 356 178 319 125 343 155 b 375 251 369 202 375 226 b 341 336 375 288 364 316 b 254 367 318 356 289 367 b 126 264 187 367 144 332 l 82 274 b 144 372 92 316 113 349 b 254 407 176 395 213 407 b 376 365 305 407 346 393 b 421 256 406 336 421 300 b 398 161 421 220 413 189 b 313 53 383 133 354 97 l 122 -150 l 422 -150 l 422 -190 "},"₃":{"ha":494,"x_min":0,"x_max":0,"o":"m 231 -204 b 54 -96 145 -204 87 -168 l 96 -81 b 151 -143 108 -108 126 -129 b 231 -164 176 -157 203 -164 b 328 -130 270 -164 303 -153 b 365 -33 353 -107 365 -75 b 319 62 365 7 350 39 b 208 96 288 84 251 96 l 181 96 l 181 135 l 207 135 b 309 169 250 135 284 146 b 346 256 334 191 346 220 b 313 338 346 291 335 318 b 231 368 290 358 263 368 b 117 306 180 368 142 347 l 81 326 b 231 407 116 380 166 407 b 348 367 280 407 319 394 b 392 257 377 340 392 303 b 360 166 392 221 381 191 b 278 118 340 141 312 125 l 278 115 b 375 65 319 109 351 92 b 411 -35 399 38 411 5 b 360 -159 411 -87 394 -129 b 231 -204 327 -189 283 -204 "},"₄":{"ha":494,"x_min":0,"x_max":0,"o":"m 313 -190 l 313 -46 l 46 -46 l 46 -3 l 297 393 l 356 393 l 356 -6 l 446 -6 l 446 -46 l 356 -46 l 356 -190 m 313 336 l 308 336 l 92 -6 l 313 -6 "},"₅":{"ha":494,"x_min":0,"x_max":0,"o":"m 425 -11 b 371 -152 425 -70 407 -117 b 238 -204 335 -187 290 -204 b 68 -108 160 -204 103 -172 l 107 -90 b 238 -164 138 -139 181 -164 b 339 -124 277 -164 311 -150 b 381 -12 367 -97 381 -60 b 340 96 381 32 367 68 b 229 138 312 124 275 138 b 110 101 191 138 151 125 l 115 393 l 400 393 l 400 353 l 160 353 l 156 160 b 239 176 184 171 212 176 b 374 124 295 176 341 159 b 425 -11 408 88 425 44 "},"₆":{"ha":494,"x_min":0,"x_max":0,"o":"m 431 -22 b 378 -153 431 -75 413 -119 b 247 -204 344 -187 300 -204 b 115 -153 194 -204 150 -187 b 64 -22 81 -120 64 -76 b 117 135 64 23 81 75 l 269 393 l 324 393 l 167 136 l 168 135 b 256 163 196 153 225 163 b 381 111 306 163 347 145 b 431 -22 414 77 431 32 m 385 -22 b 347 83 385 20 372 55 b 250 124 322 110 290 124 b 151 82 211 124 178 110 b 110 -22 123 54 110 19 b 149 -124 110 -63 123 -97 b 247 -164 175 -150 207 -164 b 346 -124 287 -164 320 -150 b 385 -22 372 -97 385 -63 "},"₇":{"ha":494,"x_min":0,"x_max":0,"o":"m 132 -190 l 371 353 l 86 353 l 86 393 l 418 393 l 418 356 l 182 -190 "},"₈":{"ha":494,"x_min":0,"x_max":0,"o":"m 431 -33 b 378 -157 431 -84 413 -125 b 249 -204 344 -188 300 -204 b 117 -157 196 -204 152 -188 b 65 -33 83 -125 65 -84 b 94 60 65 1 75 32 b 175 121 114 89 141 109 l 175 122 b 109 178 146 135 124 154 b 86 256 94 203 86 229 b 133 365 86 300 102 336 b 249 407 164 393 202 407 b 363 365 294 407 332 393 b 408 256 393 336 408 300 b 385 178 408 228 401 202 b 321 122 370 154 349 135 l 321 121 b 401 60 355 109 382 89 b 431 -33 421 32 431 1 m 249 367 b 165 335 215 367 188 356 b 132 256 143 315 132 288 b 165 174 132 223 143 196 b 249 140 188 151 215 140 b 331 174 281 140 308 152 b 364 256 353 197 364 224 b 331 335 364 288 353 315 b 249 367 308 356 281 367 m 249 101 b 150 63 210 101 177 89 b 110 -32 123 38 110 6 b 149 -126 110 -70 123 -101 b 249 -164 175 -151 208 -164 b 348 -126 289 -164 322 -151 b 386 -32 373 -101 386 -70 b 346 63 386 6 373 38 b 249 101 319 89 287 101 "},"₉":{"ha":494,"x_min":0,"x_max":0,"o":"m 431 224 b 378 69 431 180 413 129 l 224 -190 l 171 -190 l 329 69 l 328 71 b 239 43 304 52 274 43 b 114 94 189 43 147 60 b 64 224 81 128 64 171 b 116 355 64 276 81 320 b 247 407 151 390 194 407 b 379 356 301 407 345 390 b 431 224 413 321 431 277 m 385 224 b 346 326 385 264 372 298 b 247 367 320 353 287 367 b 149 326 207 367 175 353 b 110 224 123 298 110 264 b 148 122 110 183 122 149 b 244 82 173 95 206 82 b 344 123 283 82 316 96 b 385 224 371 150 385 184 "},"℅":{"ha":1122,"x_min":0,"x_max":0,"o":"m 283 546 b 124 610 219 546 165 567 b 61 774 82 653 61 708 b 124 937 61 839 82 894 b 283 1001 165 980 219 1001 b 438 933 348 1001 400 979 l 403 906 b 283 960 369 942 330 960 b 158 906 231 960 190 942 b 110 774 126 869 110 825 b 158 641 110 721 126 677 b 283 588 190 605 231 588 b 408 639 334 588 376 605 l 442 611 b 283 546 401 568 348 546 m 231 -17 l 847 1024 l 885 1001 l 269 -39 m 1060 211 b 998 47 1060 144 1039 90 b 838 -17 957 5 903 -17 b 677 47 772 -17 718 5 b 615 211 636 90 615 144 b 677 374 615 278 636 332 b 838 438 718 416 772 438 b 998 374 903 438 957 416 b 1060 211 1039 332 1060 278 m 1013 211 b 965 344 1013 264 997 308 b 838 397 934 379 891 397 b 711 344 785 397 743 379 b 664 211 680 308 664 264 b 711 77 664 157 680 113 b 838 24 743 41 785 24 b 965 77 891 24 934 41 b 1013 211 997 113 1013 157 "},"ℓ":{"ha":694,"x_min":0,"x_max":0,"o":"m 550 49 b 397 -19 505 3 454 -19 b 288 21 353 -19 316 -6 b 246 146 260 48 246 89 l 246 353 l 163 257 l 160 257 l 139 283 l 246 399 l 246 772 b 287 942 246 845 259 902 b 390 1001 314 981 349 1001 b 481 958 427 1001 457 987 b 515 838 504 930 515 889 b 292 388 515 707 441 557 l 292 153 b 326 50 292 105 303 70 b 406 19 348 30 375 19 b 528 74 450 19 491 38 l 531 74 l 550 49 m 475 833 b 451 928 475 872 467 904 b 390 964 434 952 414 964 b 321 917 363 964 340 948 b 292 778 301 886 292 840 l 292 435 b 426 642 349 503 394 572 b 475 833 459 712 475 776 "},"№":{"ha":1431,"x_min":0,"x_max":0,"o":"m 142 983 l 217 983 l 772 65 l 772 983 l 825 983 l 825 0 l 750 0 l 194 921 l 194 0 l 142 0 m 994 493 l 1369 493 l 1369 449 l 994 449 m 1182 582 b 1037 640 1123 582 1074 601 b 981 788 999 678 981 727 b 1037 935 981 848 999 897 b 1182 993 1074 974 1123 993 b 1327 935 1241 993 1290 974 b 1383 788 1365 897 1383 848 b 1327 640 1383 727 1365 678 b 1182 582 1290 601 1241 582 m 1182 618 b 1297 667 1230 618 1268 634 b 1339 788 1325 699 1339 739 b 1297 908 1339 836 1325 876 b 1182 957 1268 941 1230 957 b 1067 908 1134 957 1096 941 b 1025 788 1039 876 1025 836 b 1067 667 1025 739 1039 699 b 1182 618 1096 634 1134 618 "},"℗":{"ha":1111,"x_min":0,"x_max":0,"o":"m 28 490 b 183 861 28 636 79 759 b 557 1014 286 963 411 1014 b 929 861 702 1014 826 963 b 1083 490 1032 759 1083 636 b 929 122 1083 346 1032 223 b 557 -31 826 20 702 -31 b 183 122 411 -31 286 20 b 28 490 79 223 28 346 m 75 490 b 216 154 75 359 122 247 b 557 15 310 62 424 15 b 896 154 689 15 802 62 b 1036 490 989 247 1036 359 b 896 828 1036 623 989 735 b 557 968 802 922 689 968 b 216 828 424 968 310 922 b 75 490 122 735 75 623 m 406 788 l 611 788 b 763 742 673 788 724 772 b 822 606 803 711 822 666 b 766 468 822 548 803 502 b 618 417 728 434 679 417 l 454 417 l 454 178 l 406 178 m 618 461 b 730 499 664 461 702 474 b 772 606 758 525 772 560 b 727 709 772 651 757 685 b 614 744 697 733 659 744 l 454 744 l 454 461 "},"™":{"ha":1389,"x_min":0,"x_max":0,"o":"m 546 942 l 360 942 l 360 411 l 313 411 l 313 942 l 126 942 l 126 983 l 546 983 m 1253 411 l 1207 411 l 1207 935 l 1204 935 l 982 411 l 953 411 l 733 935 l 731 935 l 731 411 l 685 411 l 685 983 l 760 983 l 968 486 l 1178 983 l 1253 983 "},"Ω":{"ha":1028,"x_min":0,"x_max":0,"o":"m 621 0 l 621 231 b 813 351 704 246 768 286 b 881 581 858 415 881 492 b 772 848 881 687 844 776 b 507 956 700 920 612 956 b 242 848 402 956 314 920 b 133 581 169 776 133 687 b 201 351 133 492 156 415 b 393 231 246 286 310 246 l 393 0 l 83 0 l 83 44 l 353 44 l 353 196 b 156 338 269 220 204 267 b 83 581 107 409 83 490 b 208 881 83 700 125 800 b 507 1001 291 961 390 1001 b 807 881 625 1001 725 961 b 931 581 889 800 931 700 b 859 338 931 490 907 409 b 661 196 811 267 745 220 l 661 44 l 931 44 l 931 0 "},"℮":{"ha":840,"x_min":0,"x_max":0,"o":"m 218 360 l 218 108 b 419 26 273 54 340 26 b 688 193 532 26 622 82 l 736 164 b 600 20 694 97 648 49 b 419 -24 552 -9 492 -24 b 160 86 313 -24 227 13 b 61 360 94 159 61 250 b 160 634 61 470 94 561 b 419 743 225 707 312 743 b 678 636 526 743 612 707 b 779 360 745 565 778 473 m 622 410 l 622 611 b 418 694 564 667 496 694 b 218 611 340 694 274 667 l 218 410 "},"∂":{"ha":668,"x_min":0,"x_max":0,"o":"m 308 -21 b 124 68 233 -21 172 9 b 51 286 75 127 51 200 b 122 500 51 376 75 447 b 304 579 169 553 230 579 b 447 539 355 579 403 566 b 553 432 491 512 526 476 b 556 533 555 480 556 514 b 484 843 556 660 532 763 b 286 963 436 923 370 963 b 132 904 233 963 182 943 l 107 938 b 283 1006 161 983 219 1006 b 469 935 358 1006 420 982 b 572 756 519 888 553 828 b 601 507 592 684 601 601 b 522 111 601 331 575 199 b 308 -21 469 23 398 -21 m 310 22 b 419 58 351 22 388 34 b 492 154 451 82 475 114 b 531 270 509 194 522 233 b 547 385 539 308 544 346 b 441 494 518 430 482 466 b 310 535 400 521 356 535 b 156 461 244 535 193 510 b 101 286 120 412 101 354 b 157 104 101 219 120 159 b 310 22 194 50 245 22 "},"∆":{"ha":918,"x_min":0,"x_max":0,"o":"m 44 0 l 426 989 l 488 989 l 876 0 m 457 942 l 110 46 l 807 46 "},"∏":{"ha":981,"x_min":0,"x_max":0,"o":"m 813 -297 l 813 1046 l 168 1046 l 168 -297 l 119 -297 l 119 1092 l 863 1092 l 863 -297 "},"∑":{"ha":828,"x_min":0,"x_max":0,"o":"m 54 -297 l 54 -253 l 521 401 l 74 1046 l 74 1092 l 758 1092 l 758 1046 l 135 1046 l 585 401 l 115 -251 l 774 -251 l 774 -297 "},"−":{"ha":925,"x_min":0,"x_max":0,"o":"m 796 403 l 129 403 l 129 446 l 796 446 "},"∕":{"ha":139,"x_min":0,"x_max":0,"o":"m -236 -39 l -274 -17 l 342 1024 l 379 1001 "},"∙":{"ha":342,"x_min":0,"x_max":0,"o":"m 217 379 b 203 346 217 366 212 355 b 171 332 195 337 184 332 b 140 346 159 332 148 337 b 126 379 131 355 126 366 b 140 413 126 392 131 403 b 171 426 148 422 159 426 b 203 413 184 426 195 422 b 217 379 212 403 217 392 "},"√":{"ha":668,"x_min":0,"x_max":0,"o":"m 376 -299 l 318 -299 l 86 201 l 7 163 l -11 203 l 110 260 l 340 -242 l 618 1092 l 667 1092 "},"∞":{"ha":1011,"x_min":0,"x_max":0,"o":"m 263 154 b 137 208 212 154 170 172 b 88 344 104 243 88 289 b 136 482 88 400 104 446 b 261 536 169 518 210 536 b 514 372 329 536 413 481 b 765 536 615 481 699 536 b 891 483 816 536 858 518 b 940 346 924 447 940 401 b 892 208 940 289 924 243 b 767 154 859 172 818 154 b 514 315 697 154 613 208 b 263 154 413 208 329 154 m 263 196 b 363 232 294 196 327 208 b 486 343 398 256 439 293 b 360 458 436 395 394 433 b 261 494 325 482 293 494 b 167 451 221 494 190 480 b 132 343 144 422 132 386 b 167 239 132 302 144 268 b 263 196 190 210 222 196 m 768 196 b 863 239 808 196 839 210 b 897 343 886 268 897 302 b 863 451 897 386 886 422 b 767 494 839 480 807 494 b 668 458 735 494 702 482 b 542 343 634 433 592 395 b 669 231 594 291 636 254 b 768 196 702 207 735 196 "},"∫":{"ha":746,"x_min":0,"x_max":0,"o":"m 225 -287 b 176 -275 206 -287 189 -283 b 157 -239 163 -267 157 -255 b 167 -215 157 -229 160 -221 b 190 -206 173 -209 181 -206 b 222 -228 200 -206 211 -213 b 251 -251 232 -244 242 -251 b 302 -182 274 -251 291 -228 b 319 -15 314 -136 319 -80 l 319 482 b 325 861 319 701 321 828 b 336 939 328 892 331 918 b 357 1007 341 960 348 983 b 398 1062 366 1031 380 1049 b 463 1081 416 1074 438 1081 b 513 1068 482 1081 499 1076 b 535 1031 528 1060 535 1047 b 524 1006 535 1020 531 1012 b 500 996 517 999 509 996 b 467 1019 489 996 478 1004 b 438 1043 457 1035 447 1043 b 385 971 413 1043 396 1019 b 369 796 375 923 369 864 l 369 89 b 358 -147 369 -32 366 -111 b 225 -287 340 -241 295 -287 "},"≈":{"ha":925,"x_min":0,"x_max":0,"o":"m 69 388 b 117 505 75 435 91 474 b 235 551 144 536 183 551 b 435 503 276 551 343 535 b 622 454 526 470 589 454 b 754 572 696 454 740 494 l 790 572 b 742 456 786 526 769 487 b 621 408 714 424 674 408 b 425 457 581 408 516 425 b 242 506 334 489 273 506 b 106 388 164 506 119 466 l 69 388 m 69 133 b 117 251 75 181 91 220 b 235 299 144 283 183 299 b 435 249 277 299 344 282 b 622 200 527 216 589 200 b 754 319 695 200 739 240 l 790 319 b 741 201 785 272 768 233 b 621 154 714 170 674 154 b 424 203 580 154 515 171 b 242 253 334 236 273 253 b 106 133 164 253 119 213 l 69 133 "},"≠":{"ha":925,"x_min":0,"x_max":0,"o":"m 404 251 l 290 25 l 251 46 l 357 251 l 131 251 l 131 296 l 379 296 l 481 497 l 131 497 l 131 542 l 503 542 l 606 746 l 646 726 l 553 542 l 794 542 l 794 497 l 529 497 l 428 296 l 794 296 l 794 251 "},"≤":{"ha":925,"x_min":0,"x_max":0,"o":"m 131 407 l 131 457 l 794 753 l 794 706 l 178 432 l 794 158 l 794 111 m 131 3 l 131 47 l 794 47 l 794 3 "}}}
